RaviPrakash.ufo
<glyph name="exclam" format="1">
  <advance width="203"/>
  <unicode hex="0021"/>
  <outline>
    <contour>
      <point x="121" y="440" type="qcurve"/>
      <point x="119" y="418"/>
      <point x="95" y="184"/>
      <point x="88" y="140" type="qcurve"/>
      <point x="63" y="142" type="line"/>
      <point x="59" y="161"/>
      <point x="0" y="455"/>
      <point x="0" y="465" type="qcurve"/>
      <point x="0" y="492"/>
      <point x="24" y="525"/>
      <point x="43" y="527" type="qcurve"/>
      <point x="83" y="530"/>
      <point x="132" y="489"/>
    </contour>
    <contour>
      <point x="130" y="84" type="qcurve"/>
      <point x="132" y="76"/>
      <point x="130" y="51"/>
      <point x="119" y="28"/>
      <point x="98" y="7"/>
      <point x="84" y="2" type="qcurve"/>
      <point x="70" y="-2"/>
      <point x="46" y="5"/>
      <point x="29" y="20"/>
      <point x="18" y="41"/>
      <point x="16" y="50" type="qcurve"/>
      <point x="15" y="55"/>
      <point x="18" y="70"/>
      <point x="26" y="84"/>
      <point x="36" y="98"/>
      <point x="47" y="110"/>
      <point x="58" y="117"/>
      <point x="63" y="118" type="qcurve"/>
      <point x="74" y="119"/>
      <point x="94" y="116"/>
      <point x="113" y="106"/>
      <point x="126" y="93"/>
    </contour>
  </outline>
</glyph>
<glyph name="parenleft" format="1">
  <advance width="401"/>
  <unicode hex="0028"/>
  <outline>
    <contour>
      <point x="307" y="473" type="qcurve" name="hr00"/>
      <point x="274" y="476"/>
      <point x="248" y="473" type="qcurve"/>
      <point x="225" y="471"/>
      <point x="186" y="455"/>
      <point x="184" y="436" type="qcurve"/>
      <point x="181" y="424"/>
      <point x="177" y="374"/>
      <point x="175" y="311"/>
      <point x="174" y="243"/>
      <point x="175" y="181"/>
      <point x="176" y="133"/>
      <point x="178" y="123" type="qcurve"/>
      <point x="180" y="109"/>
      <point x="203" y="83"/>
      <point x="233" y="65"/>
      <point x="265" y="56"/>
      <point x="276" y="61" type="qcurve"/>
      <point x="276" y="0" type="line"/>
      <point x="246" y="0"/>
      <point x="219" y="4" type="qcurve"/>
      <point x="197" y="8"/>
      <point x="155" y="29"/>
      <point x="147" y="49" type="qcurve"/>
      <point x="142" y="61"/>
      <point x="125" y="125"/>
      <point x="106" y="209"/>
      <point x="89" y="304"/>
      <point x="81" y="390"/>
      <point x="86" y="458"/>
      <point x="98" y="473" type="qcurve"/>
      <point x="117" y="494"/>
      <point x="168" y="529"/>
      <point x="219" y="556"/>
      <point x="261" y="571"/>
      <point x="270" y="571" type="qcurve"/>
      <point x="275" y="560"/>
      <point x="287" y="526"/>
      <point x="293" y="511" type="qcurve"/>
      <point x="299" y="493"/>
    </contour>
  </outline>
</glyph>
<glyph name="parenright" format="1">
  <advance width="422"/>
  <unicode hex="0029"/>
  <outline>
    <contour>
      <point x="72" y="473" type="qcurve" name="hr00"/>
      <point x="78" y="493"/>
      <point x="85" y="511" type="qcurve"/>
      <point x="90" y="526"/>
      <point x="103" y="560"/>
      <point x="109" y="571" type="qcurve"/>
      <point x="118" y="571"/>
      <point x="160" y="556"/>
      <point x="211" y="529"/>
      <point x="262" y="494"/>
      <point x="281" y="473" type="qcurve"/>
      <point x="293" y="458"/>
      <point x="298" y="390"/>
      <point x="290" y="304"/>
      <point x="272" y="209"/>
      <point x="254" y="125"/>
      <point x="236" y="61"/>
      <point x="231" y="49" type="qcurve"/>
      <point x="224" y="29"/>
      <point x="182" y="8"/>
      <point x="160" y="4" type="qcurve"/>
      <point x="133" y="0"/>
      <point x="102" y="0" type="qcurve"/>
      <point x="102" y="61" type="line"/>
      <point x="114" y="56"/>
      <point x="145" y="65"/>
      <point x="176" y="83"/>
      <point x="199" y="109"/>
      <point x="201" y="123" type="qcurve"/>
      <point x="202" y="133"/>
      <point x="204" y="181"/>
      <point x="205" y="243"/>
      <point x="204" y="311"/>
      <point x="202" y="374"/>
      <point x="198" y="424"/>
      <point x="195" y="436" type="qcurve"/>
      <point x="193" y="455"/>
      <point x="154" y="471"/>
      <point x="131" y="473" type="qcurve"/>
      <point x="104" y="476"/>
    </contour>
  </outline>
</glyph>
<glyph name="plus" format="1">
  <advance width="421"/>
  <unicode hex="002B"/>
  <outline>
    <contour>
      <point x="251" y="421" type="line" name="hr00"/>
      <point x="252" y="286" type="line"/>
      <point x="388" y="287" type="line"/>
      <point x="371" y="189" type="line"/>
      <point x="252" y="189" type="line"/>
      <point x="252" y="70" type="line"/>
      <point x="155" y="70" type="line"/>
      <point x="155" y="189" type="line"/>
      <point x="24" y="188" type="line"/>
      <point x="35" y="286" type="line"/>
      <point x="155" y="286" type="line"/>
      <point x="155" y="406" type="line"/>
    </contour>
  </outline>
</glyph>
<glyph name="comma" format="1">
  <advance width="191"/>
  <unicode hex="002C"/>
  <outline>
    <contour>
      <point x="34" y="-49" type="line" name="hr00"/>
      <point x="51" y="-40"/>
      <point x="51" y="-22" type="qcurve"/>
      <point x="51" y="-9"/>
      <point x="43" y="-4" type="qcurve"/>
      <point x="40" y="-4"/>
      <point x="37" y="-3" type="qcurve"/>
      <point x="32" y="-1"/>
      <point x="22" y="4"/>
      <point x="16" y="9" type="qcurve"/>
      <point x="3" y="20"/>
      <point x="2" y="39" type="qcurve"/>
      <point x="1" y="43"/>
      <point x="3" y="55"/>
      <point x="9" y="68"/>
      <point x="18" y="80"/>
      <point x="28" y="89"/>
      <point x="38" y="95"/>
      <point x="42" y="96" type="qcurve"/>
      <point x="51" y="97"/>
      <point x="69" y="94"/>
      <point x="84" y="87"/>
      <point x="95" y="76"/>
      <point x="99" y="68" type="qcurve"/>
      <point x="100" y="68" type="line"/>
      <point x="119" y="31"/>
      <point x="91" y="-23" type="qcurve"/>
      <point x="77" y="-46"/>
      <point x="49" y="-57" type="qcurve"/>
    </contour>
  </outline>
</glyph>
<glyph name="hyphen" format="1">
  <advance width="441"/>
  <unicode hex="002D"/>
  <outline>
    <contour>
      <point x="371" y="189" type="line"/>
      <point x="17" y="189" type="line"/>
      <point x="35" y="286" type="line" name="hr01"/>
      <point x="392" y="289" type="line"/>
    </contour>
  </outline>
</glyph>
<glyph name="period" format="1">
  <advance width="185"/>
  <unicode hex="002E"/>
  <outline>
    <contour>
      <point x="115" y="84" type="qcurve"/>
      <point x="117" y="76"/>
      <point x="115" y="51"/>
      <point x="103" y="28"/>
      <point x="83" y="7"/>
      <point x="69" y="2" type="qcurve"/>
      <point x="54" y="-2"/>
      <point x="31" y="5"/>
      <point x="13" y="20"/>
      <point x="3" y="41"/>
      <point x="1" y="50" type="qcurve"/>
      <point x="0" y="55"/>
      <point x="3" y="70"/>
      <point x="10" y="84"/>
      <point x="20" y="98"/>
      <point x="32" y="110"/>
      <point x="43" y="117"/>
      <point x="48" y="118" type="qcurve"/>
      <point x="58" y="119"/>
      <point x="79" y="116"/>
      <point x="97" y="106"/>
      <point x="111" y="93"/>
    </contour>
  </outline>
</glyph>
<glyph name="slash" format="1">
  <advance width="381"/>
  <unicode hex="002F"/>
  <outline>
    <contour>
      <point x="312" y="512" type="line" name="hr00"/>
      <point x="98" y="-25" type="line"/>
      <point x="3" y="-25" type="line"/>
      <point x="214" y="512" type="line"/>
    </contour>
  </outline>
</glyph>
<glyph name="zero" format="1">
  <advance width="552"/>
  <unicode hex="0030"/>
  <outline>
    <contour>
      <point x="444" y="327" type="qcurve"/>
      <point x="456" y="294"/>
      <point x="446" y="199"/>
      <point x="402" y="103"/>
      <point x="324" y="24"/>
      <point x="266" y="7" type="qcurve"/>
      <point x="209" y="-9"/>
      <point x="117" y="18"/>
      <point x="50" y="79"/>
      <point x="9" y="157"/>
      <point x="2" y="191" type="qcurve"/>
      <point x="-3" y="213"/>
      <point x="10" y="268"/>
      <point x="38" y="326"/>
      <point x="77" y="381"/>
      <point x="121" y="426"/>
      <point x="166" y="454"/>
      <point x="186" y="456" type="qcurve"/>
      <point x="227" y="460"/>
      <point x="308" y="447"/>
      <point x="378" y="414"/>
      <point x="430" y="361"/>
    </contour>
    <contour>
      <point x="272" y="75" type="qcurve"/>
      <point x="293" y="73"/>
      <point x="330" y="120"/>
      <point x="350" y="189"/>
      <point x="350" y="264"/>
      <point x="334" y="290" type="qcurve"/>
      <point x="317" y="315"/>
      <point x="272" y="353"/>
      <point x="223" y="374"/>
      <point x="178" y="375"/>
      <point x="162" y="364" type="qcurve"/>
      <point x="153" y="357"/>
      <point x="123" y="315"/>
      <point x="102" y="259"/>
      <point x="97" y="194"/>
      <point x="128" y="133"/>
      <point x="203" y="85"/>
    </contour>
  </outline>
</glyph>
<glyph name="one" format="1">
  <advance width="352"/>
  <unicode hex="0031"/>
  <outline>
    <contour>
      <point x="174" y="216" type="qcurve"/>
      <point x="172" y="152"/>
      <point x="196" y="51"/>
      <point x="210" y="6" type="qcurve"/>
      <point x="180" y="14"/>
      <point x="110" y="17"/>
      <point x="73" y="3" type="qcurve"/>
      <point x="61" y="0"/>
      <point x="53" y="13"/>
      <point x="53" y="46"/>
      <point x="58" y="94"/>
      <point x="59" y="125" type="qcurve"/>
      <point x="65" y="208"/>
      <point x="73" y="331"/>
      <point x="73" y="374" type="qcurve"/>
      <point x="73" y="382"/>
      <point x="74" y="402"/>
      <point x="67" y="417"/>
      <point x="45" y="418"/>
      <point x="24" y="407" type="qcurve" name="hr01"/>
      <point x="19" y="403"/>
      <point x="13" y="407"/>
      <point x="8" y="412"/>
      <point x="8" y="418"/>
      <point x="10" y="420" type="qcurve" name="hr02"/>
      <point x="23" y="428"/>
      <point x="66" y="457"/>
      <point x="116" y="484"/>
      <point x="168" y="508"/>
      <point x="190" y="511" type="qcurve"/>
      <point x="191" y="511"/>
      <point x="187" y="455"/>
      <point x="181" y="369"/>
      <point x="175" y="264"/>
    </contour>
  </outline>
</glyph>
<glyph name="two" format="1">
  <advance width="594"/>
  <unicode hex="0032"/>
  <outline>
    <contour>
      <point x="424" y="10" type="qcurve" name="hr00"/>
      <point x="400" y="10"/>
      <point x="326" y="16"/>
      <point x="249" y="24"/>
      <point x="184" y="30"/>
      <point x="171" y="30" type="qcurve"/>
      <point x="139" y="30"/>
      <point x="78" y="12"/>
      <point x="63" y="0" type="qcurve"/>
      <point x="46" y="29"/>
      <point x="19" y="78"/>
      <point x="7" y="115" type="qcurve"/>
      <point x="26" y="127"/>
      <point x="82" y="163"/>
      <point x="146" y="207"/>
      <point x="211" y="258"/>
      <point x="263" y="315"/>
      <point x="296" y="378"/>
      <point x="296" y="410" type="qcurve"/>
      <point x="296" y="423"/>
      <point x="284" y="440"/>
      <point x="266" y="452"/>
      <point x="246" y="456"/>
      <point x="237" y="456" type="qcurve"/>
      <point x="204" y="456"/>
      <point x="154" y="429"/>
      <point x="118" y="391"/>
      <point x="93" y="351"/>
      <point x="86" y="338" type="qcurve"/>
      <point x="84" y="338"/>
      <point x="67" y="364"/>
      <point x="55" y="379" type="qcurve"/>
      <point x="27" y="420" type="line"/>
      <point x="44" y="434"/>
      <point x="86" y="469"/>
      <point x="138" y="499"/>
      <point x="203" y="518"/>
      <point x="244" y="518" type="qcurve"/>
      <point x="301" y="518"/>
      <point x="371" y="495"/>
      <point x="407" y="458"/>
      <point x="416" y="412"/>
      <point x="414" y="390" type="qcurve"/>
      <point x="408" y="346"/>
      <point x="385" y="286"/>
      <point x="352" y="242"/>
      <point x="309" y="210"/>
      <point x="258" y="176"/>
      <point x="200" y="137"/>
      <point x="168" y="109" type="qcurve"/>
      <point x="187" y="109"/>
      <point x="217" y="109"/>
      <point x="244" y="106"/>
      <point x="270" y="104"/>
      <point x="286" y="101" type="qcurve"/>
      <point x="350" y="96"/>
      <point x="440" y="126"/>
      <point x="463" y="151" type="qcurve"/>
      <point x="455" y="113"/>
      <point x="445" y="59"/>
      <point x="439" y="26"/>
      <point x="431" y="10"/>
    </contour>
  </outline>
</glyph>
<glyph name="three" format="1">
  <advance width="560"/>
  <unicode hex="0033"/>
  <outline>
    <contour>
      <point x="205" y="3" type="qcurve" name="hr00"/>
      <point x="166" y="3"/>
      <point x="95" y="2"/>
      <point x="40" y="23"/>
      <point x="3" y="78"/>
      <point x="-1" y="134" type="qcurve"/>
      <point x="-1" y="137"/>
      <point x="20" y="140"/>
      <point x="54" y="142"/>
      <point x="95" y="145"/>
      <point x="114" y="147" type="qcurve"/>
      <point x="112" y="125"/>
      <point x="121" y="106" type="qcurve"/>
      <point x="128" y="91"/>
      <point x="165" y="66"/>
      <point x="202" y="66" type="qcurve"/>
      <point x="244" y="66"/>
      <point x="300" y="100"/>
      <point x="310" y="137" type="qcurve"/>
      <point x="319" y="174"/>
      <point x="285" y="210"/>
      <point x="248" y="219" type="qcurve"/>
      <point x="232" y="222"/>
      <point x="209" y="232"/>
      <point x="197" y="243"/>
      <point x="197" y="253"/>
      <point x="205" y="256" type="qcurve"/>
      <point x="227" y="265"/>
      <point x="258" y="284"/>
      <point x="278" y="310"/>
      <point x="287" y="349"/>
      <point x="287" y="380" type="qcurve"/>
      <point x="287" y="396"/>
      <point x="276" y="416"/>
      <point x="260" y="426"/>
      <point x="239" y="429"/>
      <point x="228" y="429" type="qcurve"/>
      <point x="179" y="433"/>
      <point x="133" y="404"/>
      <point x="126" y="387" type="qcurve"/>
      <point x="117" y="366"/>
      <point x="123" y="338" type="qcurve"/>
      <point x="25" y="387" type="line"/>
      <point x="24" y="422"/>
      <point x="54" y="463"/>
      <point x="111" y="483"/>
      <point x="187" y="488"/>
      <point x="231" y="488" type="qcurve"/>
      <point x="263" y="488"/>
      <point x="329" y="483"/>
      <point x="381" y="465"/>
      <point x="413" y="428"/>
      <point x="412" y="396" type="qcurve"/>
      <point x="409" y="352"/>
      <point x="399" y="303"/>
      <point x="383" y="278"/>
      <point x="357" y="269"/>
      <point x="339" y="265" type="qcurve"/>
      <point x="355" y="262"/>
      <point x="385" y="243"/>
      <point x="407" y="211"/>
      <point x="415" y="168"/>
      <point x="409" y="141" type="qcurve"/>
      <point x="396" y="76"/>
      <point x="367" y="16"/>
      <point x="321" y="-3"/>
      <point x="254" y="3"/>
    </contour>
  </outline>
</glyph>
<glyph name="four" format="1">
  <advance width="649"/>
  <unicode hex="0034"/>
  <outline>
    <contour>
      <point x="361" y="101" type="qcurve"/>
      <point x="361" y="0" type="line"/>
      <point x="353" y="4"/>
      <point x="343" y="8" type="qcurve"/>
      <point x="335" y="11"/>
      <point x="310" y="16"/>
      <point x="296" y="16" type="qcurve"/>
      <point x="284" y="16"/>
      <point x="263" y="7"/>
      <point x="248" y="2"/>
      <point x="240" y="6"/>
      <point x="240" y="19" type="qcurve"/>
      <point x="240" y="95" type="line"/>
      <point x="230" y="93"/>
      <point x="186" y="93"/>
      <point x="131" y="98"/>
      <point x="73" y="109"/>
      <point x="27" y="125"/>
      <point x="1" y="148"/>
      <point x="7" y="164" type="qcurve"/>
      <point x="12" y="190"/>
      <point x="36" y="248"/>
      <point x="68" y="305"/>
      <point x="105" y="361"/>
      <point x="124" y="387" type="qcurve"/>
      <point x="168" y="446"/>
      <point x="220" y="505" type="qcurve"/>
      <point x="252" y="503"/>
      <point x="280" y="500" type="qcurve"/>
      <point x="303" y="498"/>
      <point x="350" y="493"/>
      <point x="361" y="492" type="qcurve"/>
      <point x="361" y="183" type="line"/>
      <point x="393" y="185"/>
      <point x="458" y="202"/>
      <point x="482" y="207" type="qcurve"/>
      <point x="474" y="179"/>
      <point x="462" y="129"/>
      <point x="460" y="121" type="qcurve"/>
      <point x="435" y="114"/>
      <point x="383" y="106"/>
    </contour>
    <contour>
      <point x="102" y="200" type="qcurve" name="hr01"/>
      <point x="97" y="184"/>
      <point x="130" y="172"/>
      <point x="178" y="171"/>
      <point x="229" y="176"/>
      <point x="243" y="177" type="qcurve"/>
      <point x="244" y="182"/>
      <point x="246" y="214"/>
      <point x="248" y="258"/>
      <point x="249" y="311"/>
      <point x="251" y="361"/>
      <point x="252" y="406"/>
      <point x="253" y="420" type="qcurve"/>
      <point x="214" y="369"/>
      <point x="182" y="326" type="qcurve"/>
      <point x="169" y="307"/>
      <point x="142" y="268"/>
      <point x="120" y="234"/>
      <point x="104" y="208"/>
    </contour>
  </outline>
</glyph>
<glyph name="five" format="1">
  <advance width="523"/>
  <unicode hex="0035"/>
  <outline>
    <contour>
      <point x="365" y="485" type="qcurve" name="hr00"/>
      <point x="365" y="387" type="line"/>
      <point x="319" y="386"/>
      <point x="278" y="385" type="qcurve"/>
      <point x="242" y="384"/>
      <point x="162" y="383"/>
      <point x="132" y="383" type="qcurve"/>
      <point x="123" y="383"/>
      <point x="115" y="358"/>
      <point x="113" y="328"/>
      <point x="114" y="301"/>
      <point x="113" y="298" type="qcurve"/>
      <point x="156" y="292"/>
      <point x="251" y="278"/>
      <point x="331" y="251"/>
      <point x="382" y="205"/>
      <point x="381" y="167" type="qcurve"/>
      <point x="381" y="147"/>
      <point x="364" y="88"/>
      <point x="336" y="34"/>
      <point x="302" y="0"/>
      <point x="287" y="6" type="qcurve"/>
      <point x="250" y="23"/>
      <point x="153" y="25"/>
      <point x="109" y="19" type="qcurve"/>
      <point x="57" y="13"/>
      <point x="4" y="0" type="qcurve"/>
      <point x="4" y="154" type="line"/>
      <point x="52" y="124"/>
      <point x="97" y="105" type="qcurve"/>
      <point x="117" y="97"/>
      <point x="157" y="83"/>
      <point x="196" y="75"/>
      <point x="230" y="76"/>
      <point x="244" y="82" type="qcurve"/>
      <point x="270" y="93"/>
      <point x="280" y="137"/>
      <point x="251" y="184"/>
      <point x="187" y="223"/>
      <point x="142" y="229" type="qcurve"/>
      <point x="127" y="230"/>
      <point x="86" y="232"/>
      <point x="67" y="233" type="qcurve"/>
      <point x="44" y="234"/>
      <point x="20" y="236" type="qcurve"/>
      <point x="20" y="325" type="line"/>
      <point x="20" y="357"/>
      <point x="22" y="384" type="qcurve"/>
      <point x="23" y="407"/>
      <point x="27" y="443"/>
      <point x="31" y="445" type="qcurve"/>
      <point x="67" y="450"/>
      <point x="161" y="460"/>
      <point x="256" y="471"/>
      <point x="340" y="481"/>
    </contour>
  </outline>
</glyph>
<glyph name="six" format="1">
  <advance width="501"/>
  <unicode hex="0036"/>
  <outline>
    <contour>
      <point x="388" y="232" type="qcurve" name="hr00"/>
      <point x="398" y="211"/>
      <point x="390" y="142"/>
      <point x="351" y="75"/>
      <point x="283" y="17"/>
      <point x="233" y="6" type="qcurve"/>
      <point x="185" y="-5"/>
      <point x="106" y="14"/>
      <point x="47" y="55"/>
      <point x="10" y="110"/>
      <point x="4" y="134" type="qcurve"/>
      <point x="1" y="143"/>
      <point x="1" y="157" type="qcurve"/>
      <point x="1" y="170" type="line"/>
      <point x="8" y="232"/>
      <point x="32" y="293" type="qcurve"/>
      <point x="42" y="318"/>
      <point x="71" y="374"/>
      <point x="113" y="429"/>
      <point x="166" y="480"/>
      <point x="201" y="502" type="qcurve"/>
      <point x="273" y="442" type="line"/>
      <point x="247" y="426"/>
      <point x="220" y="406" type="qcurve"/>
      <point x="198" y="388"/>
      <point x="150" y="340"/>
      <point x="132" y="311" type="qcurve"/>
      <point x="150" y="322"/>
      <point x="165" y="322" type="qcurve"/>
      <point x="201" y="324"/>
      <point x="271" y="313"/>
      <point x="331" y="290"/>
      <point x="377" y="255"/>
    </contour>
    <contour>
      <point x="237" y="66" type="qcurve"/>
      <point x="254" y="63"/>
      <point x="283" y="93"/>
      <point x="298" y="137"/>
      <point x="296" y="185"/>
      <point x="283" y="203" type="qcurve"/>
      <point x="269" y="220"/>
      <point x="233" y="244"/>
      <point x="197" y="256"/>
      <point x="162" y="254"/>
      <point x="148" y="246" type="qcurve"/>
      <point x="139" y="242"/>
      <point x="117" y="216"/>
      <point x="101" y="181"/>
      <point x="100" y="140"/>
      <point x="126" y="103"/>
      <point x="184" y="73"/>
    </contour>
  </outline>
</glyph>
<glyph name="seven" format="1">
  <advance width="485"/>
  <unicode hex="0037"/>
  <outline>
    <contour>
      <point x="191" y="10" type="qcurve"/>
      <point x="167" y="17"/>
      <point x="122" y="12"/>
      <point x="89" y="4"/>
      <point x="71" y="-1"/>
      <point x="74" y="6" type="qcurve"/>
      <point x="95" y="60"/>
      <point x="147" y="181"/>
      <point x="197" y="296"/>
      <point x="240" y="396"/>
      <point x="254" y="429" type="qcurve"/>
      <point x="251" y="423"/>
      <point x="233" y="417"/>
      <point x="212" y="416"/>
      <point x="190" y="416"/>
      <point x="184" y="416" type="qcurve"/>
      <point x="170" y="416"/>
      <point x="117" y="412"/>
      <point x="89" y="410" type="qcurve" name="hr01"/>
      <point x="56" y="407"/>
      <point x="20" y="403" type="qcurve" name="hr02"/>
      <point x="17" y="418"/>
      <point x="13" y="434" type="qcurve"/>
      <point x="10" y="449"/>
      <point x="3" y="484"/>
      <point x="1" y="505" type="qcurve"/>
      <point x="20" y="504"/>
      <point x="72" y="504"/>
      <point x="127" y="504"/>
      <point x="185" y="504"/>
      <point x="213" y="504" type="qcurve"/>
      <point x="276" y="504"/>
      <point x="345" y="505" type="qcurve"/>
      <point x="350" y="477"/>
      <point x="354" y="455" type="qcurve"/>
      <point x="357" y="435"/>
      <point x="362" y="401"/>
      <point x="361" y="399" type="qcurve"/>
      <point x="317" y="306"/>
      <point x="233" y="112"/>
    </contour>
  </outline>
</glyph>
<glyph name="eight" format="1">
  <advance width="517"/>
  <unicode hex="0038"/>
  <outline>
    <contour>
      <point x="299" y="252" type="qcurve"/>
      <point x="348" y="231"/>
      <point x="396" y="169"/>
      <point x="394" y="103"/>
      <point x="343" y="41"/>
      <point x="293" y="19" type="qcurve"/>
      <point x="252" y="4"/>
      <point x="156" y="0"/>
      <point x="70" y="24"/>
      <point x="9" y="74"/>
      <point x="4" y="112" type="qcurve"/>
      <point x="0" y="139"/>
      <point x="11" y="184"/>
      <point x="33" y="218"/>
      <point x="63" y="242"/>
      <point x="80" y="249" type="qcurve"/>
      <point x="87" y="251"/>
      <point x="101" y="257"/>
      <point x="109" y="259" type="qcurve"/>
      <point x="106" y="261"/>
      <point x="101" y="263"/>
      <point x="99" y="265" type="qcurve"/>
      <point x="50" y="287"/>
      <point x="2" y="348"/>
      <point x="4" y="413"/>
      <point x="55" y="474"/>
      <point x="105" y="495" type="qcurve"/>
      <point x="145" y="512"/>
      <point x="242" y="517"/>
      <point x="328" y="494"/>
      <point x="389" y="442"/>
      <point x="394" y="403" type="qcurve"/>
      <point x="397" y="376"/>
      <point x="387" y="333"/>
      <point x="365" y="300"/>
      <point x="333" y="275"/>
      <point x="315" y="268" type="qcurve"/>
      <point x="307" y="263"/>
      <point x="296" y="258"/>
      <point x="286" y="256" type="qcurve"/>
      <point x="288" y="256"/>
      <point x="297" y="252"/>
    </contour>
    <contour>
      <point x="145" y="439" type="qcurve"/>
      <point x="116" y="427"/>
      <point x="91" y="385"/>
      <point x="109" y="350" type="qcurve"/>
      <point x="119" y="331"/>
      <point x="160" y="305"/>
      <point x="203" y="292"/>
      <point x="239" y="287"/>
      <point x="244" y="289" type="qcurve"/>
      <point x="265" y="296"/>
      <point x="290" y="318"/>
      <point x="297" y="346"/>
      <point x="289" y="377"/>
      <point x="280" y="393" type="qcurve"/>
      <point x="268" y="411"/>
      <point x="230" y="433"/>
      <point x="190" y="444"/>
      <point x="155" y="444"/>
    </contour>
    <contour>
      <point x="244" y="76" type="qcurve"/>
      <point x="273" y="90"/>
      <point x="294" y="144"/>
      <point x="280" y="177" type="qcurve"/>
      <point x="269" y="197"/>
      <point x="234" y="221"/>
      <point x="198" y="231"/>
      <point x="165" y="231"/>
      <point x="158" y="226" type="qcurve"/>
      <point x="119" y="206"/>
      <point x="103" y="163"/>
      <point x="125" y="128" type="qcurve"/>
      <point x="135" y="111"/>
      <point x="168" y="87"/>
      <point x="203" y="75"/>
      <point x="234" y="72"/>
    </contour>
  </outline>
</glyph>
<glyph name="nine" format="1">
  <advance width="501"/>
  <unicode hex="0039"/>
  <outline>
    <contour>
      <point x="10" y="268" type="qcurve" name="hr00"/>
      <point x="-1" y="292"/>
      <point x="7" y="359"/>
      <point x="45" y="427"/>
      <point x="113" y="483"/>
      <point x="161" y="495" type="qcurve"/>
      <point x="210" y="507"/>
      <point x="290" y="488"/>
      <point x="350" y="447"/>
      <point x="387" y="393"/>
      <point x="393" y="371" type="qcurve"/>
      <point x="394" y="366"/>
      <point x="394" y="352"/>
      <point x="394" y="346" type="qcurve"/>
      <point x="394" y="339"/>
      <point x="393" y="331" type="qcurve"/>
      <point x="387" y="268"/>
      <point x="364" y="208" type="qcurve"/>
      <point x="353" y="182"/>
      <point x="325" y="127"/>
      <point x="284" y="73"/>
      <point x="230" y="22"/>
      <point x="197" y="0" type="qcurve"/>
      <point x="125" y="62" type="line"/>
      <point x="150" y="78"/>
      <point x="173" y="96" type="qcurve"/>
      <point x="194" y="113"/>
      <point x="239" y="158"/>
      <point x="256" y="186" type="qcurve"/>
      <point x="246" y="184"/>
      <point x="227" y="177"/>
      <point x="219" y="177" type="qcurve"/>
      <point x="183" y="173"/>
      <point x="118" y="184"/>
      <point x="62" y="210"/>
      <point x="20" y="247"/>
    </contour>
    <contour>
      <point x="170" y="439" type="qcurve"/>
      <point x="153" y="440"/>
      <point x="122" y="411"/>
      <point x="102" y="366"/>
      <point x="101" y="316"/>
      <point x="115" y="298" type="qcurve"/>
      <point x="128" y="281"/>
      <point x="162" y="256"/>
      <point x="196" y="242"/>
      <point x="229" y="242"/>
      <point x="243" y="249" type="qcurve"/>
      <point x="251" y="254"/>
      <point x="274" y="285"/>
      <point x="293" y="325"/>
      <point x="298" y="370"/>
      <point x="275" y="410"/>
      <point x="221" y="436"/>
    </contour>
  </outline>
</glyph>
<glyph name="colon" format="1">
  <advance width="195"/>
  <unicode hex="003A"/>
  <outline>
    <contour>
      <point x="125" y="303" type="qcurve" name="hr00"/>
      <point x="125" y="278"/>
      <point x="89" y="238"/>
      <point x="65" y="238" type="qcurve"/>
      <point x="0" y="238"/>
      <point x="0" y="297" type="qcurve"/>
      <point x="0" y="324"/>
      <point x="37" y="363"/>
      <point x="64" y="363" type="qcurve"/>
      <point x="91" y="363"/>
      <point x="125" y="330"/>
    </contour>
    <contour>
      <point x="125" y="63" type="qcurve"/>
      <point x="125" y="38"/>
      <point x="89" y="-2"/>
      <point x="65" y="-2" type="qcurve"/>
      <point x="0" y="-2"/>
      <point x="0" y="57" type="qcurve"/>
      <point x="0" y="84"/>
      <point x="37" y="123"/>
      <point x="64" y="123" type="qcurve"/>
      <point x="91" y="123"/>
      <point x="125" y="90"/>
    </contour>
  </outline>
</glyph>
<glyph name="semicolon" format="1">
  <advance width="195"/>
  <unicode hex="003B"/>
  <outline>
    <contour>
      <point x="37" y="-52" type="qcurve"/>
      <point x="57" y="-41" name="hr02"/>
      <point x="57" y="-20" type="qcurve"/>
      <point x="57" y="-1"/>
      <point x="40" y="3" type="qcurve"/>
      <point x="28" y="5"/>
      <point x="17" y="16" type="qcurve"/>
      <point x="0" y="31"/>
      <point x="0" y="54" type="qcurve"/>
      <point x="0" y="77"/>
      <point x="30" y="110"/>
      <point x="52" y="110" type="qcurve"/>
      <point x="81" y="110"/>
      <point x="123" y="66"/>
      <point x="123" y="36" type="qcurve"/>
      <point x="123" y="8"/>
      <point x="104" y="-21" type="qcurve"/>
      <point x="82" y="-54"/>
      <point x="50" y="-54" type="qcurve"/>
      <point x="44" y="-54"/>
    </contour>
    <contour>
      <point x="125" y="303" type="qcurve" name="hr01"/>
      <point x="125" y="278"/>
      <point x="89" y="238"/>
      <point x="65" y="238" type="qcurve"/>
      <point x="0" y="238"/>
      <point x="0" y="297" type="qcurve"/>
      <point x="0" y="324"/>
      <point x="37" y="363"/>
      <point x="64" y="363" type="qcurve"/>
      <point x="91" y="363"/>
      <point x="125" y="330"/>
    </contour>
  </outline>
</glyph>
<glyph name="equal" format="1">
  <advance width="441"/>
  <unicode hex="003D"/>
  <outline>
    <contour>
      <point x="371" y="259" type="line" name="hr00"/>
      <point x="35" y="259" type="line"/>
      <point x="35" y="336" type="line"/>
      <point x="371" y="336" type="line"/>
    </contour>
    <contour>
      <point x="371" y="119" type="line"/>
      <point x="35" y="119" type="line"/>
      <point x="35" y="196" type="line"/>
      <point x="371" y="196" type="line"/>
    </contour>
  </outline>
</glyph>
<glyph name="question" format="1">
  <advance width="332"/>
  <unicode hex="003F"/>
  <outline>
    <contour>
      <point x="174" y="13" type="qcurve" name="hr00"/>
      <point x="174" y="-14"/>
      <point x="148" y="-31" type="qcurve"/>
      <point x="129" y="-43"/>
      <point x="94" y="-38"/>
      <point x="84" y="-31" type="qcurve"/>
      <point x="61" y="-15"/>
      <point x="61" y="11" type="qcurve"/>
      <point x="61" y="34"/>
      <point x="95" y="70"/>
      <point x="117" y="70" type="qcurve"/>
      <point x="141" y="70"/>
      <point x="174" y="39"/>
    </contour>
    <contour>
      <point x="33" y="375" type="line"/>
      <point x="24" y="408"/>
      <point x="31" y="434" type="qcurve"/>
      <point x="37" y="457"/>
      <point x="84" y="496"/>
      <point x="140" y="500" type="qcurve"/>
      <point x="177" y="502"/>
      <point x="226" y="493"/>
      <point x="258" y="477"/>
      <point x="275" y="458"/>
      <point x="280" y="451" type="qcurve"/>
      <point x="300" y="411"/>
      <point x="282" y="342"/>
      <point x="248" y="309" type="qcurve"/>
      <point x="233" y="296"/>
      <point x="198" y="263"/>
      <point x="163" y="231"/>
      <point x="134" y="204"/>
      <point x="127" y="196" type="qcurve"/>
      <point x="120" y="188"/>
      <point x="116" y="167"/>
      <point x="121" y="147"/>
      <point x="135" y="137"/>
      <point x="146" y="140" type="qcurve"/>
      <point x="146" y="140"/>
      <point x="147" y="118"/>
      <point x="136" y="94"/>
      <point x="109" y="85"/>
      <point x="81" y="99" type="qcurve"/>
      <point x="71" y="104"/>
      <point x="50" y="136"/>
      <point x="51" y="179"/>
      <point x="84" y="229"/>
      <point x="127" y="254" type="qcurve"/>
      <point x="214" y="304"/>
      <point x="260" y="388"/>
      <point x="227" y="424" type="qcurve"/>
      <point x="203" y="451"/>
      <point x="140" y="459"/>
      <point x="93" y="436"/>
      <point x="77" y="391"/>
      <point x="97" y="365" type="qcurve"/>
    </contour>
  </outline>
</glyph>
<glyph name="backslash" format="1">
  <advance width="378"/>
  <unicode hex="005C"/>
  <outline>
    <contour>
      <point x="98" y="512" type="line" name="hr00"/>
      <point x="309" y="-25" type="line"/>
      <point x="214" y="-25" type="line"/>
      <point x="0" y="512" type="line"/>
    </contour>
  </outline>
</glyph>
<glyph name="underscore" format="1">
  <advance width="591"/>
  <unicode hex="005F"/>
  <outline>
    <contour>
      <point x="521" y="0" type="line"/>
      <point x="35" y="0" type="line"/>
      <point x="35" y="97" type="line" name="hr01"/>
      <point x="521" y="99" type="line"/>
    </contour>
  </outline>
</glyph>
<glyph name="bar" format="1">
  <advance width="244"/>
  <unicode hex="007C"/>
  <outline>
    <contour>
      <point x="173" y="477" type="line" name="hr00"/>
      <point x="173" y="0" type="line"/>
      <point x="74" y="0" type="line"/>
      <point x="74" y="477" type="line"/>
    </contour>
  </outline>
</glyph>
<glyph name="uni0965" format="1">
  <advance width="368"/>
  <unicode hex="0965"/>
  <outline>
    <contour>
      <point x="88" y="-20" type="line" name="hr00"/>
      <point x="0" y="-20" type="line"/>
      <point x="0" y="472" type="line"/>
      <point x="88" y="472" type="line"/>
    </contour>
    <contour>
      <point x="288" y="-20" type="line"/>
      <point x="200" y="-20" type="line"/>
      <point x="200" y="472" type="line"/>
      <point x="288" y="472" type="line"/>
    </contour>
  </outline>
</glyph>
<glyph name="U0C01" format="1">
  <advance width="382"/>
  <unicode hex="0C01"/>
  <outline>
    <contour>
      <point x="187" y="416" type="line" name="hr00"/>
      <point x="176" y="409"/>
      <point x="147" y="377"/>
      <point x="122" y="334"/>
      <point x="99" y="286"/>
      <point x="94" y="262" type="qcurve"/>
      <point x="80" y="201"/>
      <point x="119" y="110"/>
      <point x="184" y="46"/>
      <point x="253" y="8"/>
      <point x="268" y="0" type="qcurve"/>
      <point x="136" y="0" type="line"/>
      <point x="94" y="20"/>
      <point x="65" y="54" type="qcurve"/>
      <point x="38" y="82"/>
      <point x="2" y="169"/>
      <point x="10" y="230" type="qcurve"/>
      <point x="17" y="268"/>
      <point x="48" y="333"/>
      <point x="85" y="383"/>
      <point x="120" y="418"/>
      <point x="131" y="426" type="qcurve"/>
    </contour>
  </outline>
</glyph>
<glyph name="U0C02" format="1">
  <advance width="537"/>
  <unicode hex="0C02"/>
  <outline>
    <contour>
      <point x="431" y="318" type="qcurve"/>
      <point x="443" y="288"/>
      <point x="434" y="195"/>
      <point x="390" y="101"/>
      <point x="313" y="24"/>
      <point x="258" y="7" type="qcurve"/>
      <point x="203" y="-7"/>
      <point x="114" y="20"/>
      <point x="48" y="78"/>
      <point x="8" y="153"/>
      <point x="2" y="184" type="qcurve"/>
      <point x="-5" y="216"/>
      <point x="27" y="302"/>
      <point x="83" y="381"/>
      <point x="151" y="437"/>
      <point x="179" y="440" type="qcurve"/>
      <point x="220" y="443"/>
      <point x="300" y="430"/>
      <point x="368" y="397"/>
      <point x="419" y="349"/>
    </contour>
    <contour>
      <point x="264" y="76" type="qcurve"/>
      <point x="284" y="74"/>
      <point x="319" y="118"/>
      <point x="340" y="183"/>
      <point x="341" y="255"/>
      <point x="327" y="280" type="qcurve"/>
      <point x="310" y="304"/>
      <point x="264" y="341"/>
      <point x="216" y="361"/>
      <point x="171" y="365"/>
      <point x="157" y="354" type="qcurve"/>
      <point x="146" y="348"/>
      <point x="118" y="307"/>
      <point x="96" y="252"/>
      <point x="93" y="188"/>
      <point x="124" y="131"/>
      <point x="198" y="86"/>
    </contour>
  </outline>
</glyph>
<glyph name="U0C03" format="1">
  <advance width="283"/>
  <unicode hex="0C03"/>
  <outline>
    <contour>
      <point x="183" y="393" type="qcurve"/>
      <point x="187" y="380"/>
      <point x="184" y="341"/>
      <point x="166" y="301"/>
      <point x="133" y="268"/>
      <point x="110" y="262" type="qcurve"/>
      <point x="86" y="256"/>
      <point x="49" y="267"/>
      <point x="22" y="292"/>
      <point x="4" y="324"/>
      <point x="1" y="338" type="qcurve"/>
      <point x="-2" y="351"/>
      <point x="12" y="388"/>
      <point x="36" y="422"/>
      <point x="65" y="445"/>
      <point x="77" y="446" type="qcurve"/>
      <point x="112" y="451"/>
      <point x="172" y="422"/>
    </contour>
    <contour>
      <point x="111" y="301" type="qcurve"/>
      <point x="118" y="300"/>
      <point x="130" y="316"/>
      <point x="137" y="340"/>
      <point x="137" y="366"/>
      <point x="131" y="375" type="qcurve"/>
      <point x="120" y="391"/>
      <point x="84" y="407"/>
      <point x="73" y="399" type="qcurve"/>
      <point x="68" y="396"/>
      <point x="52" y="369"/>
      <point x="51" y="335"/>
      <point x="75" y="305"/>
    </contour>
    <contour>
      <point x="183" y="167" type="qcurve"/>
      <point x="187" y="154"/>
      <point x="184" y="115"/>
      <point x="166" y="75"/>
      <point x="133" y="42"/>
      <point x="110" y="36" type="qcurve"/>
      <point x="86" y="30"/>
      <point x="49" y="41"/>
      <point x="22" y="66"/>
      <point x="4" y="97"/>
      <point x="1" y="112" type="qcurve"/>
      <point x="-2" y="125"/>
      <point x="12" y="162"/>
      <point x="36" y="196"/>
      <point x="65" y="219"/>
      <point x="77" y="220" type="qcurve"/>
      <point x="112" y="224"/>
      <point x="172" y="196"/>
    </contour>
    <contour>
      <point x="110" y="75" type="qcurve"/>
      <point x="117" y="74"/>
      <point x="129" y="90"/>
      <point x="136" y="114"/>
      <point x="136" y="139"/>
      <point x="130" y="148" type="qcurve"/>
      <point x="119" y="165"/>
      <point x="82" y="180"/>
      <point x="71" y="173" type="qcurve"/>
      <point x="67" y="170"/>
      <point x="51" y="142"/>
      <point x="50" y="111"/>
      <point x="74" y="81"/>
    </contour>
  </outline>
</glyph>
<glyph name="U0C05" format="1">
  <advance width="727"/>
  <unicode hex="0C05"/>
  <outline>
    <contour>
      <point x="444" y="455" type="qcurve" name="hr00"/>
      <point x="463" y="461"/>
      <point x="524" y="452"/>
      <point x="585" y="409"/>
      <point x="628" y="324"/>
      <point x="628" y="252" type="qcurve"/>
      <point x="628" y="186"/>
      <point x="562" y="91"/>
      <point x="464" y="30"/>
      <point x="349" y="0"/>
      <point x="300" y="0" type="qcurve"/>
      <point x="267" y="0"/>
      <point x="185" y="24"/>
      <point x="108" y="62"/>
      <point x="42" y="111"/>
      <point x="25" y="134" type="qcurve"/>
      <point x="6" y="158"/>
      <point x="-2" y="223"/>
      <point x="19" y="296"/>
      <point x="70" y="368"/>
      <point x="111" y="399" type="qcurve"/>
      <point x="151" y="430"/>
      <point x="228" y="439"/>
      <point x="291" y="418"/>
      <point x="331" y="375"/>
      <point x="333" y="355" type="qcurve"/>
      <point x="335" y="318"/>
      <point x="294" y="259"/>
      <point x="248" y="245" type="qcurve"/>
      <point x="222" y="238"/>
      <point x="179" y="251"/>
      <point x="162" y="262" type="qcurve"/>
      <point x="142" y="274"/>
      <point x="126" y="294" type="qcurve"/>
      <point x="100" y="247"/>
      <point x="122" y="166"/>
      <point x="189" y="105"/>
      <point x="288" y="72"/>
      <point x="340" y="72" type="qcurve"/>
      <point x="385" y="72"/>
      <point x="458" y="103"/>
      <point x="509" y="154"/>
      <point x="537" y="216"/>
      <point x="537" y="246" type="qcurve"/>
      <point x="537" y="271"/>
      <point x="515" y="316"/>
      <point x="482" y="347"/>
      <point x="446" y="365"/>
      <point x="431" y="361" type="qcurve"/>
      <point x="420" y="359"/>
      <point x="417" y="344"/>
      <point x="427" y="319"/>
      <point x="446" y="288"/>
      <point x="458" y="270" type="qcurve"/>
      <point x="469" y="253"/>
      <point x="467" y="209"/>
      <point x="445" y="170"/>
      <point x="406" y="142"/>
      <point x="379" y="140" type="qcurve"/>
      <point x="362" y="138"/>
      <point x="312" y="139"/>
      <point x="289" y="139" type="qcurve"/>
      <point x="261" y="139"/>
      <point x="231" y="140" type="qcurve"/>
      <point x="231" y="212" type="line"/>
      <point x="376" y="212" type="line"/>
      <point x="398" y="212"/>
      <point x="402" y="245"/>
      <point x="392" y="259" type="qcurve"/>
      <point x="362" y="298"/>
      <point x="359" y="367"/>
      <point x="386" y="417"/>
      <point x="428" y="450"/>
    </contour>
    <contour>
      <point x="188" y="377" type="qcurve"/>
      <point x="174" y="367"/>
      <point x="179" y="332"/>
      <point x="204" y="305"/>
      <point x="239" y="295"/>
      <point x="254" y="308" type="qcurve"/>
      <point x="269" y="323"/>
      <point x="264" y="354"/>
      <point x="240" y="378"/>
      <point x="204" y="386"/>
    </contour>
  </outline>
</glyph>
<glyph name="U0C06" format="1">
  <advance width="712"/>
  <unicode hex="0C06"/>
  <outline>
    <contour>
      <point x="444" y="456" type="qcurve" name="hr00"/>
      <point x="479" y="464"/>
      <point x="542" y="444"/>
      <point x="588" y="401"/>
      <point x="613" y="341"/>
      <point x="610" y="278"/>
      <point x="574" y="215"/>
      <point x="536" y="190" type="qcurve"/>
      <point x="550" y="161"/>
      <point x="541" y="110"/>
      <point x="507" y="67"/>
      <point x="454" y="34"/>
      <point x="391" y="11"/>
      <point x="326" y="-1"/>
      <point x="297" y="0" type="qcurve"/>
      <point x="295" y="0"/>
      <point x="267" y="2"/>
      <point x="224" y="10"/>
      <point x="168" y="27"/>
      <point x="109" y="57"/>
      <point x="50" y="104"/>
      <point x="25" y="137" type="qcurve"/>
      <point x="6" y="161"/>
      <point x="-2" y="227"/>
      <point x="18" y="300"/>
      <point x="70" y="375"/>
      <point x="110" y="406" type="qcurve"/>
      <point x="151" y="436"/>
      <point x="228" y="443"/>
      <point x="290" y="421"/>
      <point x="330" y="380"/>
      <point x="333" y="361" type="qcurve"/>
      <point x="335" y="325"/>
      <point x="302" y="269"/>
      <point x="253" y="253" type="qcurve"/>
      <point x="228" y="245"/>
      <point x="181" y="257"/>
      <point x="164" y="266" type="qcurve"/>
      <point x="143" y="278"/>
      <point x="125" y="295" type="qcurve"/>
      <point x="98" y="246"/>
      <point x="121" y="166"/>
      <point x="188" y="108"/>
      <point x="288" y="76"/>
      <point x="339" y="76" type="qcurve"/>
      <point x="374" y="76"/>
      <point x="417" y="91"/>
      <point x="440" y="113"/>
      <point x="446" y="140"/>
      <point x="444" y="157" type="qcurve"/>
      <point x="432" y="155"/>
      <point x="407" y="150"/>
      <point x="391" y="146" type="qcurve"/>
      <point x="354" y="142"/>
      <point x="295" y="142"/>
      <point x="274" y="143" type="qcurve"/>
      <point x="250" y="144"/>
      <point x="231" y="146" type="qcurve"/>
      <point x="231" y="218" type="line"/>
      <point x="249" y="216"/>
      <point x="272" y="215" type="qcurve"/>
      <point x="293" y="214"/>
      <point x="349" y="215"/>
      <point x="385" y="218" type="qcurve"/>
      <point x="395" y="218"/>
      <point x="410" y="221"/>
      <point x="418" y="221" type="qcurve"/>
      <point x="413" y="231"/>
      <point x="403" y="247"/>
      <point x="399" y="253" type="qcurve"/>
      <point x="395" y="259"/>
      <point x="391" y="265" type="qcurve"/>
      <point x="361" y="305"/>
      <point x="360" y="372"/>
      <point x="387" y="421"/>
      <point x="429" y="453"/>
    </contour>
    <contour>
      <point x="188" y="380" type="qcurve"/>
      <point x="172" y="370"/>
      <point x="175" y="335"/>
      <point x="198" y="306"/>
      <point x="236" y="297"/>
      <point x="254" y="312" type="qcurve"/>
      <point x="270" y="326"/>
      <point x="265" y="358"/>
      <point x="240" y="382"/>
      <point x="203" y="391"/>
    </contour>
    <contour>
      <point x="489" y="250" type="qcurve"/>
      <point x="512" y="263"/>
      <point x="528" y="298"/>
      <point x="525" y="329"/>
      <point x="506" y="356"/>
      <point x="478" y="373"/>
      <point x="445" y="375"/>
      <point x="431" y="365" type="qcurve"/>
      <point x="413" y="354"/>
      <point x="419" y="322"/>
      <point x="430" y="307" type="qcurve"/>
      <point x="443" y="290"/>
      <point x="467" y="271" type="qcurve"/>
      <point x="475" y="264"/>
      <point x="484" y="255"/>
    </contour>
  </outline>
</glyph>
<glyph name="U0C07" format="1">
  <advance width="651"/>
  <unicode hex="0C07"/>
  <outline>
    <contour>
      <point x="534" y="208" type="qcurve" name="hr00"/>
      <point x="516" y="172"/>
      <point x="485" y="126"/>
      <point x="474" y="113" type="qcurve"/>
      <point x="461" y="96"/>
      <point x="449" y="89" type="qcurve"/>
      <point x="520" y="31" type="line"/>
      <point x="449" y="-9" type="line"/>
      <point x="434" y="5"/>
      <point x="422" y="17" type="qcurve"/>
      <point x="411" y="28"/>
      <point x="389" y="51"/>
      <point x="383" y="58" type="qcurve"/>
      <point x="351" y="35"/>
      <point x="271" y="7"/>
      <point x="190" y="-4"/>
      <point x="115" y="5"/>
      <point x="56" y="30"/>
      <point x="23" y="73"/>
      <point x="26" y="101" type="qcurve"/>
      <point x="29" y="127"/>
      <point x="66" y="164"/>
      <point x="118" y="185"/>
      <point x="181" y="194"/>
      <point x="212" y="193" type="qcurve"/>
      <point x="246" y="193"/>
      <point x="306" y="177"/>
      <point x="354" y="158"/>
      <point x="385" y="139"/>
      <point x="389" y="137" type="qcurve"/>
      <point x="403" y="150"/>
      <point x="417" y="166" type="qcurve"/>
      <point x="428" y="179"/>
      <point x="452" y="217"/>
      <point x="458" y="239" type="qcurve"/>
      <point x="464" y="262"/>
      <point x="462" y="294"/>
      <point x="450" y="317"/>
      <point x="430" y="335"/>
      <point x="419" y="342" type="qcurve"/>
      <point x="408" y="347"/>
      <point x="381" y="353"/>
      <point x="354" y="351"/>
      <point x="333" y="342"/>
      <point x="327" y="333" type="qcurve"/>
      <point x="323" y="329"/>
      <point x="315" y="307"/>
      <point x="312" y="297" type="qcurve"/>
      <point x="308" y="285"/>
      <point x="304" y="269" type="qcurve"/>
      <point x="234" y="269" type="line"/>
      <point x="240" y="290"/>
      <point x="240" y="308" type="qcurve"/>
      <point x="240" y="325"/>
      <point x="233" y="355"/>
      <point x="222" y="364" type="qcurve"/>
      <point x="211" y="371"/>
      <point x="163" y="377"/>
      <point x="118" y="371"/>
      <point x="91" y="348"/>
      <point x="100" y="327" type="qcurve"/>
      <point x="109" y="311"/>
      <point x="126" y="292"/>
      <point x="134" y="287" type="qcurve"/>
      <point x="143" y="280"/>
      <point x="154" y="275" type="qcurve"/>
      <point x="84" y="220" type="line"/>
      <point x="54" y="247"/>
      <point x="34" y="272" type="qcurve"/>
      <point x="25" y="284"/>
      <point x="10" y="307"/>
      <point x="1" y="332"/>
      <point x="0" y="356"/>
      <point x="6" y="367" type="qcurve"/>
      <point x="13" y="379"/>
      <point x="51" y="408"/>
      <point x="100" y="433"/>
      <point x="155" y="455"/>
      <point x="202" y="467"/>
      <point x="237" y="468"/>
      <point x="242" y="461" type="qcurve"/>
      <point x="248" y="450"/>
      <point x="258" y="421"/>
      <point x="262" y="409" type="qcurve"/>
      <point x="266" y="393"/>
      <point x="271" y="379" type="qcurve"/>
      <point x="285" y="399"/>
      <point x="302" y="414" type="qcurve"/>
      <point x="316" y="426"/>
      <point x="355" y="443"/>
      <point x="379" y="437" type="qcurve"/>
      <point x="427" y="426"/>
      <point x="478" y="410"/>
      <point x="506" y="395"/>
      <point x="518" y="380"/>
      <point x="526" y="370" type="qcurve"/>
      <point x="540" y="350"/>
      <point x="551" y="305"/>
      <point x="549" y="261"/>
      <point x="540" y="221"/>
    </contour>
    <contour>
      <point x="130" y="113" type="qcurve"/>
      <point x="125" y="93"/>
      <point x="166" y="74"/>
      <point x="230" y="71"/>
      <point x="306" y="84"/>
      <point x="337" y="97" type="qcurve"/>
      <point x="326" y="110"/>
      <point x="263" y="133"/>
      <point x="194" y="142"/>
      <point x="136" y="133"/>
    </contour>
  </outline>
</glyph>
<glyph name="U0C08" format="1">
  <advance width="800"/>
  <unicode hex="0C08"/>
  <outline>
    <contour>
      <point x="99" y="430" type="line"/>
      <point x="354" y="586" type="line"/>
      <point x="389" y="502" type="line"/>
      <point x="126" y="388" type="line"/>
    </contour>
    <contour>
      <point x="476" y="315" type="qcurve"/>
      <point x="488" y="285"/>
      <point x="479" y="194"/>
      <point x="437" y="101"/>
      <point x="362" y="25"/>
      <point x="309" y="8" type="qcurve"/>
      <point x="255" y="-7"/>
      <point x="168" y="20"/>
      <point x="104" y="77"/>
      <point x="65" y="150"/>
      <point x="57" y="181" type="qcurve"/>
      <point x="51" y="214"/>
      <point x="84" y="300"/>
      <point x="138" y="378"/>
      <point x="204" y="433"/>
      <point x="230" y="436" type="qcurve"/>
      <point x="270" y="439"/>
      <point x="347" y="426"/>
      <point x="414" y="393"/>
      <point x="464" y="345"/>
    </contour>
    <contour>
      <point x="312" y="75" type="qcurve"/>
      <point x="332" y="74"/>
      <point x="372" y="121"/>
      <point x="397" y="186"/>
      <point x="402" y="257"/>
      <point x="388" y="282" type="qcurve"/>
      <point x="373" y="305"/>
      <point x="331" y="343"/>
      <point x="283" y="362"/>
      <point x="231" y="361"/>
      <point x="208" y="348" type="qcurve"/>
      <point x="195" y="340"/>
      <point x="163" y="296"/>
      <point x="142" y="239"/>
      <point x="140" y="176"/>
      <point x="172" y="121"/>
      <point x="246" y="80"/>
    </contour>
    <contour>
      <point x="601" y="269" type="qcurve"/>
      <point x="621" y="269"/>
      <point x="666" y="251"/>
      <point x="699" y="218"/>
      <point x="714" y="174"/>
      <point x="702" y="148" type="qcurve"/>
      <point x="692" y="122"/>
      <point x="649" y="72"/>
      <point x="598" y="48"/>
      <point x="545" y="68"/>
      <point x="525" y="112" type="qcurve"/>
      <point x="519" y="126"/>
      <point x="525" y="162"/>
      <point x="532" y="176" type="qcurve"/>
      <point x="540" y="194"/>
      <point x="552" y="210" type="qcurve"/>
      <point x="1" y="210" type="line"/>
      <point x="1" y="280" type="line"/>
      <point x="154" y="278"/>
      <point x="280" y="275" type="qcurve"/>
      <point x="333" y="274"/>
      <point x="439" y="272"/>
      <point x="527" y="271"/>
      <point x="590" y="269"/>
    </contour>
    <contour>
      <point x="664" y="132" type="qcurve"/>
      <point x="670" y="142"/>
      <point x="648" y="175"/>
      <point x="616" y="203"/>
      <point x="587" y="216"/>
      <point x="585" y="207" type="qcurve"/>
      <point x="578" y="176"/>
      <point x="596" y="137"/>
      <point x="626" y="119"/>
      <point x="657" y="121"/>
    </contour>
    <contour>
      <point x="610" y="247" type="qcurve"/>
      <point x="604" y="245"/>
      <point x="598" y="245" type="qcurve"/>
      <point x="592" y="245"/>
      <point x="577" y="251"/>
      <point x="568" y="259" type="qcurve" name="hr01"/>
      <point x="573" y="269"/>
      <point x="587" y="297"/>
      <point x="596" y="323"/>
      <point x="596" y="344"/>
      <point x="588" y="348" type="qcurve"/>
      <point x="580" y="351"/>
      <point x="564" y="342"/>
      <point x="558" y="335" type="qcurve"/>
      <point x="551" y="327"/>
      <point x="545" y="315" type="qcurve"/>
      <point x="536" y="315"/>
      <point x="525" y="318" type="qcurve"/>
      <point x="517" y="321"/>
      <point x="498" y="331"/>
      <point x="489" y="341" type="qcurve" name="hr02"/>
      <point x="495" y="354"/>
      <point x="527" y="379"/>
      <point x="568" y="394"/>
      <point x="610" y="397"/>
      <point x="624" y="390" type="qcurve"/>
      <point x="637" y="382"/>
      <point x="637" y="337"/>
      <point x="631" y="311" type="qcurve"/>
      <point x="624" y="282"/>
    </contour>
  </outline>
</glyph>
<glyph name="U0C09" format="1">
  <advance width="667"/>
  <unicode hex="0C09"/>
  <outline>
    <contour>
      <point x="322" y="456" type="line" name="hr00"/>
      <point x="301" y="555" type="line"/>
      <point x="375" y="557" type="line"/>
      <point x="353" y="457" type="line"/>
    </contour>
    <contour>
      <point x="529" y="319" type="line"/>
      <point x="528" y="262" type="line"/>
      <point x="0" y="256" type="line"/>
      <point x="0" y="317" type="line"/>
    </contour>
    <contour>
      <point x="551" y="174" type="qcurve"/>
      <point x="564" y="140"/>
      <point x="556" y="78"/>
      <point x="522" y="29"/>
      <point x="465" y="0"/>
      <point x="428" y="0" type="qcurve"/>
      <point x="392" y="0"/>
      <point x="339" y="30"/>
      <point x="299" y="62"/>
      <point x="271" y="86"/>
      <point x="261" y="79" type="qcurve"/>
      <point x="241" y="67"/>
      <point x="190" y="34"/>
      <point x="141" y="7"/>
      <point x="99" y="-4"/>
      <point x="89" y="4" type="qcurve"/>
      <point x="60" y="29"/>
      <point x="28" y="93"/>
      <point x="18" y="165"/>
      <point x="32" y="241"/>
      <point x="50" y="276" type="qcurve"/>
      <point x="71" y="315"/>
      <point x="136" y="382"/>
      <point x="179" y="404" type="qcurve"/>
      <point x="220" y="427"/>
      <point x="310" y="439"/>
      <point x="392" y="436"/>
      <point x="457" y="425"/>
      <point x="473" y="424" type="qcurve"/>
      <point x="467" y="411"/>
      <point x="456" y="385"/>
      <point x="452" y="375" type="qcurve"/>
      <point x="446" y="364"/>
      <point x="442" y="352" type="qcurve"/>
      <point x="430" y="354"/>
      <point x="379" y="364"/>
      <point x="315" y="367"/>
      <point x="247" y="357"/>
      <point x="216" y="342" type="qcurve"/>
      <point x="200" y="333"/>
      <point x="157" y="299"/>
      <point x="140" y="275" type="qcurve"/>
      <point x="124" y="252"/>
      <point x="103" y="198"/>
      <point x="99" y="147"/>
      <point x="117" y="106"/>
      <point x="138" y="96" type="qcurve"/>
      <point x="152" y="92"/>
      <point x="203" y="120"/>
      <point x="229" y="137" type="qcurve"/>
      <point x="260" y="158"/>
      <point x="294" y="185" type="qcurve"/>
      <point x="308" y="156"/>
      <point x="346" y="109"/>
      <point x="387" y="76"/>
      <point x="426" y="58"/>
      <point x="442" y="58" type="qcurve"/>
      <point x="459" y="58"/>
      <point x="477" y="63"/>
      <point x="482" y="67" type="qcurve"/>
      <point x="487" y="71"/>
      <point x="489" y="75" type="qcurve"/>
      <point x="477" y="70"/>
      <point x="445" y="71"/>
      <point x="412" y="81"/>
      <point x="381" y="99"/>
      <point x="372" y="113" type="qcurve"/>
      <point x="354" y="137"/>
      <point x="354" y="181"/>
      <point x="374" y="217"/>
      <point x="403" y="242"/>
      <point x="418" y="246" type="qcurve"/>
      <point x="425" y="247"/>
      <point x="458" y="252"/>
      <point x="497" y="243"/>
      <point x="537" y="210"/>
    </contour>
    <contour>
      <point x="495" y="113" type="qcurve"/>
      <point x="504" y="120"/>
      <point x="501" y="156"/>
      <point x="480" y="187"/>
      <point x="445" y="206"/>
      <point x="421" y="197" type="qcurve"/>
      <point x="409" y="184"/>
      <point x="423" y="151"/>
      <point x="453" y="122"/>
      <point x="486" y="106"/>
    </contour>
  </outline>
</glyph>
<glyph name="U0C0A" format="1">
  <advance width="846"/>
  <unicode hex="0C0A"/>
  <outline>
    <contour>
      <point x="641" y="317" type="qcurve"/>
      <point x="660" y="316"/>
      <point x="702" y="299"/>
      <point x="734" y="268"/>
      <point x="749" y="227"/>
      <point x="739" y="203" type="qcurve"/>
      <point x="730" y="179"/>
      <point x="689" y="133"/>
      <point x="641" y="112"/>
      <point x="593" y="129"/>
      <point x="575" y="170" type="qcurve"/>
      <point x="569" y="183"/>
      <point x="574" y="215"/>
      <point x="581" y="229" type="qcurve"/>
      <point x="588" y="246"/>
      <point x="599" y="262" type="qcurve"/>
      <point x="0" y="256" type="line"/>
      <point x="0" y="317" type="line"/>
      <point x="197" y="318"/>
      <point x="323" y="318" type="qcurve"/>
      <point x="376" y="318"/>
      <point x="482" y="318"/>
      <point x="570" y="318"/>
      <point x="632" y="317"/>
    </contour>
    <contour>
      <point x="700" y="189" type="qcurve"/>
      <point x="707" y="200"/>
      <point x="687" y="229"/>
      <point x="659" y="254"/>
      <point x="633" y="265"/>
      <point x="632" y="258" type="qcurve"/>
      <point x="623" y="228"/>
      <point x="638" y="191"/>
      <point x="666" y="175"/>
      <point x="695" y="178"/>
    </contour>
    <contour>
      <point x="654" y="295" type="qcurve"/>
      <point x="649" y="293"/>
      <point x="642" y="293" type="qcurve"/>
      <point x="636" y="293"/>
      <point x="620" y="299"/>
      <point x="611" y="307" type="qcurve"/>
      <point x="616" y="317"/>
      <point x="631" y="343"/>
      <point x="640" y="367"/>
      <point x="640" y="386"/>
      <point x="632" y="389" type="qcurve"/>
      <point x="624" y="393"/>
      <point x="609" y="384"/>
      <point x="604" y="377" type="qcurve"/>
      <point x="598" y="369"/>
      <point x="592" y="356" type="qcurve"/>
      <point x="583" y="357"/>
      <point x="573" y="361" type="qcurve"/>
      <point x="565" y="365"/>
      <point x="547" y="375"/>
      <point x="540" y="383" type="qcurve"/>
      <point x="545" y="395"/>
      <point x="575" y="418"/>
      <point x="614" y="433"/>
      <point x="652" y="436"/>
      <point x="665" y="429" type="qcurve"/>
      <point x="677" y="421"/>
      <point x="677" y="378"/>
      <point x="672" y="354" type="qcurve"/>
      <point x="666" y="328"/>
    </contour>
    <contour>
      <point x="250" y="450" type="line"/>
      <point x="229" y="549" type="line"/>
      <point x="303" y="551" type="line"/>
      <point x="282" y="451" type="line"/>
    </contour>
    <contour>
      <point x="358" y="456" type="line"/>
      <point x="338" y="551" type="line"/>
      <point x="412" y="553" type="line" name="hr01"/>
      <point x="390" y="457" type="line"/>
    </contour>
    <contour>
      <point x="551" y="174" type="qcurve"/>
      <point x="564" y="140"/>
      <point x="556" y="78"/>
      <point x="522" y="29"/>
      <point x="465" y="0"/>
      <point x="428" y="0" type="qcurve"/>
      <point x="392" y="0"/>
      <point x="339" y="30"/>
      <point x="299" y="62"/>
      <point x="271" y="86"/>
      <point x="261" y="79" type="qcurve"/>
      <point x="241" y="67"/>
      <point x="190" y="34"/>
      <point x="141" y="7"/>
      <point x="99" y="-4"/>
      <point x="89" y="4" type="qcurve"/>
      <point x="60" y="29"/>
      <point x="28" y="93"/>
      <point x="18" y="165"/>
      <point x="32" y="241"/>
      <point x="50" y="276" type="qcurve"/>
      <point x="71" y="315"/>
      <point x="136" y="382"/>
      <point x="179" y="404" type="qcurve"/>
      <point x="220" y="427"/>
      <point x="310" y="439"/>
      <point x="392" y="436"/>
      <point x="457" y="425"/>
      <point x="473" y="424" type="qcurve"/>
      <point x="467" y="411"/>
      <point x="456" y="385"/>
      <point x="452" y="375" type="qcurve"/>
      <point x="446" y="364"/>
      <point x="442" y="352" type="qcurve"/>
      <point x="430" y="354"/>
      <point x="379" y="364"/>
      <point x="315" y="367"/>
      <point x="247" y="357"/>
      <point x="216" y="342" type="qcurve"/>
      <point x="200" y="333"/>
      <point x="157" y="299"/>
      <point x="140" y="275" type="qcurve"/>
      <point x="124" y="252"/>
      <point x="103" y="198"/>
      <point x="99" y="147"/>
      <point x="117" y="106"/>
      <point x="138" y="96" type="qcurve"/>
      <point x="152" y="92"/>
      <point x="203" y="120"/>
      <point x="229" y="137" type="qcurve"/>
      <point x="260" y="158"/>
      <point x="294" y="185" type="qcurve"/>
      <point x="308" y="156"/>
      <point x="346" y="109"/>
      <point x="387" y="76"/>
      <point x="426" y="58"/>
      <point x="442" y="58" type="qcurve"/>
      <point x="459" y="58"/>
      <point x="477" y="63"/>
      <point x="482" y="67" type="qcurve"/>
      <point x="487" y="71"/>
      <point x="489" y="75" type="qcurve"/>
      <point x="477" y="70"/>
      <point x="445" y="71"/>
      <point x="412" y="81"/>
      <point x="381" y="99"/>
      <point x="372" y="113" type="qcurve"/>
      <point x="354" y="137"/>
      <point x="354" y="181"/>
      <point x="374" y="217"/>
      <point x="403" y="242"/>
      <point x="418" y="246" type="qcurve"/>
      <point x="425" y="247"/>
      <point x="458" y="252"/>
      <point x="497" y="243"/>
      <point x="537" y="210"/>
    </contour>
    <contour>
      <point x="495" y="113" type="qcurve"/>
      <point x="504" y="120"/>
      <point x="501" y="156"/>
      <point x="480" y="187"/>
      <point x="445" y="206"/>
      <point x="421" y="197" type="qcurve"/>
      <point x="409" y="184"/>
      <point x="423" y="151"/>
      <point x="453" y="122"/>
      <point x="486" y="106"/>
    </contour>
  </outline>
</glyph>
<glyph name="U0C0C" format="1">
  <advance width="768"/>
  <unicode hex="0C0C"/>
  <outline>
    <contour>
      <point x="586" y="272" type="qcurve"/>
      <point x="612" y="270"/>
      <point x="642" y="258"/>
      <point x="649" y="251" type="qcurve"/>
      <point x="657" y="243"/>
      <point x="658" y="232" type="qcurve"/>
      <point x="650" y="180"/>
      <point x="612" y="96"/>
      <point x="559" y="34"/>
      <point x="495" y="-8"/>
      <point x="462" y="-19" type="qcurve"/>
      <point x="459" y="-22"/>
      <point x="403" y="-32"/>
      <point x="349" y="-24" type="qcurve"/>
      <point x="334" y="-22"/>
      <point x="286" y="-3"/>
      <point x="232" y="27"/>
      <point x="185" y="65"/>
      <point x="160" y="108"/>
      <point x="164" y="153"/>
      <point x="189" y="174" type="qcurve"/>
      <point x="218" y="200"/>
      <point x="287" y="219"/>
      <point x="356" y="231"/>
      <point x="421" y="252"/>
      <point x="445" y="279" type="qcurve"/>
      <point x="454" y="290"/>
      <point x="453" y="319"/>
      <point x="441" y="349"/>
      <point x="422" y="376"/>
      <point x="413" y="383" type="qcurve"/>
      <point x="402" y="390"/>
      <point x="378" y="399"/>
      <point x="353" y="399"/>
      <point x="331" y="390"/>
      <point x="324" y="380" type="qcurve"/>
      <point x="319" y="374"/>
      <point x="313" y="350"/>
      <point x="310" y="339" type="qcurve"/>
      <point x="306" y="326"/>
      <point x="304" y="311" type="qcurve"/>
      <point x="236" y="311" type="line"/>
      <point x="240" y="334"/>
      <point x="240" y="352" type="qcurve"/>
      <point x="240" y="369"/>
      <point x="233" y="401"/>
      <point x="222" y="410" type="qcurve"/>
      <point x="211" y="418"/>
      <point x="163" y="425"/>
      <point x="119" y="419"/>
      <point x="91" y="395"/>
      <point x="101" y="374" type="qcurve"/>
      <point x="109" y="356"/>
      <point x="125" y="334"/>
      <point x="133" y="327" type="qcurve"/>
      <point x="142" y="318"/>
      <point x="151" y="314" type="qcurve"/>
      <point x="81" y="259" type="line"/>
      <point x="50" y="288"/>
      <point x="31" y="315" type="qcurve"/>
      <point x="13" y="339"/>
      <point x="-6" y="392"/>
      <point x="6" y="413" type="qcurve"/>
      <point x="13" y="427"/>
      <point x="51" y="458"/>
      <point x="100" y="485"/>
      <point x="155" y="508"/>
      <point x="201" y="520"/>
      <point x="234" y="521"/>
      <point x="239" y="514" type="qcurve"/>
      <point x="245" y="503"/>
      <point x="255" y="473"/>
      <point x="259" y="459" type="qcurve"/>
      <point x="263" y="442"/>
      <point x="268" y="426" type="qcurve"/>
      <point x="283" y="447"/>
      <point x="301" y="463" type="qcurve"/>
      <point x="316" y="476"/>
      <point x="356" y="495"/>
      <point x="380" y="488" type="qcurve"/>
      <point x="431" y="475"/>
      <point x="497" y="442"/>
      <point x="534" y="401"/>
      <point x="547" y="349"/>
      <point x="547" y="317" type="qcurve"/>
      <point x="547" y="284"/>
      <point x="507" y="226"/>
      <point x="440" y="183"/>
      <point x="357" y="156"/>
      <point x="314" y="151" type="qcurve"/>
      <point x="291" y="142"/>
      <point x="273" y="127"/>
      <point x="275" y="111"/>
      <point x="291" y="91"/>
      <point x="301" y="79" type="qcurve"/>
      <point x="315" y="62"/>
      <point x="364" y="50"/>
      <point x="415" y="53"/>
      <point x="463" y="70"/>
      <point x="478" y="82" type="qcurve"/>
      <point x="515" y="114"/>
      <point x="557" y="181"/>
      <point x="568" y="209" type="qcurve"/>
      <point x="581" y="242"/>
    </contour>
  </outline>
</glyph>
<glyph name="U0C0E" format="1">
  <advance width="566"/>
  <unicode hex="0C0E"/>
  <outline>
    <contour>
      <point x="344" y="439" type="line" name="hr00"/>
      <point x="379" y="407"/>
      <point x="407" y="374" type="qcurve"/>
      <point x="430" y="346"/>
      <point x="469" y="281"/>
      <point x="469" y="253" type="qcurve"/>
      <point x="469" y="225"/>
      <point x="437" y="140"/>
      <point x="418" y="99" type="qcurve"/>
      <point x="395" y="51"/>
      <point x="368" y="0" type="qcurve"/>
      <point x="348" y="9"/>
      <point x="329" y="16" type="qcurve"/>
      <point x="311" y="23"/>
      <point x="269" y="31"/>
      <point x="250" y="30" type="qcurve"/>
      <point x="236" y="30"/>
      <point x="203" y="20"/>
      <point x="171" y="9"/>
      <point x="143" y="0"/>
      <point x="135" y="0" type="qcurve"/>
      <point x="128" y="0"/>
      <point x="95" y="7"/>
      <point x="58" y="22"/>
      <point x="23" y="46"/>
      <point x="1" y="79"/>
      <point x="0" y="123"/>
      <point x="16" y="151" type="qcurve"/>
      <point x="42" y="194"/>
      <point x="114" y="230"/>
      <point x="181" y="234"/>
      <point x="233" y="216"/>
      <point x="240" y="204" type="qcurve"/>
      <point x="246" y="191"/>
      <point x="255" y="162"/>
      <point x="259" y="148" type="qcurve"/>
      <point x="263" y="133"/>
      <point x="266" y="118" type="qcurve"/>
      <point x="272" y="103"/>
      <point x="282" y="94" type="qcurve"/>
      <point x="290" y="86"/>
      <point x="311" y="77"/>
      <point x="328" y="85" type="qcurve"/>
      <point x="340" y="91"/>
      <point x="358" y="147"/>
      <point x="362" y="221"/>
      <point x="350" y="298"/>
      <point x="332" y="325" type="qcurve"/>
      <point x="313" y="348"/>
      <point x="265" y="388"/>
      <point x="244" y="402" type="qcurve"/>
      <point x="218" y="420"/>
      <point x="194" y="433" type="qcurve"/>
    </contour>
    <contour>
      <point x="164" y="62" type="qcurve"/>
      <point x="173" y="73"/>
      <point x="182" y="111"/>
      <point x="174" y="150"/>
      <point x="143" y="182"/>
      <point x="112" y="187" type="qcurve"/>
      <point x="102" y="188"/>
      <point x="89" y="155"/>
      <point x="96" y="110"/>
      <point x="128" y="69"/>
    </contour>
  </outline>
</glyph>
<glyph name="U0C0F" format="1">
  <advance width="625"/>
  <unicode hex="0C0F"/>
  <outline>
    <contour>
      <point x="406" y="433" type="line" name="hr00"/>
      <point x="423" y="402"/>
      <point x="436" y="371" type="qcurve"/>
      <point x="447" y="344"/>
      <point x="467" y="281"/>
      <point x="467" y="253" type="qcurve"/>
      <point x="467" y="225"/>
      <point x="435" y="140"/>
      <point x="416" y="99" type="qcurve"/>
      <point x="393" y="51"/>
      <point x="366" y="0" type="qcurve"/>
      <point x="346" y="9"/>
      <point x="327" y="16" type="qcurve"/>
      <point x="309" y="23"/>
      <point x="267" y="31"/>
      <point x="248" y="30" type="qcurve"/>
      <point x="234" y="30"/>
      <point x="202" y="20"/>
      <point x="170" y="9"/>
      <point x="143" y="0"/>
      <point x="136" y="0" type="qcurve"/>
      <point x="128" y="0"/>
      <point x="94" y="7"/>
      <point x="57" y="22"/>
      <point x="20" y="46"/>
      <point x="0" y="79"/>
      <point x="-1" y="123"/>
      <point x="15" y="151" type="qcurve"/>
      <point x="41" y="194"/>
      <point x="113" y="230"/>
      <point x="180" y="234"/>
      <point x="231" y="216"/>
      <point x="238" y="204" type="qcurve"/>
      <point x="244" y="191"/>
      <point x="253" y="162"/>
      <point x="257" y="148" type="qcurve"/>
      <point x="261" y="133"/>
      <point x="264" y="118" type="qcurve"/>
      <point x="271" y="103"/>
      <point x="281" y="94" type="qcurve"/>
      <point x="289" y="86"/>
      <point x="311" y="77"/>
      <point x="327" y="85" type="qcurve"/>
      <point x="339" y="91"/>
      <point x="364" y="151"/>
      <point x="376" y="226"/>
      <point x="369" y="305"/>
      <point x="349" y="331" type="qcurve"/>
      <point x="332" y="355"/>
      <point x="299" y="391"/>
      <point x="285" y="402" type="qcurve"/>
      <point x="268" y="416"/>
      <point x="254" y="426" type="qcurve"/>
    </contour>
    <contour>
      <point x="163" y="62" type="qcurve"/>
      <point x="171" y="73"/>
      <point x="181" y="111"/>
      <point x="174" y="150"/>
      <point x="144" y="182"/>
      <point x="114" y="187" type="qcurve"/>
      <point x="102" y="188"/>
      <point x="88" y="155"/>
      <point x="94" y="110"/>
      <point x="127" y="69"/>
    </contour>
    <contour>
      <point x="61" y="338" type="line"/>
      <point x="59" y="352"/>
      <point x="61" y="388"/>
      <point x="76" y="427"/>
      <point x="104" y="470"/>
      <point x="130" y="492" type="qcurve"/>
      <point x="142" y="502"/>
      <point x="177" y="516"/>
      <point x="216" y="525"/>
      <point x="258" y="529"/>
      <point x="278" y="530" type="qcurve"/>
      <point x="324" y="532"/>
      <point x="373" y="527" type="qcurve"/>
      <point x="373" y="482" type="line"/>
      <point x="338" y="484"/>
      <point x="306" y="484" type="qcurve"/>
      <point x="280" y="484"/>
      <point x="222" y="479"/>
      <point x="205" y="472" type="qcurve"/>
      <point x="182" y="464"/>
      <point x="168" y="425"/>
      <point x="167" y="404" type="qcurve"/>
      <point x="166" y="381"/>
      <point x="172" y="354" type="qcurve"/>
    </contour>
  </outline>
</glyph>
<glyph name="U0C10" format="1">
  <advance width="671"/>
  <unicode hex="0C10"/>
  <outline>
    <contour>
      <point x="377" y="501" type="qcurve"/>
      <point x="432" y="497"/>
      <point x="504" y="463"/>
      <point x="548" y="413"/>
      <point x="566" y="350"/>
      <point x="568" y="318" type="qcurve"/>
      <point x="572" y="244"/>
      <point x="539" y="152" type="qcurve"/>
      <point x="527" y="124"/>
      <point x="493" y="67"/>
      <point x="458" y="20"/>
      <point x="425" y="-4"/>
      <point x="416" y="2" type="qcurve"/>
      <point x="384" y="20"/>
      <point x="330" y="28"/>
      <point x="279" y="19"/>
      <point x="226" y="4"/>
      <point x="197" y="1" type="qcurve"/>
      <point x="139" y="-9"/>
      <point x="71" y="13"/>
      <point x="36" y="61"/>
      <point x="31" y="124"/>
      <point x="43" y="182"/>
      <point x="68" y="228"/>
      <point x="81" y="234" type="qcurve"/>
      <point x="126" y="256"/>
      <point x="182" y="264"/>
      <point x="218" y="249"/>
      <point x="240" y="216"/>
      <point x="259" y="178"/>
      <point x="284" y="139"/>
      <point x="305" y="126" type="qcurve"/>
      <point x="338" y="104"/>
      <point x="387" y="97"/>
      <point x="424" y="114"/>
      <point x="449" y="147"/>
      <point x="457" y="169" type="qcurve"/>
      <point x="475" y="218"/>
      <point x="477" y="296" type="qcurve"/>
      <point x="477" y="360"/>
      <point x="426" y="415"/>
      <point x="387" y="413" type="qcurve"/>
      <point x="359" y="411"/>
      <point x="332" y="384"/>
      <point x="326" y="368" type="qcurve"/>
      <point x="318" y="349"/>
      <point x="318" y="325" type="qcurve"/>
      <point x="232" y="325" type="line"/>
      <point x="231" y="331"/>
      <point x="231" y="336" type="qcurve"/>
      <point x="230" y="341"/>
      <point x="230" y="350"/>
      <point x="229" y="354" type="qcurve"/>
      <point x="226" y="370"/>
      <point x="206" y="403"/>
      <point x="175" y="428"/>
      <point x="138" y="438"/>
      <point x="120" y="430" type="qcurve"/>
      <point x="98" y="420"/>
      <point x="90" y="377"/>
      <point x="93" y="354" type="qcurve"/>
      <point x="97" y="328"/>
      <point x="110" y="298" type="qcurve" name="hr01"/>
      <point x="13" y="298" type="line"/>
      <point x="-5" y="331"/>
      <point x="9" y="402"/>
      <point x="51" y="461"/>
      <point x="111" y="500"/>
      <point x="138" y="501" type="qcurve"/>
      <point x="171" y="502"/>
      <point x="221" y="480"/>
      <point x="239" y="466" type="qcurve"/>
      <point x="258" y="450"/>
      <point x="272" y="429" type="qcurve"/>
      <point x="275" y="437"/>
      <point x="296" y="462"/>
      <point x="326" y="484"/>
      <point x="359" y="501"/>
    </contour>
    <contour>
      <point x="206" y="68" type="qcurve"/>
      <point x="212" y="95"/>
      <point x="212" y="136"/>
      <point x="201" y="166"/>
      <point x="182" y="184"/>
      <point x="172" y="189" type="qcurve"/>
      <point x="146" y="202"/>
      <point x="111" y="199" type="qcurve"/>
      <point x="93" y="168"/>
      <point x="110" y="110"/>
      <point x="147" y="69"/>
      <point x="194" y="54"/>
    </contour>
  </outline>
</glyph>
<glyph name="U0C12" format="1">
  <advance width="652"/>
  <unicode hex="0C12"/>
  <outline>
    <contour>
      <point x="549" y="255" type="line"/>
      <point x="553" y="204"/>
      <point x="547" y="161" type="qcurve"/>
      <point x="542" y="123"/>
      <point x="509" y="51"/>
      <point x="473" y="35" type="qcurve"/>
      <point x="441" y="22"/>
      <point x="373" y="0"/>
      <point x="299" y="1"/>
      <point x="222" y="32"/>
      <point x="181" y="72" type="qcurve"/>
      <point x="166" y="72"/>
      <point x="115" y="48"/>
      <point x="63" y="19"/>
      <point x="25" y="-4"/>
      <point x="20" y="-4" type="qcurve"/>
      <point x="17" y="-5"/>
      <point x="6" y="32"/>
      <point x="0" y="86"/>
      <point x="3" y="148"/>
      <point x="14" y="173" type="qcurve"/>
      <point x="26" y="200"/>
      <point x="75" y="237"/>
      <point x="99" y="248" type="qcurve"/>
      <point x="128" y="260"/>
      <point x="162" y="268" type="qcurve"/>
      <point x="113" y="268"/>
      <point x="77" y="280" type="qcurve"/>
      <point x="61" y="285"/>
      <point x="32" y="300"/>
      <point x="11" y="324"/>
      <point x="1" y="356"/>
      <point x="4" y="379" type="qcurve"/>
      <point x="8" y="410"/>
      <point x="46" y="454"/>
      <point x="98" y="480"/>
      <point x="159" y="495"/>
      <point x="213" y="499"/>
      <point x="254" y="495"/>
      <point x="260" y="490" type="qcurve"/>
      <point x="283" y="476"/>
      <point x="295" y="428"/>
      <point x="290" y="379" type="qcurve"/>
      <point x="287" y="330"/>
      <point x="243" y="272"/>
      <point x="186" y="237"/>
      <point x="129" y="212"/>
      <point x="113" y="196" type="qcurve"/>
      <point x="101" y="186"/>
      <point x="92" y="161"/>
      <point x="93" y="139"/>
      <point x="102" y="124"/>
      <point x="110" y="124" type="qcurve"/>
      <point x="117" y="124"/>
      <point x="152" y="143"/>
      <point x="190" y="168"/>
      <point x="224" y="188"/>
      <point x="230" y="189" type="qcurve"/>
      <point x="236" y="191"/>
      <point x="252" y="179"/>
      <point x="271" y="158"/>
      <point x="293" y="131"/>
      <point x="303" y="121" type="qcurve"/>
      <point x="312" y="110"/>
      <point x="341" y="82"/>
      <point x="376" y="63"/>
      <point x="416" y="59"/>
      <point x="437" y="72" type="qcurve"/>
      <point x="449" y="79"/>
      <point x="461" y="128"/>
      <point x="456" y="186"/>
      <point x="429" y="242"/>
      <point x="401" y="255" type="qcurve"/>
    </contour>
    <contour>
      <point x="102" y="350" type="qcurve"/>
      <point x="106" y="335"/>
      <point x="136" y="318"/>
      <point x="154" y="313" type="qcurve"/>
      <point x="173" y="308"/>
      <point x="198" y="307" type="qcurve"/>
      <point x="202" y="318"/>
      <point x="204" y="331" type="qcurve"/>
      <point x="206" y="342"/>
      <point x="206" y="372"/>
      <point x="201" y="389" type="qcurve"/>
      <point x="196" y="408"/>
      <point x="168" y="423"/>
      <point x="154" y="425" type="qcurve"/>
      <point x="136" y="428"/>
      <point x="116" y="425" type="qcurve"/>
      <point x="106" y="421"/>
      <point x="102" y="411" type="qcurve"/>
      <point x="98" y="402"/>
      <point x="96" y="374"/>
    </contour>
  </outline>
</glyph>
<glyph name="U0C13" format="1">
  <advance width="652"/>
  <unicode hex="0C13"/>
  <outline>
    <contour>
      <point x="549" y="256" type="line" name="hr00"/>
      <point x="553" y="205"/>
      <point x="547" y="162" type="qcurve"/>
      <point x="542" y="124"/>
      <point x="509" y="52"/>
      <point x="473" y="36" type="qcurve"/>
      <point x="441" y="23"/>
      <point x="373" y="1"/>
      <point x="299" y="1"/>
      <point x="220" y="33"/>
      <point x="178" y="72" type="qcurve"/>
      <point x="164" y="72"/>
      <point x="114" y="48"/>
      <point x="63" y="20"/>
      <point x="25" y="-3"/>
      <point x="22" y="-3" type="qcurve"/>
      <point x="17" y="-4"/>
      <point x="6" y="33"/>
      <point x="-1" y="87"/>
      <point x="1" y="150"/>
      <point x="11" y="174" type="qcurve"/>
      <point x="24" y="201"/>
      <point x="73" y="237"/>
      <point x="98" y="248" type="qcurve"/>
      <point x="128" y="260"/>
      <point x="162" y="268" type="qcurve"/>
      <point x="113" y="268"/>
      <point x="77" y="280" type="qcurve"/>
      <point x="61" y="285"/>
      <point x="33" y="300"/>
      <point x="12" y="325"/>
      <point x="2" y="357"/>
      <point x="5" y="380" type="qcurve"/>
      <point x="9" y="411"/>
      <point x="46" y="455"/>
      <point x="97" y="481"/>
      <point x="158" y="496"/>
      <point x="211" y="500"/>
      <point x="253" y="496"/>
      <point x="260" y="492" type="qcurve"/>
      <point x="283" y="477"/>
      <point x="292" y="429"/>
      <point x="290" y="380" type="qcurve"/>
      <point x="286" y="331"/>
      <point x="242" y="273"/>
      <point x="185" y="238"/>
      <point x="129" y="213"/>
      <point x="113" y="197" type="qcurve"/>
      <point x="101" y="186"/>
      <point x="92" y="162"/>
      <point x="93" y="140"/>
      <point x="102" y="125"/>
      <point x="110" y="125" type="qcurve"/>
      <point x="117" y="125"/>
      <point x="152" y="144"/>
      <point x="190" y="168"/>
      <point x="224" y="188"/>
      <point x="230" y="190" type="qcurve"/>
      <point x="236" y="193"/>
      <point x="252" y="180"/>
      <point x="271" y="159"/>
      <point x="293" y="132"/>
      <point x="303" y="121" type="qcurve"/>
      <point x="311" y="110"/>
      <point x="339" y="83"/>
      <point x="374" y="63"/>
      <point x="415" y="59"/>
      <point x="437" y="72" type="qcurve"/>
      <point x="449" y="79"/>
      <point x="460" y="128"/>
      <point x="455" y="186"/>
      <point x="428" y="242"/>
      <point x="401" y="256" type="qcurve"/>
    </contour>
    <contour>
      <point x="103" y="350" type="qcurve"/>
      <point x="106" y="336"/>
      <point x="136" y="318"/>
      <point x="154" y="314" type="qcurve"/>
      <point x="173" y="309"/>
      <point x="198" y="308" type="qcurve"/>
      <point x="201" y="319"/>
      <point x="204" y="332" type="qcurve"/>
      <point x="206" y="343"/>
      <point x="207" y="373"/>
      <point x="202" y="390" type="qcurve"/>
      <point x="197" y="409"/>
      <point x="168" y="424"/>
      <point x="154" y="426" type="qcurve"/>
      <point x="136" y="429"/>
      <point x="116" y="426" type="qcurve"/>
      <point x="108" y="422"/>
      <point x="103" y="412" type="qcurve"/>
      <point x="99" y="403"/>
      <point x="97" y="374"/>
    </contour>
    <contour>
      <point x="309" y="495" type="line"/>
      <point x="314" y="507"/>
      <point x="311" y="549"/>
      <point x="296" y="588"/>
      <point x="266" y="615"/>
      <point x="244" y="612" type="qcurve"/>
      <point x="209" y="606"/>
      <point x="197" y="565"/>
      <point x="203" y="544" type="qcurve"/>
      <point x="210" y="518"/>
      <point x="230" y="488" type="qcurve"/>
      <point x="218" y="487"/>
      <point x="205" y="486" type="qcurve"/>
      <point x="193" y="485"/>
      <point x="161" y="485"/>
      <point x="142" y="485" type="qcurve"/>
      <point x="135" y="492"/>
      <point x="125" y="520"/>
      <point x="122" y="555"/>
      <point x="132" y="593"/>
      <point x="160" y="626"/>
      <point x="208" y="647"/>
      <point x="247" y="649" type="qcurve"/>
      <point x="275" y="650"/>
      <point x="318" y="639"/>
      <point x="348" y="618"/>
      <point x="368" y="591"/>
      <point x="374" y="577" type="qcurve"/>
      <point x="387" y="543"/>
      <point x="385" y="498" type="qcurve"/>
    </contour>
  </outline>
</glyph>
<glyph name="U0C14" format="1">
  <advance width="730"/>
  <unicode hex="0C14"/>
  <outline>
    <contour>
      <point x="552" y="255" type="line"/>
      <point x="555" y="204"/>
      <point x="548" y="161" type="qcurve"/>
      <point x="542" y="123"/>
      <point x="509" y="51"/>
      <point x="473" y="35" type="qcurve"/>
      <point x="442" y="22"/>
      <point x="374" y="0"/>
      <point x="300" y="0"/>
      <point x="222" y="32"/>
      <point x="181" y="71" type="qcurve"/>
      <point x="165" y="71"/>
      <point x="114" y="48"/>
      <point x="63" y="20"/>
      <point x="25" y="-3"/>
      <point x="20" y="-4" type="qcurve"/>
      <point x="17" y="-5"/>
      <point x="6" y="32"/>
      <point x="0" y="86"/>
      <point x="3" y="148"/>
      <point x="14" y="173" type="qcurve"/>
      <point x="27" y="200"/>
      <point x="76" y="236"/>
      <point x="100" y="247" type="qcurve"/>
      <point x="129" y="259"/>
      <point x="162" y="267" type="qcurve"/>
      <point x="113" y="267"/>
      <point x="77" y="279" type="qcurve"/>
      <point x="61" y="284"/>
      <point x="32" y="299"/>
      <point x="11" y="324"/>
      <point x="1" y="356"/>
      <point x="4" y="379" type="qcurve"/>
      <point x="8" y="410"/>
      <point x="46" y="454"/>
      <point x="98" y="480"/>
      <point x="159" y="495"/>
      <point x="213" y="499"/>
      <point x="254" y="495"/>
      <point x="260" y="490" type="qcurve"/>
      <point x="283" y="476"/>
      <point x="295" y="428"/>
      <point x="290" y="379" type="qcurve"/>
      <point x="288" y="346"/>
      <point x="266" y="299"/>
      <point x="233" y="266"/>
      <point x="195" y="243"/>
      <point x="157" y="223"/>
      <point x="123" y="206"/>
      <point x="113" y="196" type="qcurve"/>
      <point x="102" y="185"/>
      <point x="93" y="161"/>
      <point x="93" y="139"/>
      <point x="101" y="124"/>
      <point x="110" y="124" type="qcurve"/>
      <point x="118" y="124"/>
      <point x="154" y="143"/>
      <point x="191" y="167"/>
      <point x="224" y="187"/>
      <point x="230" y="189" type="qcurve"/>
      <point x="237" y="191"/>
      <point x="254" y="179"/>
      <point x="273" y="158"/>
      <point x="294" y="131"/>
      <point x="302" y="120" type="qcurve"/>
      <point x="312" y="109"/>
      <point x="341" y="82"/>
      <point x="376" y="62"/>
      <point x="416" y="58"/>
      <point x="437" y="71" type="qcurve"/>
      <point x="450" y="78"/>
      <point x="463" y="127"/>
      <point x="458" y="185"/>
      <point x="431" y="241"/>
      <point x="404" y="255" type="qcurve"/>
    </contour>
    <contour>
      <point x="102" y="349" type="qcurve"/>
      <point x="106" y="335"/>
      <point x="136" y="317"/>
      <point x="154" y="313" type="qcurve"/>
      <point x="173" y="308"/>
      <point x="198" y="307" type="qcurve"/>
      <point x="203" y="318"/>
      <point x="206" y="331" type="qcurve"/>
      <point x="208" y="342"/>
      <point x="209" y="372"/>
      <point x="204" y="389" type="qcurve"/>
      <point x="198" y="408"/>
      <point x="169" y="423"/>
      <point x="155" y="425" type="qcurve"/>
      <point x="137" y="428"/>
      <point x="119" y="425" type="qcurve"/>
      <point x="110" y="421"/>
      <point x="104" y="411" type="qcurve"/>
      <point x="99" y="402"/>
      <point x="96" y="373"/>
    </contour>
    <contour>
      <point x="224" y="468" type="line"/>
      <point x="217" y="468" type="line"/>
    </contour>
    <contour>
      <point x="515" y="657" type="qcurve"/>
      <point x="544" y="649"/>
      <point x="581" y="617"/>
      <point x="603" y="581"/>
      <point x="614" y="541"/>
      <point x="617" y="523" type="qcurve"/>
      <point x="620" y="497"/>
      <point x="603" y="449"/>
      <point x="572" y="415"/>
      <point x="531" y="398"/>
      <point x="509" y="402" type="qcurve"/>
      <point x="489" y="406"/>
      <point x="453" y="423"/>
      <point x="422" y="447"/>
      <point x="401" y="476"/>
      <point x="397" y="490" type="qcurve"/>
      <point x="387" y="529"/>
      <point x="395" y="581"/>
      <point x="408" y="595" type="qcurve"/>
      <point x="362" y="603"/>
      <point x="271" y="610"/>
      <point x="237" y="615" type="qcurve"/>
      <point x="249" y="613"/>
      <point x="270" y="596"/>
      <point x="287" y="569"/>
      <point x="296" y="540"/>
      <point x="296" y="526" type="qcurve"/>
      <point x="296" y="517"/>
      <point x="271" y="497"/>
      <point x="242" y="480"/>
      <point x="217" y="469"/>
      <point x="217" y="468" type="qcurve"/>
      <point x="203" y="465"/>
      <point x="154" y="465"/>
      <point x="97" y="467"/>
      <point x="42" y="472"/>
      <point x="20" y="474" type="qcurve"/>
      <point x="67" y="523" type="line"/>
      <point x="85" y="522"/>
      <point x="109" y="520"/>
      <point x="127" y="519"/>
      <point x="143" y="519"/>
      <point x="155" y="520" type="qcurve"/>
      <point x="159" y="520"/>
      <point x="171" y="521"/>
      <point x="183" y="525"/>
      <point x="191" y="531"/>
      <point x="191" y="537" type="qcurve"/>
      <point x="194" y="566"/>
      <point x="158" y="598"/>
      <point x="101" y="610"/>
      <point x="33" y="609"/>
      <point x="2" y="605" type="qcurve"/>
      <point x="0" y="626"/>
      <point x="-18" y="669"/>
      <point x="-31" y="693" type="qcurve"/>
      <point x="-8" y="694"/>
      <point x="79" y="693"/>
      <point x="185" y="689"/>
      <point x="302" y="682"/>
      <point x="408" y="674"/>
      <point x="494" y="664"/>
    </contour>
    <contour>
      <point x="479" y="494" type="qcurve"/>
      <point x="493" y="480"/>
      <point x="521" y="476"/>
      <point x="542" y="490"/>
      <point x="551" y="518"/>
      <point x="545" y="537" type="qcurve"/>
      <point x="540" y="551"/>
      <point x="505" y="582"/>
      <point x="482" y="579" type="qcurve"/>
      <point x="475" y="578"/>
      <point x="461" y="562"/>
      <point x="455" y="538"/>
      <point x="464" y="509"/>
    </contour>
  </outline>
</glyph>
<glyph name="U0C15" format="1">
  <advance width="463"/>
  <unicode hex="0C15"/>
  <outline>
    <contour>
      <point x="-3" y="367" type="line" name="hr00"/>
      <point x="-19" y="431" type="line"/>
      <point x="334" y="604" type="line"/>
      <point x="366" y="495" type="line"/>
    </contour>
    <contour>
      <point x="372" y="455" type="line"/>
      <point x="367" y="362" type="line"/>
      <point x="305" y="349"/>
      <point x="254" y="336" type="qcurve"/>
      <point x="232" y="330"/>
      <point x="188" y="317"/>
      <point x="152" y="304"/>
      <point x="125" y="292"/>
      <point x="120" y="286" type="qcurve"/>
      <point x="163" y="280"/>
      <point x="257" y="255"/>
      <point x="335" y="222"/>
      <point x="384" y="185"/>
      <point x="382" y="167" type="qcurve"/>
      <point x="379" y="147"/>
      <point x="368" y="90"/>
      <point x="337" y="38"/>
      <point x="278" y="0"/>
      <point x="227" y="0" type="qcurve"/>
      <point x="1" y="0" type="line"/>
      <point x="0" y="133" type="line"/>
      <point x="52" y="110"/>
      <point x="100" y="94" type="qcurve"/>
      <point x="121" y="88"/>
      <point x="164" y="77"/>
      <point x="204" y="71"/>
      <point x="240" y="73"/>
      <point x="253" y="79" type="qcurve"/>
      <point x="288" y="94"/>
      <point x="296" y="139"/>
      <point x="259" y="184"/>
      <point x="185" y="222"/>
      <point x="139" y="229" type="qcurve"/>
      <point x="123" y="232"/>
      <point x="80" y="239"/>
      <point x="60" y="241" type="qcurve"/>
      <point x="38" y="244"/>
      <point x="14" y="246" type="qcurve"/>
      <point x="-2" y="322" type="line"/>
      <point x="75" y="353"/>
      <point x="143" y="380" type="qcurve"/>
      <point x="172" y="391"/>
      <point x="233" y="415"/>
      <point x="290" y="434"/>
      <point x="338" y="449"/>
      <point x="355" y="452" type="qcurve"/>
    </contour>
    <contour>
      <point x="264" y="-14" type="move" name="mark0"/>
    </contour>
  </outline>
</glyph>
<glyph name="U0C16" format="1">
  <advance width="609"/>
  <unicode hex="0C16"/>
  <outline>
    <contour>
      <point x="223" y="30" type="line" name="hr00"/>
      <point x="273" y="31" type="line"/>
      <point x="255" y="-76" type="line"/>
      <point x="178" y="-79" type="line"/>
    </contour>
    <contour>
      <point x="464" y="438" type="line"/>
      <point x="477" y="422"/>
      <point x="505" y="366"/>
      <point x="524" y="295"/>
      <point x="528" y="212"/>
      <point x="507" y="126"/>
      <point x="453" y="39"/>
      <point x="403" y="0" type="qcurve"/>
      <point x="387" y="6"/>
      <point x="349" y="33"/>
      <point x="307" y="54"/>
      <point x="263" y="61"/>
      <point x="242" y="48" type="qcurve"/>
      <point x="211" y="31"/>
      <point x="181" y="19" type="qcurve"/>
      <point x="156" y="9"/>
      <point x="98" y="-3"/>
      <point x="76" y="4" type="qcurve"/>
      <point x="53" y="10"/>
      <point x="23" y="33"/>
      <point x="5" y="63"/>
      <point x="-1" y="99"/>
      <point x="0" y="117" type="qcurve"/>
      <point x="1" y="134"/>
      <point x="44" y="167"/>
      <point x="111" y="185"/>
      <point x="194" y="182"/>
      <point x="236" y="164" type="qcurve"/>
      <point x="241" y="176"/>
      <point x="242" y="207"/>
      <point x="236" y="240"/>
      <point x="223" y="268"/>
      <point x="215" y="278" type="qcurve"/>
      <point x="189" y="256"/>
      <point x="165" y="241" type="qcurve"/>
      <point x="144" y="227"/>
      <point x="101" y="212"/>
      <point x="87" y="221" type="qcurve"/>
      <point x="72" y="231"/>
      <point x="32" y="267"/>
      <point x="3" y="310"/>
      <point x="-2" y="356"/>
      <point x="18" y="376" type="qcurve"/>
      <point x="37" y="396"/>
      <point x="89" y="426"/>
      <point x="141" y="439"/>
      <point x="189" y="434"/>
      <point x="205" y="419" type="qcurve"/>
      <point x="222" y="407"/>
      <point x="258" y="369"/>
      <point x="287" y="321"/>
      <point x="304" y="262"/>
      <point x="303" y="230" type="qcurve"/>
      <point x="303" y="211"/>
      <point x="303" y="186"/>
      <point x="301" y="166"/>
      <point x="298" y="148"/>
      <point x="295" y="137" type="qcurve"/>
      <point x="312" y="131"/>
      <point x="361" y="101"/>
      <point x="387" y="80" type="qcurve"/>
      <point x="424" y="120"/>
      <point x="442" y="212"/>
      <point x="421" y="307"/>
      <point x="369" y="399"/>
      <point x="334" y="438" type="qcurve"/>
    </contour>
    <contour>
      <point x="167" y="303" type="qcurve"/>
      <point x="179" y="312"/>
      <point x="169" y="341"/>
      <point x="139" y="366"/>
      <point x="97" y="379"/>
      <point x="76" y="373" type="qcurve"/>
      <point x="67" y="371"/>
      <point x="67" y="352"/>
      <point x="78" y="329"/>
      <point x="99" y="306"/>
      <point x="125" y="292"/>
      <point x="154" y="292"/>
    </contour>
    <contour>
      <point x="88" y="102" type="qcurve"/>
      <point x="86" y="85"/>
      <point x="103" y="70"/>
      <point x="133" y="67"/>
      <point x="169" y="75"/>
      <point x="200" y="87"/>
      <point x="220" y="101"/>
      <point x="219" y="108" type="qcurve"/>
      <point x="211" y="117"/>
      <point x="169" y="126"/>
      <point x="124" y="126"/>
      <point x="89" y="115"/>
    </contour>
    <contour>
      <point x="335" y="-137" type="move" name="mark0"/>
    </contour>
  </outline>
</glyph>
<glyph name="U0C17" format="1">
  <advance width="559"/>
  <unicode hex="0C17"/>
  <outline>
    <contour>
      <point x="49" y="429" type="line" name="hr00"/>
      <point x="438" y="549" type="line"/>
      <point x="455" y="437" type="line"/>
      <point x="54" y="369" type="line"/>
    </contour>
    <contour>
      <point x="44" y="0" type="line"/>
      <point x="23" y="30"/>
      <point x="1" y="96"/>
      <point x="1" y="142" type="qcurve"/>
      <point x="1" y="188"/>
      <point x="32" y="281"/>
      <point x="87" y="357"/>
      <point x="166" y="409"/>
      <point x="214" y="414" type="qcurve"/>
      <point x="258" y="418"/>
      <point x="345" y="393"/>
      <point x="414" y="337"/>
      <point x="456" y="251"/>
      <point x="455" y="195" type="qcurve"/>
      <point x="454" y="158"/>
      <point x="440" y="98"/>
      <point x="422" y="51"/>
      <point x="402" y="14"/>
      <point x="395" y="1" type="qcurve"/>
      <point x="280" y="0" type="line"/>
      <point x="315" y="52"/>
      <point x="343" y="133"/>
      <point x="351" y="167" type="qcurve"/>
      <point x="360" y="208"/>
      <point x="348" y="278"/>
      <point x="311" y="327"/>
      <point x="251" y="351"/>
      <point x="213" y="348" type="qcurve"/>
      <point x="170" y="344"/>
      <point x="114" y="274"/>
      <point x="101" y="200" type="qcurve"/>
      <point x="95" y="164"/>
      <point x="117" y="93"/>
      <point x="131" y="65" type="qcurve"/>
      <point x="148" y="31"/>
      <point x="173" y="0" type="qcurve"/>
    </contour>
    <contour>
      <point x="307" y="0" type="move" name="mark0"/>
    </contour>
  </outline>
</glyph>
<glyph name="U0C19" format="1">
  <advance width="728"/>
  <unicode hex="0C19"/>
  <outline>
    <contour>
      <point x="621" y="259" type="line" name="hr00"/>
      <point x="625" y="208"/>
      <point x="618" y="165" type="qcurve"/>
      <point x="613" y="127"/>
      <point x="581" y="55"/>
      <point x="545" y="39" type="qcurve"/>
      <point x="514" y="26"/>
      <point x="445" y="4"/>
      <point x="372" y="5"/>
      <point x="294" y="36"/>
      <point x="254" y="76" type="qcurve"/>
      <point x="238" y="76"/>
      <point x="186" y="52"/>
      <point x="135" y="24"/>
      <point x="96" y="0"/>
      <point x="93" y="0" type="qcurve"/>
      <point x="89" y="-1"/>
      <point x="78" y="36"/>
      <point x="72" y="90"/>
      <point x="75" y="153"/>
      <point x="86" y="177" type="qcurve"/>
      <point x="94" y="196"/>
      <point x="119" y="227"/>
      <point x="131" y="240" type="qcurve"/>
      <point x="145" y="253"/>
      <point x="162" y="265" type="qcurve"/>
      <point x="112" y="260"/>
      <point x="74" y="271" type="qcurve"/>
      <point x="57" y="275"/>
      <point x="28" y="293"/>
      <point x="7" y="321"/>
      <point x="-1" y="361"/>
      <point x="4" y="390" type="qcurve"/>
      <point x="9" y="420"/>
      <point x="47" y="463"/>
      <point x="99" y="490"/>
      <point x="159" y="505"/>
      <point x="212" y="509"/>
      <point x="251" y="504"/>
      <point x="257" y="498" type="qcurve"/>
      <point x="266" y="489"/>
      <point x="283" y="474"/>
      <point x="291" y="453"/>
      <point x="289" y="423"/>
      <point x="280" y="399" type="qcurve"/>
      <point x="271" y="376"/>
      <point x="242" y="322"/>
      <point x="211" y="268"/>
      <point x="187" y="223"/>
      <point x="184" y="210" type="qcurve"/>
      <point x="182" y="195"/>
      <point x="175" y="166"/>
      <point x="171" y="142"/>
      <point x="174" y="128"/>
      <point x="181" y="128" type="qcurve"/>
      <point x="188" y="128"/>
      <point x="224" y="147"/>
      <point x="263" y="172"/>
      <point x="297" y="193"/>
      <point x="303" y="194" type="qcurve"/>
      <point x="309" y="196"/>
      <point x="326" y="183"/>
      <point x="344" y="162"/>
      <point x="365" y="135"/>
      <point x="375" y="125" type="qcurve"/>
      <point x="385" y="114"/>
      <point x="414" y="86"/>
      <point x="449" y="68"/>
      <point x="488" y="63"/>
      <point x="509" y="76" type="qcurve"/>
      <point x="521" y="83"/>
      <point x="535" y="131"/>
      <point x="529" y="188"/>
      <point x="504" y="244"/>
      <point x="476" y="259" type="qcurve"/>
    </contour>
    <contour>
      <point x="99" y="357" type="qcurve"/>
      <point x="103" y="342"/>
      <point x="133" y="326"/>
      <point x="151" y="321" type="qcurve"/>
      <point x="170" y="315"/>
      <point x="195" y="314" type="qcurve"/>
      <point x="200" y="326"/>
      <point x="203" y="338" type="qcurve"/>
      <point x="205" y="349"/>
      <point x="206" y="379"/>
      <point x="201" y="396" type="qcurve"/>
      <point x="196" y="413"/>
      <point x="168" y="427"/>
      <point x="154" y="430" type="qcurve"/>
      <point x="136" y="433"/>
      <point x="116" y="432" type="qcurve"/>
      <point x="109" y="428"/>
      <point x="104" y="419" type="qcurve"/>
      <point x="100" y="411"/>
      <point x="95" y="382"/>
    </contour>
    <contour>
      <point x="381" y="492" type="qcurve"/>
      <point x="383" y="492"/>
      <point x="412" y="492"/>
      <point x="428" y="493" type="qcurve"/>
      <point x="446" y="494"/>
      <point x="470" y="495" type="qcurve"/>
      <point x="421" y="314" type="line"/>
      <point x="329" y="305" type="line"/>
      <point x="341" y="346"/>
      <point x="352" y="382" type="qcurve"/>
      <point x="361" y="413"/>
      <point x="379" y="475"/>
    </contour>
    <contour>
      <point x="270" y="420" type="line"/>
      <point x="536" y="436" type="line"/>
      <point x="545" y="367" type="line"/>
      <point x="241" y="367" type="line"/>
    </contour>
    <contour>
      <point x="294" y="-22" type="move" name="mark0"/>
    </contour>
  </outline>
</glyph>
<glyph name="U0C1A" format="1">
  <advance width="659"/>
  <unicode hex="0C1A"/>
  <outline>
    <contour>
      <point x="165" y="403" type="line" name="hr00"/>
      <point x="482" y="535" type="line"/>
      <point x="496" y="420" type="line"/>
      <point x="168" y="347" type="line"/>
    </contour>
    <contour>
      <point x="16" y="282" type="line"/>
      <point x="259" y="295" type="line"/>
      <point x="250" y="281"/>
      <point x="241" y="262" type="qcurve"/>
      <point x="232" y="247"/>
      <point x="214" y="202"/>
      <point x="207" y="174" type="qcurve"/>
      <point x="200" y="145"/>
      <point x="215" y="131"/>
      <point x="243" y="139"/>
      <point x="270" y="157"/>
      <point x="275" y="161" type="qcurve"/>
      <point x="300" y="178"/>
      <point x="326" y="181"/>
      <point x="338" y="167" type="qcurve"/>
      <point x="345" y="158"/>
      <point x="372" y="126"/>
      <point x="406" y="99"/>
      <point x="441" y="86"/>
      <point x="459" y="95" type="qcurve"/>
      <point x="487" y="119"/>
      <point x="498" y="189"/>
      <point x="476" y="261"/>
      <point x="428" y="323"/>
      <point x="397" y="338" type="qcurve"/>
      <point x="374" y="350"/>
      <point x="303" y="358"/>
      <point x="270" y="358" type="qcurve"/>
      <point x="231" y="358"/>
      <point x="190" y="354" type="qcurve"/>
      <point x="191" y="357"/>
      <point x="191" y="364" type="qcurve"/>
      <point x="191" y="369"/>
      <point x="189" y="388"/>
      <point x="187" y="403" type="qcurve"/>
      <point x="194" y="409"/>
      <point x="255" y="411"/>
      <point x="340" y="399"/>
      <point x="435" y="373"/>
      <point x="516" y="330"/>
      <point x="569" y="268"/>
      <point x="570" y="226" type="qcurve"/>
      <point x="571" y="165"/>
      <point x="530" y="80"/>
      <point x="475" y="26"/>
      <point x="420" y="1"/>
      <point x="407" y="0" type="qcurve"/>
      <point x="376" y="-4"/>
      <point x="332" y="19"/>
      <point x="299" y="51"/>
      <point x="272" y="82"/>
      <point x="259" y="85" type="qcurve"/>
      <point x="237" y="93"/>
      <point x="167" y="43"/>
      <point x="112" y="-6" type="qcurve"/>
      <point x="94" y="38"/>
      <point x="98" y="114"/>
      <point x="108" y="142" type="qcurve"/>
      <point x="119" y="176"/>
      <point x="138" y="203" type="qcurve"/>
      <point x="0" y="170" type="line"/>
    </contour>
  </outline>
</glyph>
<glyph name="U0C20" format="1">
  <advance width="538"/>
  <unicode hex="0C20"/>
  <outline>
    <contour>
      <point x="28" y="402" type="line" name="hr00"/>
      <point x="283" y="589" type="line"/>
      <point x="341" y="516" type="line"/>
      <point x="50" y="364" type="line"/>
    </contour>
    <contour>
      <point x="431" y="322" type="qcurve"/>
      <point x="443" y="289"/>
      <point x="434" y="196"/>
      <point x="390" y="103"/>
      <point x="313" y="26"/>
      <point x="258" y="10" type="qcurve"/>
      <point x="204" y="-6"/>
      <point x="115" y="20"/>
      <point x="49" y="78"/>
      <point x="8" y="154"/>
      <point x="2" y="186" type="qcurve"/>
      <point x="-5" y="218"/>
      <point x="27" y="304"/>
      <point x="83" y="381"/>
      <point x="151" y="436"/>
      <point x="179" y="439" type="qcurve"/>
      <point x="220" y="444"/>
      <point x="300" y="432"/>
      <point x="368" y="400"/>
      <point x="419" y="352"/>
    </contour>
    <contour>
      <point x="264" y="79" type="qcurve"/>
      <point x="284" y="75"/>
      <point x="319" y="119"/>
      <point x="340" y="184"/>
      <point x="341" y="257"/>
      <point x="327" y="282" type="qcurve"/>
      <point x="310" y="306"/>
      <point x="264" y="343"/>
      <point x="216" y="364"/>
      <point x="171" y="365"/>
      <point x="157" y="354" type="qcurve"/>
      <point x="146" y="347"/>
      <point x="118" y="306"/>
      <point x="96" y="252"/>
      <point x="93" y="188"/>
      <point x="124" y="132"/>
      <point x="198" y="88"/>
    </contour>
    <contour>
      <point x="278" y="232" type="qcurve"/>
      <point x="278" y="215"/>
      <point x="244" y="190"/>
      <point x="222" y="190" type="qcurve"/>
      <point x="200" y="190"/>
      <point x="166" y="215"/>
      <point x="166" y="232" type="qcurve"/>
      <point x="166" y="250"/>
      <point x="200" y="275"/>
      <point x="222" y="275" type="qcurve"/>
      <point x="244" y="275"/>
      <point x="278" y="250"/>
    </contour>
    <contour>
      <point x="266" y="-20" type="move" name="mark0"/>
    </contour>
  </outline>
</glyph>
<glyph name="U0C24" format="1">
  <advance width="593"/>
  <unicode hex="0C24"/>
  <outline>
    <contour>
      <point x="122" y="378" type="qcurve" name="hr00"/>
      <point x="112" y="438" type="line"/>
      <point x="414" y="614" type="line"/>
      <point x="432" y="508" type="line"/>
      <point x="365" y="480"/>
      <point x="305" y="455" type="qcurve"/>
      <point x="280" y="443"/>
      <point x="226" y="422"/>
      <point x="177" y="401"/>
      <point x="136" y="384"/>
    </contour>
    <contour>
      <point x="394" y="369" type="qcurve"/>
      <point x="443" y="369"/>
      <point x="494" y="329"/>
      <point x="507" y="265"/>
      <point x="490" y="190"/>
      <point x="456" y="119"/>
      <point x="409" y="62"/>
      <point x="386" y="50" type="qcurve"/>
      <point x="301" y="2"/>
      <point x="160" y="-2"/>
      <point x="58" y="45"/>
      <point x="1" y="122"/>
      <point x="0" y="156" type="qcurve"/>
      <point x="-3" y="189"/>
      <point x="31" y="260"/>
      <point x="86" y="317"/>
      <point x="155" y="351"/>
      <point x="186" y="348" type="qcurve"/>
      <point x="218" y="345"/>
      <point x="249" y="316"/>
      <point x="252" y="274"/>
      <point x="230" y="223"/>
      <point x="209" y="198" type="qcurve"/>
      <point x="186" y="171"/>
      <point x="142" y="164"/>
      <point x="124" y="169" type="qcurve"/>
      <point x="102" y="175"/>
      <point x="82" y="191" type="qcurve"/>
      <point x="84" y="174"/>
      <point x="99" y="138"/>
      <point x="135" y="108"/>
      <point x="199" y="85"/>
      <point x="249" y="80" type="qcurve"/>
      <point x="299" y="75"/>
      <point x="358" y="93"/>
      <point x="391" y="126"/>
      <point x="404" y="164"/>
      <point x="410" y="178" type="qcurve"/>
      <point x="403" y="172"/>
      <point x="369" y="164"/>
      <point x="329" y="170"/>
      <point x="291" y="193"/>
      <point x="282" y="217" type="qcurve"/>
      <point x="271" y="251"/>
      <point x="272" y="295"/>
      <point x="288" y="327"/>
      <point x="314" y="351"/>
      <point x="331" y="365" type="qcurve"/>
      <point x="321" y="391"/>
      <point x="279" y="414"/>
      <point x="257" y="416" type="qcurve"/>
      <point x="231" y="419"/>
      <point x="203" y="413" type="qcurve"/>
      <point x="185" y="418"/>
      <point x="171" y="423" type="qcurve"/>
      <point x="159" y="428"/>
      <point x="138" y="441"/>
      <point x="137" y="451" type="qcurve"/>
      <point x="203" y="467"/>
      <point x="295" y="456"/>
      <point x="356" y="424"/>
      <point x="389" y="382"/>
    </contour>
    <contour>
      <point x="115" y="293" type="qcurve"/>
      <point x="110" y="281"/>
      <point x="119" y="248"/>
      <point x="142" y="222"/>
      <point x="176" y="213"/>
      <point x="197" y="224" type="qcurve"/>
      <point x="200" y="256"/>
      <point x="175" y="286"/>
      <point x="159" y="291" type="qcurve"/>
      <point x="140" y="296"/>
    </contour>
    <contour>
      <point x="416" y="221" type="qcurve"/>
      <point x="418" y="234"/>
      <point x="411" y="270"/>
      <point x="391" y="304"/>
      <point x="359" y="328"/>
      <point x="337" y="329" type="qcurve"/>
      <point x="333" y="308"/>
      <point x="336" y="278"/>
      <point x="345" y="255"/>
      <point x="360" y="240"/>
      <point x="369" y="234" type="qcurve"/>
      <point x="388" y="223"/>
    </contour>
    <contour>
      <point x="259" y="-34" type="move" name="mark0"/>
    </contour>
    <contour>
      <point x="321" y="-30" type="move" name="mark0"/>
    </contour>
  </outline>
</glyph>
<glyph name="U0C25" format="1">
  <advance width="594"/>
  <unicode hex="0C25"/>
  <outline>
    <contour>
      <point x="32" y="407" type="line"/>
      <point x="373" y="551" type="line"/>
      <point x="383" y="451" type="line"/>
      <point x="38" y="356" type="line"/>
    </contour>
    <contour>
      <point x="488" y="220" type="qcurve"/>
      <point x="495" y="168"/>
      <point x="466" y="87"/>
      <point x="419" y="30"/>
      <point x="362" y="0"/>
      <point x="341" y="-1" type="qcurve"/>
      <point x="319" y="-4"/>
      <point x="287" y="10"/>
      <point x="254" y="31"/>
      <point x="217" y="49"/>
      <point x="191" y="49" type="qcurve"/>
      <point x="169" y="49"/>
      <point x="109" y="23"/>
      <point x="87" y="0" type="qcurve"/>
      <point x="56" y="26"/>
      <point x="20" y="79"/>
      <point x="3" y="136"/>
      <point x="1" y="199"/>
      <point x="5" y="232" type="qcurve"/>
      <point x="10" y="284"/>
      <point x="61" y="350"/>
      <point x="89" y="371" type="qcurve"/>
      <point x="122" y="393"/>
      <point x="161" y="406" type="qcurve"/>
      <point x="204" y="419"/>
      <point x="312" y="402"/>
      <point x="411" y="352"/>
      <point x="482" y="271"/>
    </contour>
    <contour>
      <point x="345" y="70" type="qcurve"/>
      <point x="357" y="71"/>
      <point x="383" y="94"/>
      <point x="400" y="132"/>
      <point x="406" y="182"/>
      <point x="393" y="236"/>
      <point x="356" y="288"/>
      <point x="324" y="311" type="qcurve"/>
      <point x="290" y="335"/>
      <point x="227" y="351"/>
      <point x="206" y="351" type="qcurve"/>
      <point x="179" y="351"/>
      <point x="158" y="342" type="qcurve" name="hr01"/>
      <point x="145" y="338"/>
      <point x="121" y="315"/>
      <point x="101" y="284"/>
      <point x="87" y="249"/>
      <point x="84" y="234" type="qcurve"/>
      <point x="77" y="200"/>
      <point x="81" y="142"/>
      <point x="100" y="106"/>
      <point x="130" y="95"/>
      <point x="150" y="108" type="qcurve"/>
      <point x="184" y="128"/>
      <point x="234" y="159"/>
      <point x="240" y="159" type="qcurve"/>
      <point x="245" y="157"/>
      <point x="263" y="128"/>
      <point x="290" y="94"/>
      <point x="323" y="69"/>
    </contour>
    <contour>
      <point x="281" y="259" type="qcurve"/>
      <point x="281" y="239"/>
      <point x="250" y="213"/>
      <point x="225" y="213" type="qcurve"/>
      <point x="203" y="213"/>
      <point x="173" y="239"/>
      <point x="173" y="259" type="qcurve"/>
      <point x="173" y="276"/>
      <point x="203" y="302"/>
      <point x="225" y="302" type="qcurve"/>
      <point x="250" y="302"/>
      <point x="281" y="276"/>
    </contour>
    <contour>
      <point x="173" y="30" type="line" name="hr02"/>
      <point x="223" y="31" type="line" name="hr03"/>
      <point x="205" y="-76" type="line"/>
      <point x="128" y="-79" type="line"/>
    </contour>
  </outline>
</glyph>
<glyph name="U0C26" format="1">
  <advance width="593"/>
  <unicode hex="0C26"/>
  <outline>
    <contour>
      <point x="32" y="407" type="line"/>
      <point x="373" y="551" type="line"/>
      <point x="383" y="451" type="line"/>
      <point x="38" y="356" type="line"/>
    </contour>
    <contour>
      <point x="488" y="220" type="qcurve"/>
      <point x="495" y="168"/>
      <point x="466" y="87"/>
      <point x="419" y="30"/>
      <point x="362" y="0"/>
      <point x="341" y="-1" type="qcurve"/>
      <point x="319" y="-4"/>
      <point x="287" y="10"/>
      <point x="254" y="31"/>
      <point x="217" y="49"/>
      <point x="191" y="49" type="qcurve"/>
      <point x="169" y="49"/>
      <point x="109" y="23"/>
      <point x="87" y="0" type="qcurve"/>
      <point x="56" y="26"/>
      <point x="20" y="79"/>
      <point x="3" y="136"/>
      <point x="1" y="199"/>
      <point x="5" y="232" type="qcurve"/>
      <point x="10" y="284"/>
      <point x="61" y="350"/>
      <point x="89" y="371" type="qcurve"/>
      <point x="122" y="393"/>
      <point x="161" y="406" type="qcurve"/>
      <point x="204" y="419"/>
      <point x="312" y="402"/>
      <point x="411" y="352"/>
      <point x="482" y="271"/>
    </contour>
    <contour>
      <point x="345" y="70" type="qcurve"/>
      <point x="357" y="71"/>
      <point x="383" y="94"/>
      <point x="400" y="132"/>
      <point x="406" y="182"/>
      <point x="393" y="236"/>
      <point x="356" y="288"/>
      <point x="324" y="311" type="qcurve"/>
      <point x="290" y="335"/>
      <point x="227" y="351"/>
      <point x="206" y="351" type="qcurve" name="hr01"/>
      <point x="179" y="351"/>
      <point x="158" y="342" type="qcurve" name="hr02"/>
      <point x="145" y="338"/>
      <point x="121" y="315"/>
      <point x="101" y="284"/>
      <point x="87" y="249"/>
      <point x="84" y="234" type="qcurve"/>
      <point x="77" y="200"/>
      <point x="81" y="142"/>
      <point x="100" y="106"/>
      <point x="130" y="95"/>
      <point x="150" y="108" type="qcurve"/>
      <point x="184" y="128"/>
      <point x="234" y="159"/>
      <point x="240" y="159" type="qcurve"/>
      <point x="245" y="157"/>
      <point x="263" y="128"/>
      <point x="290" y="94"/>
      <point x="323" y="69"/>
    </contour>
  </outline>
</glyph>
<glyph name="U0C28" format="1">
  <advance width="583"/>
  <unicode hex="0C28"/>
  <outline>
    <contour>
      <point x="69" y="450" type="line" name="hr00"/>
      <point x="380" y="561" type="line"/>
      <point x="393" y="450" type="line"/>
      <point x="76" y="381" type="line"/>
    </contour>
    <contour>
      <point x="6" y="-32" type="line"/>
      <point x="5" y="-27"/>
      <point x="4" y="-15" type="qcurve"/>
      <point x="3" y="-5"/>
      <point x="1" y="31"/>
      <point x="0" y="60" type="qcurve"/>
      <point x="5" y="119"/>
      <point x="47" y="195"/>
      <point x="103" y="238"/>
      <point x="163" y="251"/>
      <point x="186" y="247" type="qcurve"/>
      <point x="190" y="225"/>
      <point x="216" y="161"/>
      <point x="253" y="106"/>
      <point x="297" y="75"/>
      <point x="317" y="86" type="qcurve"/>
      <point x="355" y="116"/>
      <point x="384" y="174"/>
      <point x="381" y="228"/>
      <point x="353" y="278"/>
      <point x="317" y="316"/>
      <point x="280" y="345"/>
      <point x="268" y="352" type="qcurve"/>
      <point x="250" y="364"/>
      <point x="185" y="375"/>
      <point x="154" y="377" type="qcurve"/>
      <point x="117" y="380"/>
      <point x="76" y="380" type="qcurve"/>
      <point x="109" y="394"/>
      <point x="139" y="406" type="qcurve"/>
      <point x="166" y="415"/>
      <point x="221" y="428"/>
      <point x="240" y="423" type="qcurve"/>
      <point x="342" y="387"/>
      <point x="450" y="299"/>
      <point x="486" y="208"/>
      <point x="465" y="121"/>
      <point x="412" y="51"/>
      <point x="340" y="5"/>
      <point x="308" y="1" type="qcurve"/>
      <point x="278" y="-3"/>
      <point x="230" y="17"/>
      <point x="195" y="51"/>
      <point x="167" y="93"/>
      <point x="145" y="128"/>
      <point x="127" y="148"/>
      <point x="118" y="145" type="qcurve"/>
      <point x="111" y="142"/>
      <point x="104" y="124"/>
      <point x="103" y="98"/>
      <point x="106" y="68"/>
      <point x="110" y="52" type="qcurve"/>
      <point x="116" y="15"/>
      <point x="128" y="-29" type="qcurve"/>
    </contour>
  </outline>
</glyph>
<glyph name="U0C2A" format="1">
  <advance width="546"/>
  <unicode hex="0C2A"/>
  <outline>
    <contour>
      <point x="24" y="326" type="line" name="hr00"/>
      <point x="1" y="381" type="line"/>
      <point x="310" y="550" type="line"/>
      <point x="352" y="459" type="line"/>
    </contour>
    <contour>
      <point x="417" y="374" type="line"/>
      <point x="428" y="353"/>
      <point x="437" y="329" type="qcurve"/>
      <point x="445" y="307"/>
      <point x="457" y="250"/>
      <point x="456" y="217" type="qcurve"/>
      <point x="454" y="151"/>
      <point x="407" y="36"/>
      <point x="358" y="12" type="qcurve"/>
      <point x="333" y="-3"/>
      <point x="285" y="2"/>
      <point x="242" y="23"/>
      <point x="205" y="50"/>
      <point x="190" y="59" type="qcurve"/>
      <point x="178" y="67"/>
      <point x="145" y="51"/>
      <point x="113" y="25"/>
      <point x="85" y="1"/>
      <point x="79" y="1" type="qcurve"/>
      <point x="57" y="1"/>
      <point x="20" y="37"/>
      <point x="-1" y="89"/>
      <point x="-2" y="147"/>
      <point x="12" y="170" type="qcurve"/>
      <point x="28" y="194"/>
      <point x="69" y="222"/>
      <point x="113" y="228"/>
      <point x="153" y="209"/>
      <point x="166" y="184" type="qcurve"/>
      <point x="183" y="152"/>
      <point x="221" y="113"/>
      <point x="256" y="92"/>
      <point x="285" y="86"/>
      <point x="294" y="86" type="qcurve"/>
      <point x="329" y="86"/>
      <point x="377" y="153"/>
      <point x="373" y="208" type="qcurve"/>
      <point x="371" y="227"/>
      <point x="353" y="270"/>
      <point x="342" y="290" type="qcurve"/>
      <point x="330" y="311"/>
      <point x="314" y="334" type="qcurve"/>
    </contour>
    <contour>
      <point x="105" y="77" type="qcurve"/>
      <point x="124" y="82"/>
      <point x="129" y="114"/>
      <point x="117" y="146"/>
      <point x="92" y="170"/>
      <point x="81" y="167" type="qcurve"/>
      <point x="62" y="162"/>
      <point x="57" y="130"/>
      <point x="71" y="97"/>
      <point x="95" y="74"/>
    </contour>
    <contour>
      <point x="287" y="-13" type="move" name="mark0"/>
    </contour>
  </outline>
</glyph>
<glyph name="U0C2B" format="1">
  <advance width="548"/>
  <unicode hex="0C2B"/>
  <outline>
    <contour>
      <point x="47" y="332" type="line" name="hr00"/>
      <point x="25" y="389" type="line"/>
      <point x="336" y="557" type="line"/>
      <point x="378" y="466" type="line"/>
    </contour>
    <contour>
      <point x="417" y="374" type="line"/>
      <point x="428" y="353"/>
      <point x="437" y="329" type="qcurve"/>
      <point x="445" y="307"/>
      <point x="457" y="250"/>
      <point x="456" y="217" type="qcurve"/>
      <point x="454" y="151"/>
      <point x="407" y="36"/>
      <point x="358" y="12" type="qcurve"/>
      <point x="333" y="-3"/>
      <point x="285" y="2"/>
      <point x="242" y="23"/>
      <point x="205" y="50"/>
      <point x="190" y="59" type="qcurve"/>
      <point x="178" y="67"/>
      <point x="145" y="51"/>
      <point x="113" y="25"/>
      <point x="85" y="1"/>
      <point x="79" y="1" type="qcurve"/>
      <point x="57" y="1"/>
      <point x="20" y="37"/>
      <point x="-1" y="89"/>
      <point x="-2" y="147"/>
      <point x="12" y="170" type="qcurve"/>
      <point x="28" y="194"/>
      <point x="69" y="222"/>
      <point x="113" y="228"/>
      <point x="153" y="209"/>
      <point x="166" y="184" type="qcurve"/>
      <point x="183" y="152"/>
      <point x="221" y="113"/>
      <point x="256" y="92"/>
      <point x="285" y="86"/>
      <point x="294" y="86" type="qcurve"/>
      <point x="329" y="86"/>
      <point x="377" y="153"/>
      <point x="373" y="208" type="qcurve"/>
      <point x="371" y="227"/>
      <point x="353" y="270"/>
      <point x="342" y="290" type="qcurve"/>
      <point x="330" y="311"/>
      <point x="314" y="334" type="qcurve"/>
    </contour>
    <contour>
      <point x="105" y="77" type="qcurve"/>
      <point x="124" y="82"/>
      <point x="129" y="114"/>
      <point x="117" y="146"/>
      <point x="92" y="170"/>
      <point x="81" y="167" type="qcurve"/>
      <point x="62" y="162"/>
      <point x="57" y="130"/>
      <point x="71" y="97"/>
      <point x="95" y="74"/>
    </contour>
    <contour>
      <point x="143" y="30" type="line"/>
      <point x="194" y="31" type="line"/>
      <point x="175" y="-76" type="line"/>
      <point x="98" y="-79" type="line"/>
    </contour>
  </outline>
</glyph>
<glyph name="U0C2C" format="1">
  <advance width="663"/>
  <unicode hex="0C2C"/>
  <outline>
    <contour>
      <point x="418" y="438" type="line"/>
      <point x="474" y="398"/>
      <point x="501" y="365" type="qcurve"/>
      <point x="524" y="340"/>
      <point x="561" y="279"/>
      <point x="559" y="248" type="qcurve"/>
      <point x="556" y="221"/>
      <point x="536" y="148"/>
      <point x="495" y="77"/>
      <point x="433" y="17"/>
      <point x="395" y="3" type="qcurve"/>
      <point x="372" y="-9"/>
      <point x="321" y="17"/>
      <point x="272" y="45"/>
      <point x="225" y="66"/>
      <point x="203" y="58" type="qcurve"/>
      <point x="191" y="55"/>
      <point x="137" y="35"/>
      <point x="79" y="13"/>
      <point x="30" y="-1"/>
      <point x="25" y="2" type="qcurve"/>
      <point x="16" y="4"/>
      <point x="-1" y="46"/>
      <point x="6" y="110"/>
      <point x="50" y="188"/>
      <point x="103" y="227" type="qcurve"/>
      <point x="87" y="224"/>
      <point x="37" y="240"/>
      <point x="2" y="278"/>
      <point x="-1" y="336"/>
      <point x="32" y="375" type="qcurve"/>
      <point x="67" y="416"/>
      <point x="151" y="441"/>
      <point x="224" y="428"/>
      <point x="274" y="386"/>
      <point x="278" y="358" type="qcurve"/>
      <point x="281" y="323"/>
      <point x="251" y="273"/>
      <point x="208" y="240"/>
      <point x="164" y="217"/>
      <point x="153" y="208" type="qcurve"/>
      <point x="128" y="187"/>
      <point x="104" y="141"/>
      <point x="103" y="105"/>
      <point x="122" y="87"/>
      <point x="139" y="93" type="qcurve"/>
      <point x="176" y="106"/>
      <point x="224" y="133"/>
      <point x="254" y="154"/>
      <point x="268" y="163"/>
      <point x="270" y="159" type="qcurve"/>
      <point x="273" y="156"/>
      <point x="296" y="127"/>
      <point x="328" y="99"/>
      <point x="367" y="81"/>
      <point x="385" y="87" type="qcurve"/>
      <point x="391" y="88"/>
      <point x="422" y="113"/>
      <point x="451" y="155"/>
      <point x="468" y="211"/>
      <point x="461" y="244" type="qcurve"/>
      <point x="454" y="278"/>
      <point x="415" y="337"/>
      <point x="372" y="384"/>
      <point x="314" y="433"/>
      <point x="307" y="438" type="qcurve"/>
    </contour>
    <contour>
      <point x="87" y="382" type="qcurve"/>
      <point x="74" y="358"/>
      <point x="91" y="316"/>
      <point x="126" y="289"/>
      <point x="168" y="281"/>
      <point x="179" y="290" type="qcurve"/>
      <point x="193" y="322"/>
      <point x="170" y="362"/>
      <point x="131" y="383"/>
      <point x="91" y="387"/>
    </contour>
  </outline>
</glyph>
<glyph name="U0C2D" format="1">
  <advance width="659"/>
  <unicode hex="0C2D"/>
  <outline>
    <contour>
      <point x="318" y="457" type="line" name="hr00"/>
      <point x="521" y="612" type="line"/>
      <point x="531" y="501" type="line"/>
      <point x="325" y="406" type="line"/>
    </contour>
    <contour>
      <point x="387" y="438" type="line"/>
      <point x="443" y="430"/>
      <point x="486" y="394" type="qcurve"/>
      <point x="528" y="358"/>
      <point x="559" y="278"/>
      <point x="556" y="247" type="qcurve"/>
      <point x="555" y="220"/>
      <point x="535" y="148"/>
      <point x="494" y="78"/>
      <point x="429" y="19"/>
      <point x="385" y="7" type="qcurve"/>
      <point x="364" y="14"/>
      <point x="323" y="31"/>
      <point x="286" y="43"/>
      <point x="253" y="49"/>
      <point x="238" y="46" type="qcurve"/>
      <point x="225" y="45"/>
      <point x="160" y="29"/>
      <point x="87" y="11"/>
      <point x="28" y="-2"/>
      <point x="22" y="1" type="qcurve"/>
      <point x="13" y="3"/>
      <point x="-3" y="45"/>
      <point x="5" y="109"/>
      <point x="49" y="187"/>
      <point x="100" y="226" type="qcurve"/>
      <point x="89" y="224"/>
      <point x="58" y="229"/>
      <point x="29" y="245"/>
      <point x="4" y="270"/>
      <point x="-4" y="304"/>
      <point x="9" y="347"/>
      <point x="32" y="374" type="qcurve"/>
      <point x="66" y="415"/>
      <point x="148" y="440"/>
      <point x="221" y="427"/>
      <point x="271" y="385"/>
      <point x="274" y="357" type="qcurve"/>
      <point x="278" y="322"/>
      <point x="249" y="272"/>
      <point x="207" y="239"/>
      <point x="164" y="216"/>
      <point x="153" y="207" type="qcurve"/>
      <point x="127" y="186"/>
      <point x="103" y="140"/>
      <point x="102" y="104"/>
      <point x="121" y="86"/>
      <point x="136" y="92" type="qcurve"/>
      <point x="173" y="105"/>
      <point x="222" y="132"/>
      <point x="253" y="153"/>
      <point x="268" y="162"/>
      <point x="270" y="158" type="qcurve"/>
      <point x="273" y="155"/>
      <point x="296" y="126"/>
      <point x="328" y="98"/>
      <point x="365" y="80"/>
      <point x="382" y="86" type="qcurve"/>
      <point x="389" y="87"/>
      <point x="420" y="112"/>
      <point x="449" y="154"/>
      <point x="465" y="210"/>
      <point x="468" y="258" type="qcurve"/>
      <point x="462" y="297"/>
      <point x="441" y="342"/>
      <point x="393" y="383"/>
      <point x="346" y="400"/>
      <point x="329" y="406" type="qcurve"/>
    </contour>
    <contour>
      <point x="87" y="381" type="qcurve"/>
      <point x="74" y="357"/>
      <point x="91" y="315"/>
      <point x="126" y="288"/>
      <point x="168" y="280"/>
      <point x="179" y="289" type="qcurve"/>
      <point x="191" y="321"/>
      <point x="169" y="361"/>
      <point x="130" y="382"/>
      <point x="91" y="386"/>
    </contour>
    <contour>
      <point x="212" y="30" type="line"/>
      <point x="262" y="31" type="line"/>
      <point x="244" y="-76" type="line"/>
      <point x="167" y="-79" type="line"/>
    </contour>
  </outline>
</glyph>
<glyph name="U0C2F" format="1">
  <advance width="946"/>
  <unicode hex="0C2F"/>
  <outline>
    <contour>
      <point x="651" y="422" type="qcurve"/>
      <point x="784" y="422" type="line"/>
      <point x="829" y="356"/>
      <point x="843" y="285" type="qcurve"/>
      <point x="849" y="254"/>
      <point x="849" y="184"/>
      <point x="829" y="111"/>
      <point x="785" y="35"/>
      <point x="748" y="-1" type="qcurve"/>
      <point x="728" y="7"/>
      <point x="687" y="18"/>
      <point x="649" y="24"/>
      <point x="616" y="26"/>
      <point x="605" y="25" type="qcurve"/>
      <point x="581" y="25"/>
      <point x="539" y="19"/>
      <point x="524" y="17" type="qcurve"/>
      <point x="507" y="14"/>
      <point x="494" y="11" type="qcurve"/>
      <point x="506" y="25"/>
      <point x="519" y="40" type="qcurve"/>
      <point x="530" y="53"/>
      <point x="557" y="87"/>
      <point x="571" y="105" type="qcurve"/>
      <point x="575" y="110"/>
      <point x="600" y="108"/>
      <point x="633" y="98"/>
      <point x="670" y="85"/>
      <point x="685" y="78" type="qcurve"/>
      <point x="699" y="84"/>
      <point x="731" y="115"/>
      <point x="755" y="160"/>
      <point x="762" y="219"/>
      <point x="744" y="293"/>
      <point x="700" y="378"/>
    </contour>
    <contour>
      <point x="481" y="424" type="qcurve"/>
      <point x="501" y="421"/>
      <point x="552" y="389"/>
      <point x="598" y="335"/>
      <point x="631" y="258"/>
      <point x="631" y="210" type="qcurve"/>
      <point x="631" y="171"/>
      <point x="601" y="99"/>
      <point x="551" y="43"/>
      <point x="484" y="5"/>
      <point x="449" y="-1" type="qcurve"/>
      <point x="432" y="1"/>
      <point x="395" y="22"/>
      <point x="358" y="43"/>
      <point x="323" y="55"/>
      <point x="308" y="49" type="qcurve"/>
      <point x="289" y="41"/>
      <point x="264" y="31"/>
      <point x="244" y="20"/>
      <point x="220" y="9"/>
      <point x="202" y="1" type="qcurve"/>
      <point x="162" y="4"/>
      <point x="83" y="49"/>
      <point x="25" y="122"/>
      <point x="-5" y="217"/>
      <point x="4" y="271" type="qcurve"/>
      <point x="12" y="301"/>
      <point x="58" y="372"/>
      <point x="111" y="415"/>
      <point x="158" y="434"/>
      <point x="168" y="435" type="qcurve"/>
      <point x="230" y="442"/>
      <point x="316" y="422"/>
      <point x="370" y="377"/>
      <point x="396" y="315"/>
      <point x="400" y="283" type="qcurve"/>
      <point x="411" y="227"/>
      <point x="381" y="124" type="qcurve"/>
      <point x="382" y="124"/>
      <point x="399" y="116"/>
      <point x="421" y="100"/>
      <point x="443" y="78"/>
      <point x="450" y="65" type="qcurve"/>
      <point x="459" y="67"/>
      <point x="489" y="79"/>
      <point x="520" y="110"/>
      <point x="544" y="167"/>
      <point x="546" y="215" type="qcurve"/>
      <point x="547" y="278"/>
      <point x="513" y="350"/>
      <point x="494" y="368" type="qcurve"/>
      <point x="470" y="388"/>
      <point x="439" y="393" type="qcurve"/>
      <point x="428" y="433" type="line" name="hr01"/>
      <point x="436" y="434"/>
      <point x="445" y="433" type="qcurve"/>
      <point x="454" y="432"/>
      <point x="472" y="429"/>
    </contour>
    <contour>
      <point x="214" y="67" type="qcurve"/>
      <point x="233" y="67"/>
      <point x="274" y="119"/>
      <point x="302" y="196"/>
      <point x="310" y="263"/>
      <point x="286" y="339"/>
      <point x="220" y="388"/>
      <point x="161" y="386" type="qcurve"/>
      <point x="142" y="385"/>
      <point x="114" y="334"/>
      <point x="97" y="258"/>
      <point x="98" y="191"/>
      <point x="122" y="116"/>
      <point x="172" y="66"/>
    </contour>
    <contour>
      <point x="600" y="567" type="line"/>
      <point x="611" y="464" type="line"/>
      <point x="424" y="387" type="line"/>
      <point x="417" y="437" type="line"/>
    </contour>
    <contour>
      <point x="621" y="-55" type="move" name="mark0"/>
    </contour>
  </outline>
</glyph>
<glyph name="U0C30" format="1">
  <advance width="538"/>
  <unicode hex="0C30"/>
  <outline>
    <contour>
      <point x="48" y="422" type="line" name="hr00"/>
      <point x="306" y="601" type="line"/>
      <point x="369" y="506" type="line"/>
      <point x="71" y="375" type="line"/>
    </contour>
    <contour>
      <point x="431" y="319" type="qcurve"/>
      <point x="443" y="288"/>
      <point x="434" y="195"/>
      <point x="391" y="101"/>
      <point x="315" y="25"/>
      <point x="261" y="8" type="qcurve"/>
      <point x="206" y="-8"/>
      <point x="116" y="18"/>
      <point x="49" y="76"/>
      <point x="8" y="152"/>
      <point x="2" y="185" type="qcurve"/>
      <point x="-5" y="217"/>
      <point x="27" y="302"/>
      <point x="83" y="380"/>
      <point x="151" y="435"/>
      <point x="179" y="437" type="qcurve"/>
      <point x="220" y="442"/>
      <point x="300" y="430"/>
      <point x="368" y="398"/>
      <point x="419" y="350"/>
    </contour>
    <contour>
      <point x="264" y="77" type="qcurve"/>
      <point x="284" y="74"/>
      <point x="319" y="118"/>
      <point x="340" y="183"/>
      <point x="341" y="256"/>
      <point x="327" y="281" type="qcurve"/>
      <point x="310" y="303"/>
      <point x="264" y="340"/>
      <point x="216" y="361"/>
      <point x="171" y="364"/>
      <point x="157" y="352" type="qcurve"/>
      <point x="146" y="345"/>
      <point x="118" y="304"/>
      <point x="96" y="250"/>
      <point x="93" y="186"/>
      <point x="124" y="130"/>
      <point x="198" y="86"/>
    </contour>
    <contour>
      <point x="259" y="-20" type="move" name="mark0"/>
    </contour>
  </outline>
</glyph>
<glyph name="U0C32" format="1">
  <advance width="579"/>
  <unicode hex="0C32"/>
  <outline>
    <contour>
      <point x="431" y="434" type="qcurve" name="hr00"/>
      <point x="459" y="395"/>
      <point x="479" y="305"/>
      <point x="472" y="214"/>
      <point x="441" y="129"/>
      <point x="394" y="59"/>
      <point x="335" y="12"/>
      <point x="302" y="5" type="qcurve"/>
      <point x="261" y="-4"/>
      <point x="166" y="2"/>
      <point x="79" y="36"/>
      <point x="13" y="100"/>
      <point x="3" y="150" type="qcurve"/>
      <point x="-6" y="201"/>
      <point x="23" y="304"/>
      <point x="75" y="388"/>
      <point x="135" y="440"/>
      <point x="159" y="440" type="qcurve"/>
      <point x="214" y="438"/>
      <point x="261" y="397"/>
      <point x="266" y="340"/>
      <point x="241" y="274"/>
      <point x="222" y="249" type="qcurve"/>
      <point x="204" y="221"/>
      <point x="155" y="219"/>
      <point x="132" y="229" type="qcurve"/>
      <point x="105" y="241"/>
      <point x="80" y="265" type="qcurve"/>
      <point x="82" y="208"/>
      <point x="123" y="136"/>
      <point x="178" y="95"/>
      <point x="234" y="80"/>
      <point x="253" y="80" type="qcurve"/>
      <point x="272" y="80"/>
      <point x="313" y="94"/>
      <point x="349" y="128"/>
      <point x="378" y="181"/>
      <point x="386" y="220" type="qcurve"/>
      <point x="394" y="258"/>
      <point x="373" y="335"/>
      <point x="357" y="366" type="qcurve"/>
      <point x="339" y="401"/>
      <point x="313" y="434" type="qcurve"/>
      <point x="319" y="432"/>
      <point x="335" y="432" type="qcurve"/>
      <point x="347" y="431"/>
      <point x="393" y="432"/>
    </contour>
    <contour>
      <point x="115" y="381" type="qcurve"/>
      <point x="103" y="367"/>
      <point x="105" y="336"/>
      <point x="123" y="308"/>
      <point x="151" y="287"/>
      <point x="179" y="276"/>
      <point x="205" y="279"/>
      <point x="211" y="289" type="qcurve"/>
      <point x="218" y="310"/>
      <point x="212" y="343"/>
      <point x="193" y="366"/>
      <point x="164" y="379"/>
      <point x="138" y="385"/>
      <point x="117" y="384"/>
    </contour>
    <contour>
      <point x="300" y="-12" type="move" name="mark0"/>
    </contour>
  </outline>
</glyph>
<glyph name="U0C33" format="1">
  <advance width="556"/>
  <unicode hex="0C33"/>
  <outline>
    <contour>
      <point x="260" y="423" type="line" name="hr00"/>
      <point x="249" y="466" type="line"/>
      <point x="468" y="611" type="line"/>
      <point x="508" y="540" type="line"/>
    </contour>
    <contour>
      <point x="353" y="248" type="qcurve"/>
      <point x="404" y="226"/>
      <point x="455" y="165"/>
      <point x="453" y="100"/>
      <point x="399" y="39"/>
      <point x="347" y="18" type="qcurve"/>
      <point x="306" y="2"/>
      <point x="207" y="-2"/>
      <point x="119" y="20"/>
      <point x="55" y="71"/>
      <point x="49" y="110" type="qcurve"/>
      <point x="42" y="165"/>
      <point x="86" y="220"/>
      <point x="122" y="236" type="qcurve"/>
      <point x="109" y="241"/>
      <point x="87" y="252"/>
      <point x="67" y="259" type="qcurve"/>
      <point x="32" y="282"/>
      <point x="2" y="331"/>
      <point x="0" y="378"/>
      <point x="19" y="422"/>
      <point x="47" y="457"/>
      <point x="76" y="481"/>
      <point x="85" y="486" type="qcurve"/>
      <point x="102" y="494"/>
      <point x="163" y="478"/>
      <point x="217" y="441"/>
      <point x="246" y="385"/>
      <point x="231" y="353" type="qcurve"/>
      <point x="217" y="322"/>
      <point x="182" y="300"/>
      <point x="166" y="300" type="qcurve"/>
      <point x="147" y="299"/>
      <point x="128" y="309" type="qcurve"/>
      <point x="131" y="304"/>
      <point x="161" y="292"/>
      <point x="201" y="282"/>
      <point x="248" y="273"/>
      <point x="268" y="271" type="qcurve"/>
      <point x="280" y="275"/>
      <point x="298" y="285"/>
      <point x="304" y="289" type="qcurve"/>
      <point x="311" y="293"/>
      <point x="316" y="297" type="qcurve"/>
      <point x="333" y="309"/>
      <point x="344" y="323" type="qcurve"/>
      <point x="354" y="334"/>
      <point x="368" y="364"/>
      <point x="362" y="380" type="qcurve"/>
      <point x="355" y="400"/>
      <point x="323" y="419"/>
      <point x="305" y="422" type="qcurve"/>
      <point x="286" y="426"/>
      <point x="262" y="424" type="qcurve"/>
      <point x="259" y="451" type="line"/>
      <point x="268" y="455"/>
      <point x="282" y="458" type="qcurve"/>
      <point x="293" y="460"/>
      <point x="327" y="461"/>
      <point x="350" y="456" type="qcurve"/>
      <point x="403" y="443"/>
      <point x="451" y="388"/>
      <point x="446" y="325"/>
      <point x="396" y="264"/>
    </contour>
    <contour>
      <point x="97" y="366" type="qcurve"/>
      <point x="112" y="352"/>
      <point x="140" y="342"/>
      <point x="148" y="351" type="qcurve"/>
      <point x="158" y="358"/>
      <point x="154" y="388"/>
      <point x="140" y="404" type="qcurve"/>
      <point x="126" y="418"/>
      <point x="94" y="425"/>
      <point x="85" y="419" type="qcurve"/>
      <point x="79" y="410"/>
      <point x="83" y="379"/>
    </contour>
    <contour>
      <point x="314" y="66" type="qcurve"/>
      <point x="344" y="79"/>
      <point x="369" y="135"/>
      <point x="350" y="168" type="qcurve"/>
      <point x="340" y="187"/>
      <point x="293" y="211"/>
      <point x="242" y="222"/>
      <point x="197" y="221"/>
      <point x="188" y="218" type="qcurve"/>
      <point x="168" y="207"/>
      <point x="145" y="184"/>
      <point x="139" y="160"/>
      <point x="147" y="132"/>
      <point x="158" y="116" type="qcurve"/>
      <point x="168" y="99"/>
      <point x="212" y="76"/>
      <point x="261" y="63"/>
      <point x="305" y="60"/>
    </contour>
    <contour>
      <point x="253" y="-27" type="move" name="mark0"/>
    </contour>
  </outline>
</glyph>
<glyph name="U0C35" format="1">
  <advance width="554"/>
  <unicode hex="0C35"/>
  <outline>
    <contour>
      <point x="71" y="423" type="qcurve" name="hr00"/>
      <point x="168" y="433"/>
      <point x="313" y="403"/>
      <point x="411" y="336"/>
      <point x="459" y="240"/>
      <point x="459" y="184" type="qcurve"/>
      <point x="459" y="160"/>
      <point x="446" y="108"/>
      <point x="422" y="61"/>
      <point x="385" y="23"/>
      <point x="361" y="11" type="qcurve"/>
      <point x="336" y="-4"/>
      <point x="288" y="1"/>
      <point x="245" y="22"/>
      <point x="208" y="49"/>
      <point x="194" y="58" type="qcurve"/>
      <point x="181" y="66"/>
      <point x="148" y="50"/>
      <point x="115" y="25"/>
      <point x="88" y="0"/>
      <point x="82" y="0" type="qcurve"/>
      <point x="60" y="-2"/>
      <point x="24" y="34"/>
      <point x="2" y="87"/>
      <point x="1" y="146"/>
      <point x="15" y="169" type="qcurve"/>
      <point x="31" y="193"/>
      <point x="72" y="221"/>
      <point x="116" y="227"/>
      <point x="156" y="208"/>
      <point x="169" y="183" type="qcurve"/>
      <point x="186" y="151"/>
      <point x="224" y="112"/>
      <point x="259" y="91"/>
      <point x="288" y="85"/>
      <point x="297" y="85" type="qcurve"/>
      <point x="332" y="85"/>
      <point x="378" y="146"/>
      <point x="378" y="202" type="qcurve"/>
      <point x="378" y="215"/>
      <point x="369" y="258"/>
      <point x="342" y="303"/>
      <point x="296" y="346"/>
      <point x="222" y="375"/>
      <point x="119" y="384"/>
      <point x="49" y="374" type="qcurve"/>
      <point x="54" y="385"/>
      <point x="58" y="395" type="qcurve"/>
      <point x="62" y="403"/>
      <point x="69" y="419"/>
    </contour>
    <contour>
      <point x="109" y="76" type="qcurve"/>
      <point x="127" y="81"/>
      <point x="132" y="113"/>
      <point x="120" y="145"/>
      <point x="95" y="169"/>
      <point x="84" y="166" type="qcurve"/>
      <point x="66" y="161"/>
      <point x="60" y="129"/>
      <point x="74" y="96"/>
      <point x="98" y="73"/>
    </contour>
    <contour>
      <point x="40" y="423" type="line"/>
      <point x="359" y="557" type="line"/>
      <point x="384" y="466" type="line"/>
      <point x="40" y="371" type="line"/>
    </contour>
    <contour>
      <point x="300" y="-34" type="move" name="mark0"/>
    </contour>
    <contour>
      <point x="280" y="-2" type="move" name="mark0"/>
    </contour>
  </outline>
</glyph>
<glyph name="U0C36" format="1">
  <advance width="591"/>
  <unicode hex="0C36"/>
  <outline>
    <contour>
      <point x="402" y="291" type="qcurve"/>
      <point x="442" y="271"/>
      <point x="482" y="224"/>
      <point x="492" y="174"/>
      <point x="474" y="124"/>
      <point x="440" y="79"/>
      <point x="394" y="41"/>
      <point x="370" y="29" type="qcurve"/>
      <point x="331" y="8"/>
      <point x="236" y="0"/>
      <point x="148" y="20"/>
      <point x="85" y="71"/>
      <point x="79" y="110" type="qcurve"/>
      <point x="76" y="140"/>
      <point x="87" y="188"/>
      <point x="113" y="223"/>
      <point x="148" y="247"/>
      <point x="170" y="255" type="qcurve"/>
      <point x="137" y="253"/>
      <point x="76" y="234"/>
      <point x="52" y="224" type="qcurve"/>
      <point x="25" y="213"/>
      <point x="0" y="198" type="qcurve"/>
      <point x="0" y="282" type="line"/>
      <point x="101" y="304"/>
      <point x="236" y="318"/>
      <point x="274" y="317" type="qcurve"/>
      <point x="321" y="315"/>
      <point x="346" y="306" type="qcurve"/>
      <point x="348" y="312"/>
      <point x="349" y="321" type="qcurve"/>
      <point x="350" y="328"/>
      <point x="349" y="346"/>
      <point x="346" y="359" type="qcurve"/>
      <point x="343" y="370"/>
      <point x="321" y="383"/>
      <point x="289" y="390"/>
      <point x="250" y="392"/>
      <point x="230" y="392" type="qcurve"/>
      <point x="184" y="391"/>
      <point x="128" y="382" type="qcurve"/>
      <point x="128" y="420" type="line"/>
      <point x="169" y="426"/>
      <point x="210" y="429" type="qcurve"/>
      <point x="246" y="431"/>
      <point x="328" y="431"/>
      <point x="364" y="424" type="qcurve"/>
      <point x="398" y="416"/>
      <point x="433" y="392"/>
      <point x="444" y="365"/>
      <point x="438" y="337"/>
      <point x="424" y="312"/>
      <point x="407" y="295"/>
    </contour>
    <contour>
      <point x="344" y="70" type="qcurve"/>
      <point x="359" y="73"/>
      <point x="381" y="98"/>
      <point x="391" y="135"/>
      <point x="391" y="178"/>
      <point x="385" y="198" type="qcurve"/>
      <point x="379" y="218"/>
      <point x="335" y="244"/>
      <point x="285" y="257"/>
      <point x="241" y="258"/>
      <point x="234" y="255" type="qcurve" name="hr01"/>
      <point x="214" y="244"/>
      <point x="185" y="210"/>
      <point x="170" y="171"/>
      <point x="171" y="131"/>
      <point x="181" y="115" type="qcurve"/>
      <point x="190" y="97"/>
      <point x="231" y="77"/>
      <point x="280" y="66"/>
      <point x="327" y="66"/>
    </contour>
    <contour>
      <point x="128" y="382" type="line"/>
      <point x="111" y="430" type="line"/>
      <point x="384" y="594" type="line"/>
      <point x="423" y="503" type="line"/>
    </contour>
    <contour>
      <point x="362" y="-61" type="move" name="mark0"/>
    </contour>
  </outline>
</glyph>
<glyph name="U0C37" format="1">
  <advance width="569"/>
  <unicode hex="0C37"/>
  <outline>
    <contour>
      <point x="76" y="332" type="line"/>
      <point x="53" y="384" type="line"/>
      <point x="361" y="581" type="line"/>
      <point x="403" y="470" type="line"/>
    </contour>
    <contour>
      <point x="456" y="378" type="line"/>
      <point x="460" y="358"/>
      <point x="464" y="333" type="qcurve"/>
      <point x="467" y="311"/>
      <point x="470" y="253"/>
      <point x="469" y="220" type="qcurve"/>
      <point x="469" y="188"/>
      <point x="449" y="129"/>
      <point x="417" y="74"/>
      <point x="377" y="24"/>
      <point x="357" y="1" type="qcurve"/>
      <point x="355" y="1"/>
      <point x="323" y="12"/>
      <point x="275" y="26"/>
      <point x="218" y="37"/>
      <point x="190" y="37" type="qcurve"/>
      <point x="161" y="38"/>
      <point x="110" y="28"/>
      <point x="67" y="14"/>
      <point x="36" y="0"/>
      <point x="27" y="-2" type="qcurve"/>
      <point x="14" y="-5"/>
      <point x="1" y="32"/>
      <point x="0" y="86"/>
      <point x="11" y="143"/>
      <point x="24" y="162" type="qcurve"/>
      <point x="36" y="179"/>
      <point x="80" y="209"/>
      <point x="125" y="228"/>
      <point x="161" y="232"/>
      <point x="165" y="224" type="qcurve"/>
      <point x="177" y="198"/>
      <point x="224" y="156"/>
      <point x="275" y="126"/>
      <point x="318" y="110"/>
      <point x="328" y="110" type="qcurve"/>
      <point x="336" y="108"/>
      <point x="356" y="131"/>
      <point x="374" y="166"/>
      <point x="386" y="209"/>
      <point x="386" y="227" type="qcurve" name="hr01"/>
      <point x="384" y="246"/>
      <point x="373" y="283"/>
      <point x="366" y="298" type="qcurve"/>
      <point x="357" y="315"/>
      <point x="347" y="332" type="qcurve"/>
    </contour>
    <contour>
      <point x="80" y="83" type="qcurve"/>
      <point x="93" y="70"/>
      <point x="124" y="81"/>
      <point x="145" y="109"/>
      <point x="154" y="141"/>
      <point x="145" y="148" type="qcurve"/>
      <point x="134" y="157"/>
      <point x="105" y="143"/>
      <point x="82" y="118"/>
      <point x="72" y="89"/>
    </contour>
    <contour>
      <point x="400" y="195" type="qcurve"/>
      <point x="469" y="214" type="line"/>
      <point x="466" y="168"/>
      <point x="471" y="126" type="qcurve"/>
      <point x="476" y="90"/>
      <point x="505" y="11"/>
      <point x="538" y="-15" type="qcurve"/>
      <point x="520" y="-34"/>
      <point x="498" y="-56"/>
      <point x="489" y="-61" type="qcurve"/>
      <point x="480" y="-69"/>
      <point x="475" y="-71" type="qcurve"/>
      <point x="450" y="-51"/>
      <point x="431" y="-15" type="qcurve"/>
      <point x="416" y="14"/>
      <point x="394" y="117"/>
    </contour>
    <contour>
      <point x="300" y="-96" type="move" name="mark0"/>
    </contour>
  </outline>
</glyph>
<glyph name="U0C38" format="1">
  <advance width="559"/>
  <unicode hex="0C38"/>
  <outline>
    <contour>
      <point x="3" y="-66" type="line" name="hr00"/>
      <point x="2" y="-52"/>
      <point x="1" y="-37" type="qcurve"/>
      <point x="0" y="-24"/>
      <point x="0" y="12"/>
      <point x="0" y="33" type="qcurve"/>
      <point x="1" y="71"/>
      <point x="36" y="134"/>
      <point x="81" y="179"/>
      <point x="128" y="201"/>
      <point x="141" y="197" type="qcurve"/>
      <point x="148" y="196"/>
      <point x="191" y="159"/>
      <point x="243" y="116"/>
      <point x="292" y="81"/>
      <point x="305" y="82" type="qcurve"/>
      <point x="319" y="83"/>
      <point x="345" y="112"/>
      <point x="361" y="155"/>
      <point x="370" y="209"/>
      <point x="368" y="236" type="qcurve"/>
      <point x="364" y="264"/>
      <point x="344" y="308"/>
      <point x="333" y="325" type="qcurve"/>
      <point x="321" y="343"/>
      <point x="305" y="357" type="qcurve"/>
      <point x="420" y="416" type="line"/>
      <point x="431" y="390"/>
      <point x="439" y="359" type="qcurve"/>
      <point x="446" y="333"/>
      <point x="457" y="263"/>
      <point x="456" y="223" type="qcurve"/>
      <point x="454" y="170"/>
      <point x="418" y="87"/>
      <point x="368" y="30"/>
      <point x="310" y="0"/>
      <point x="286" y="0" type="qcurve"/>
      <point x="265" y="1"/>
      <point x="216" y="34"/>
      <point x="169" y="72"/>
      <point x="130" y="102"/>
      <point x="122" y="101" type="qcurve"/>
      <point x="98" y="99"/>
      <point x="85" y="56"/>
      <point x="87" y="32" type="qcurve"/>
      <point x="89" y="3"/>
      <point x="98" y="-33" type="qcurve"/>
    </contour>
    <contour>
      <point x="49" y="334" type="line"/>
      <point x="30" y="387" type="line"/>
      <point x="331" y="570" type="line"/>
      <point x="380" y="469" type="line"/>
    </contour>
    <contour>
      <point x="280" y="-34" type="move" name="mark0"/>
    </contour>
  </outline>
</glyph>
<glyph name="uni0C3D" format="1">
  <advance width="766"/>
  <unicode hex="0C3D"/>
  <outline>
    <contour>
      <point x="680" y="2" type="qcurve" name="hr00"/>
      <point x="575" y="0"/>
      <point x="387" y="25"/>
      <point x="236" y="49"/>
      <point x="128" y="57"/>
      <point x="105" y="39" type="qcurve"/>
      <point x="93" y="29"/>
      <point x="83" y="19"/>
      <point x="77" y="13"/>
      <point x="71" y="6"/>
      <point x="63" y="0" type="qcurve"/>
      <point x="52" y="3"/>
      <point x="31" y="36"/>
      <point x="25" y="77"/>
      <point x="40" y="119"/>
      <point x="65" y="131" type="qcurve"/>
      <point x="92" y="150"/>
      <point x="165" y="183"/>
      <point x="231" y="227"/>
      <point x="278" y="291"/>
      <point x="278" y="339" type="qcurve"/>
      <point x="278" y="352"/>
      <point x="265" y="370"/>
      <point x="248" y="381"/>
      <point x="227" y="385"/>
      <point x="218" y="385" type="qcurve"/>
      <point x="185" y="385"/>
      <point x="135" y="358"/>
      <point x="99" y="321"/>
      <point x="75" y="281"/>
      <point x="68" y="267" type="qcurve"/>
      <point x="66" y="267"/>
      <point x="48" y="293"/>
      <point x="37" y="308" type="qcurve"/>
      <point x="8" y="349" type="line"/>
      <point x="26" y="364"/>
      <point x="68" y="398"/>
      <point x="120" y="428"/>
      <point x="184" y="447"/>
      <point x="225" y="447" type="qcurve"/>
      <point x="283" y="447"/>
      <point x="352" y="424"/>
      <point x="388" y="387"/>
      <point x="397" y="341"/>
      <point x="395" y="319" type="qcurve"/>
      <point x="389" y="292"/>
      <point x="348" y="243"/>
      <point x="293" y="201"/>
      <point x="233" y="165"/>
      <point x="184" y="137"/>
      <point x="156" y="118"/>
      <point x="159" y="113" type="qcurve"/>
      <point x="158" y="106"/>
      <point x="189" y="99"/>
      <point x="241" y="97"/>
      <point x="304" y="97"/>
      <point x="365" y="99"/>
      <point x="415" y="101"/>
      <point x="427" y="102" type="qcurve"/>
      <point x="461" y="103"/>
      <point x="552" y="110"/>
      <point x="639" y="121"/>
      <point x="708" y="138"/>
      <point x="719" y="151" type="qcurve"/>
      <point x="711" y="113"/>
      <point x="701" y="56"/>
      <point x="695" y="19"/>
      <point x="687" y="2"/>
    </contour>
  </outline>
</glyph>
<glyph name="U0C3E" format="1">
  <advance width="956"/>
  <unicode hex="0C3E"/>
  <outline>
    <contour>
      <point x="640" y="370" type="qcurve" name="hr00"/>
      <point x="640" y="390"/>
      <point x="651" y="424"/>
      <point x="660" y="435" type="qcurve"/>
      <point x="658" y="442" type="line"/>
      <point x="606" y="435" type="line"/>
      <point x="0" y="435" type="line"/>
      <point x="0" y="501" type="line"/>
      <point x="731" y="501" type="line"/>
      <point x="791" y="501"/>
      <point x="876" y="424"/>
      <point x="876" y="370" type="qcurve"/>
      <point x="876" y="321"/>
      <point x="807" y="251"/>
      <point x="758" y="251" type="qcurve"/>
      <point x="709" y="251"/>
      <point x="640" y="321"/>
    </contour>
    <contour>
      <point x="693" y="370" type="qcurve"/>
      <point x="693" y="342"/>
      <point x="731" y="305"/>
      <point x="758" y="305" type="qcurve"/>
      <point x="785" y="305"/>
      <point x="824" y="342"/>
      <point x="824" y="370" type="qcurve"/>
      <point x="824" y="397"/>
      <point x="785" y="435"/>
      <point x="758" y="435" type="qcurve"/>
      <point x="731" y="435"/>
      <point x="693" y="397"/>
    </contour>
  </outline>
</glyph>
<glyph name="U0C3F" format="1">
  <advance width="0"/>
  <unicode hex="0C3F"/>
  <outline>
    <contour>
      <point x="-102" y="521" type="line"/>
      <point x="-78" y="506"/>
      <point x="-27" y="490"/>
      <point x="-2" y="490" type="qcurve"/>
      <point x="47" y="490"/>
      <point x="117" y="548"/>
      <point x="117" y="589" type="qcurve"/>
      <point x="110" y="591" type="line"/>
      <point x="95" y="571"/>
      <point x="42" y="550"/>
      <point x="8" y="550" type="qcurve"/>
      <point x="-55" y="550"/>
      <point x="-144" y="611"/>
      <point x="-144" y="654" type="qcurve"/>
      <point x="-144" y="701"/>
      <point x="-54" y="766"/>
      <point x="10" y="766" type="qcurve"/>
      <point x="82" y="755"/>
      <point x="178" y="666"/>
      <point x="178" y="608" type="qcurve"/>
      <point x="178" y="538"/>
      <point x="73" y="438"/>
      <point x="-2" y="438" type="qcurve"/>
      <point x="-41" y="438"/>
      <point x="-108" y="458"/>
      <point x="-133" y="478" type="qcurve"/>
    </contour>
    <contour>
      <point x="-78" y="661" type="qcurve"/>
      <point x="-78" y="634"/>
      <point x="-27" y="596"/>
      <point x="8" y="596" type="qcurve"/>
      <point x="40" y="596"/>
      <point x="85" y="630"/>
      <point x="85" y="654" type="qcurve"/>
      <point x="85" y="678"/>
      <point x="40" y="713"/>
      <point x="8" y="713" type="qcurve"/>
      <point x="-27" y="713"/>
      <point x="-78" y="682"/>
    </contour>
  </outline>
</glyph>
<glyph name="U0C40" format="1">
  <advance width="0"/>
  <unicode hex="0C40"/>
  <outline>
    <contour>
      <point x="-109" y="528" type="line"/>
      <point x="-89" y="513"/>
      <point x="-33" y="496"/>
      <point x="1" y="496" type="qcurve"/>
      <point x="46" y="496"/>
      <point x="110" y="550"/>
      <point x="110" y="589" type="qcurve"/>
      <point x="105" y="594" type="line"/>
      <point x="88" y="576"/>
      <point x="34" y="556"/>
      <point x="1" y="556" type="qcurve"/>
      <point x="-62" y="556"/>
      <point x="-151" y="618"/>
      <point x="-151" y="661" type="qcurve"/>
      <point x="-151" y="687"/>
      <point x="-113" y="732"/>
      <point x="-82" y="741" type="qcurve"/>
      <point x="-82" y="746" type="line"/>
      <point x="-106" y="754"/>
      <point x="-135" y="793"/>
      <point x="-135" y="818" type="qcurve"/>
      <point x="-135" y="861"/>
      <point x="-55" y="922"/>
      <point x="1" y="922" type="qcurve"/>
      <point x="63" y="922"/>
      <point x="149" y="851"/>
      <point x="144" y="804" type="qcurve"/>
      <point x="73" y="804" type="line" name="hr01"/>
      <point x="73" y="831"/>
      <point x="30" y="869"/>
      <point x="1" y="869" type="qcurve"/>
      <point x="-27" y="869"/>
      <point x="-67" y="839"/>
      <point x="-67" y="818" type="qcurve" name="hr02"/>
      <point x="-67" y="799"/>
      <point x="-26" y="768"/>
      <point x="4" y="764" type="qcurve"/>
      <point x="76" y="754"/>
      <point x="171" y="665"/>
      <point x="171" y="608" type="qcurve"/>
      <point x="171" y="538"/>
      <point x="71" y="438"/>
      <point x="1" y="438" type="qcurve"/>
      <point x="-32" y="438"/>
      <point x="-103" y="454"/>
      <point x="-140" y="470" type="qcurve"/>
    </contour>
    <contour>
      <point x="-85" y="661" type="qcurve"/>
      <point x="-85" y="639"/>
      <point x="-34" y="610"/>
      <point x="1" y="610" type="qcurve"/>
      <point x="33" y="610"/>
      <point x="78" y="639"/>
      <point x="78" y="661" type="qcurve"/>
      <point x="78" y="682"/>
      <point x="33" y="713"/>
      <point x="1" y="713" type="qcurve" name="hr03"/>
      <point x="-34" y="713"/>
      <point x="-85" y="682"/>
    </contour>
  </outline>
</glyph>
<glyph name="U0C41" format="1">
  <advance width="240"/>
  <unicode hex="0C41"/>
  <outline>
    <contour>
      <point x="-61" y="423" type="qcurve" name="hr00"/>
      <point x="77" y="423" type="line"/>
      <point x="120" y="355"/>
      <point x="133" y="284" type="qcurve"/>
      <point x="140" y="253"/>
      <point x="139" y="183"/>
      <point x="119" y="111"/>
      <point x="75" y="36"/>
      <point x="37" y="0" type="qcurve"/>
      <point x="-5" y="17"/>
      <point x="-86" y="31"/>
      <point x="-109" y="30" type="qcurve"/>
      <point x="-134" y="29"/>
      <point x="-185" y="26"/>
      <point x="-205" y="24" type="qcurve"/>
      <point x="-230" y="22"/>
      <point x="-253" y="19" type="qcurve"/>
      <point x="-240" y="35"/>
      <point x="-228" y="53" type="qcurve"/>
      <point x="-217" y="69"/>
      <point x="-191" y="106"/>
      <point x="-177" y="125" type="qcurve"/>
      <point x="-173" y="129"/>
      <point x="-130" y="122"/>
      <point x="-79" y="106"/>
      <point x="-32" y="87"/>
      <point x="-25" y="79" type="qcurve"/>
      <point x="-11" y="84"/>
      <point x="21" y="114"/>
      <point x="44" y="159"/>
      <point x="49" y="212"/>
      <point x="34" y="292"/>
      <point x="-15" y="376"/>
    </contour>
    <contour>
      <point x="-261" y="-23" type="move" name="mark0"/>
    </contour>
  </outline>
</glyph>
<glyph name="U0C42" format="1">
  <advance width="540"/>
  <unicode hex="0C42"/>
  <outline>
    <contour>
      <point x="440" y="289" type="qcurve" name="hr00"/>
      <point x="443" y="252"/>
      <point x="435" y="198"/>
      <point x="420" y="158"/>
      <point x="399" y="132"/>
      <point x="386" y="125" type="qcurve"/>
      <point x="359" y="106"/>
      <point x="321" y="109" type="qcurve"/>
      <point x="315" y="105"/>
      <point x="303" y="111" type="qcurve"/>
      <point x="293" y="115"/>
      <point x="257" y="140"/>
      <point x="230" y="167" type="qcurve"/>
      <point x="214" y="181"/>
      <point x="204" y="213"/>
      <point x="208" y="244"/>
      <point x="224" y="274"/>
      <point x="235" y="288" type="qcurve"/>
      <point x="259" y="319"/>
      <point x="301" y="350" type="qcurve"/>
      <point x="33" y="328" type="line"/>
      <point x="-52" y="423" type="line"/>
      <point x="285" y="423" type="line"/>
      <point x="315" y="423"/>
      <point x="368" y="396"/>
      <point x="410" y="356"/>
      <point x="437" y="309"/>
    </contour>
    <contour>
      <point x="367" y="197" type="qcurve"/>
      <point x="385" y="215"/>
      <point x="379" y="259"/>
      <point x="354" y="293"/>
      <point x="317" y="307"/>
      <point x="304" y="295" type="qcurve"/>
      <point x="289" y="276"/>
      <point x="294" y="230"/>
      <point x="319" y="196"/>
      <point x="354" y="182"/>
    </contour>
    <contour>
      <point x="-59" y="423" type="qcurve"/>
      <point x="79" y="423" type="line"/>
      <point x="122" y="355"/>
      <point x="135" y="284" type="qcurve"/>
      <point x="142" y="253"/>
      <point x="141" y="183"/>
      <point x="121" y="111"/>
      <point x="77" y="36"/>
      <point x="39" y="0" type="qcurve"/>
      <point x="19" y="8"/>
      <point x="-30" y="17"/>
      <point x="-75" y="23"/>
      <point x="-111" y="24"/>
      <point x="-121" y="24" type="qcurve"/>
      <point x="-145" y="24"/>
      <point x="-189" y="20"/>
      <point x="-206" y="18" type="qcurve"/>
      <point x="-224" y="15"/>
      <point x="-240" y="13" type="qcurve"/>
      <point x="-228" y="29"/>
      <point x="-216" y="47" type="qcurve"/>
      <point x="-205" y="62"/>
      <point x="-179" y="100"/>
      <point x="-165" y="119" type="qcurve"/>
      <point x="-160" y="123"/>
      <point x="-122" y="118"/>
      <point x="-73" y="104"/>
      <point x="-30" y="87"/>
      <point x="-23" y="79" type="qcurve"/>
      <point x="-9" y="84"/>
      <point x="23" y="114"/>
      <point x="46" y="159"/>
      <point x="54" y="219"/>
      <point x="36" y="292"/>
      <point x="-13" y="376"/>
    </contour>
  </outline>
</glyph>
<glyph name="U0C43" format="1">
  <advance width="190"/>
  <unicode hex="0C43"/>
  <outline>
    <contour>
      <point x="-40" y="233" type="line" name="hr00"/>
      <point x="-17" y="230"/>
      <point x="35" y="209"/>
      <point x="84" y="168"/>
      <point x="124" y="105"/>
      <point x="134" y="62" type="qcurve"/>
      <point x="145" y="9"/>
      <point x="134" y="-76"/>
      <point x="100" y="-141"/>
      <point x="49" y="-186"/>
      <point x="-6" y="-215"/>
      <point x="-58" y="-226"/>
      <point x="-76" y="-224" type="qcurve"/>
      <point x="-97" y="-222"/>
      <point x="-139" y="-201"/>
      <point x="-172" y="-169"/>
      <point x="-191" y="-130"/>
      <point x="-189" y="-91"/>
      <point x="-159" y="-55"/>
      <point x="-127" y="-42" type="qcurve"/>
      <point x="-101" y="-32"/>
      <point x="-65" y="-33"/>
      <point x="-42" y="-47"/>
      <point x="-27" y="-73"/>
      <point x="-23" y="-87" type="qcurve"/>
      <point x="-15" y="-121"/>
      <point x="-20" y="-171" type="qcurve"/>
      <point x="14" y="-155"/>
      <point x="54" y="-103"/>
      <point x="70" y="-41"/>
      <point x="65" y="28"/>
      <point x="53" y="60" type="qcurve"/>
      <point x="46" y="76"/>
      <point x="25" y="99"/>
      <point x="1" y="116"/>
      <point x="-20" y="125"/>
      <point x="-25" y="125" type="qcurve"/>
    </contour>
    <contour>
      <point x="-66" y="-164" type="qcurve"/>
      <point x="-58" y="-167"/>
      <point x="-60" y="-133"/>
      <point x="-67" y="-122" type="qcurve"/>
      <point x="-80" y="-104"/>
      <point x="-108" y="-102"/>
      <point x="-120" y="-113" type="qcurve"/>
      <point x="-131" y="-121"/>
      <point x="-125" y="-144"/>
      <point x="-104" y="-163"/>
      <point x="-77" y="-171"/>
    </contour>
    <contour>
      <point x="-272" y="16" type="move" name="_mark0"/>
    </contour>
    <contour>
      <point x="-267" y="161" type="move" name="mark0"/>
    </contour>
  </outline>
</glyph>
<glyph name="U0C44" format="1">
  <advance width="387"/>
  <unicode hex="0C44"/>
  <outline>
    <contour>
      <point x="327" y="52" type="qcurve"/>
      <point x="333" y="-15"/>
      <point x="300" y="-85"/>
      <point x="279" y="-99" type="qcurve"/>
      <point x="252" y="-117"/>
      <point x="218" y="-115" type="qcurve"/>
      <point x="209" y="-113"/>
      <point x="197" y="-106" type="qcurve"/>
      <point x="185" y="-101"/>
      <point x="154" y="-80"/>
      <point x="133" y="-59" type="qcurve"/>
      <point x="103" y="-33"/>
      <point x="111" y="24"/>
      <point x="127" y="47" type="qcurve"/>
      <point x="145" y="74"/>
      <point x="179" y="98" type="qcurve"/>
      <point x="54" y="98" type="line"/>
      <point x="69" y="74"/>
      <point x="86" y="6"/>
      <point x="84" y="-33" type="qcurve" name="hr01"/>
      <point x="82" y="-95"/>
      <point x="48" y="-178"/>
      <point x="-4" y="-229"/>
      <point x="-68" y="-256"/>
      <point x="-130" y="-266"/>
      <point x="-185" y="-266"/>
      <point x="-203" y="-266" type="qcurve"/>
      <point x="-227" y="-266"/>
      <point x="-264" y="-238"/>
      <point x="-286" y="-194"/>
      <point x="-290" y="-141"/>
      <point x="-272" y="-95"/>
      <point x="-229" y="-62"/>
      <point x="-195" y="-59" type="qcurve"/>
      <point x="-168" y="-57"/>
      <point x="-133" y="-68"/>
      <point x="-114" y="-88"/>
      <point x="-106" y="-116"/>
      <point x="-108" y="-131" type="qcurve"/>
      <point x="-110" y="-166"/>
      <point x="-129" y="-213" type="qcurve"/>
      <point x="-87" y="-208"/>
      <point x="-31" y="-171"/>
      <point x="0" y="-116"/>
      <point x="8" y="-47"/>
      <point x="2" y="-10" type="qcurve"/>
      <point x="-3" y="23"/>
      <point x="-31" y="62"/>
      <point x="-50" y="72" type="qcurve"/>
      <point x="-34" y="183" type="line"/>
      <point x="-6" y="182"/>
      <point x="56" y="180"/>
      <point x="117" y="178"/>
      <point x="168" y="177"/>
      <point x="185" y="177" type="qcurve" name="hr02"/>
      <point x="212" y="177"/>
      <point x="261" y="152"/>
      <point x="299" y="115"/>
      <point x="324" y="71"/>
    </contour>
    <contour>
      <point x="-172" y="-194" type="qcurve"/>
      <point x="-160" y="-190"/>
      <point x="-155" y="-171"/>
      <point x="-165" y="-153"/>
      <point x="-186" y="-141"/>
      <point x="-202" y="-147" type="qcurve"/>
      <point x="-214" y="-153"/>
      <point x="-217" y="-171"/>
      <point x="-206" y="-187"/>
      <point x="-184" y="-197"/>
    </contour>
    <contour>
      <point x="261" y="-33" type="qcurve"/>
      <point x="276" y="-15"/>
      <point x="270" y="25"/>
      <point x="247" y="54"/>
      <point x="215" y="67"/>
      <point x="205" y="55" type="qcurve"/>
      <point x="189" y="40"/>
      <point x="194" y="-2"/>
      <point x="216" y="-34"/>
      <point x="249" y="-46"/>
    </contour>
    <contour>
      <point x="-431" y="-107" type="move" name="_mark0"/>
    </contour>
    <contour>
      <point x="-356" y="193" type="move" name="mark0"/>
    </contour>
  </outline>
</glyph>
<glyph name="U0C46" format="1">
  <advance width="0"/>
  <unicode hex="0C46"/>
  <outline>
    <contour>
      <point x="-334" y="659" type="line"/>
      <point x="49" y="659" type="line"/>
      <point x="94" y="659"/>
      <point x="159" y="595"/>
      <point x="159" y="550" type="qcurve"/>
      <point x="159" y="503"/>
      <point x="92" y="437"/>
      <point x="45" y="437" type="qcurve"/>
      <point x="-78" y="437" type="line" name="hr01"/>
      <point x="-78" y="503" type="line"/>
      <point x="54" y="503" type="line"/>
      <point x="70" y="503"/>
      <point x="94" y="530"/>
      <point x="94" y="550" type="qcurve"/>
      <point x="94" y="568"/>
      <point x="70" y="594"/>
      <point x="53" y="594" type="qcurve"/>
      <point x="-334" y="594" type="line"/>
    </contour>
  </outline>
</glyph>
<glyph name="U0C47" format="1">
  <advance width="0"/>
  <unicode hex="0C47"/>
  <outline>
    <contour>
      <point x="-334" y="657" type="line"/>
      <point x="-61" y="657" type="line"/>
      <point x="-26" y="653" type="line"/>
      <point x="-23" y="657" type="line"/>
      <point x="-35" y="669"/>
      <point x="-49" y="700"/>
      <point x="-49" y="717" type="qcurve"/>
      <point x="-49" y="758"/>
      <point x="12" y="814"/>
      <point x="54" y="814" type="qcurve"/>
      <point x="100" y="814"/>
      <point x="165" y="745"/>
      <point x="165" y="696" type="qcurve"/>
      <point x="112" y="696" type="line"/>
      <point x="112" y="723"/>
      <point x="82" y="762"/>
      <point x="62" y="762" type="qcurve"/>
      <point x="40" y="762"/>
      <point x="10" y="731"/>
      <point x="10" y="710" type="qcurve"/>
      <point x="10" y="695"/>
      <point x="41" y="666"/>
      <point x="66" y="657" type="qcurve"/>
      <point x="108" y="642"/>
      <point x="159" y="581"/>
      <point x="159" y="546" type="qcurve"/>
      <point x="159" y="500"/>
      <point x="92" y="435"/>
      <point x="45" y="435" type="qcurve" name="hr01"/>
      <point x="-154" y="435" type="line"/>
      <point x="-154" y="501" type="line"/>
      <point x="54" y="501" type="line"/>
      <point x="70" y="501"/>
      <point x="94" y="527"/>
      <point x="94" y="546" type="qcurve"/>
      <point x="94" y="565"/>
      <point x="70" y="591"/>
      <point x="53" y="591" type="qcurve"/>
      <point x="-334" y="591" type="line"/>
    </contour>
  </outline>
</glyph>
<glyph name="U0C48" format="1">
  <advance width="734"/>
  <unicode hex="0C48"/>
  <outline>
    <contour>
      <point x="173" y="659" type="line"/>
      <point x="556" y="659" type="line"/>
      <point x="602" y="659"/>
      <point x="666" y="595"/>
      <point x="666" y="550" type="qcurve"/>
      <point x="666" y="503"/>
      <point x="599" y="437"/>
      <point x="552" y="437" type="qcurve"/>
      <point x="428" y="437" type="line"/>
      <point x="428" y="503" type="line"/>
      <point x="562" y="503" type="line"/>
      <point x="578" y="503"/>
      <point x="601" y="530"/>
      <point x="601" y="550" type="qcurve"/>
      <point x="601" y="568"/>
      <point x="577" y="594"/>
      <point x="560" y="594" type="qcurve"/>
      <point x="173" y="594" type="line"/>
    </contour>
    <contour>
      <point x="120" y="-163" type="qcurve"/>
      <point x="120" y="-190"/>
      <point x="158" y="-229"/>
      <point x="185" y="-229" type="qcurve"/>
      <point x="212" y="-229"/>
      <point x="250" y="-190"/>
      <point x="250" y="-163" type="qcurve"/>
      <point x="250" y="-136"/>
      <point x="212" y="-98"/>
      <point x="185" y="-98" type="qcurve"/>
      <point x="158" y="-98"/>
      <point x="120" y="-136"/>
    </contour>
    <contour>
      <point x="68" y="-163" type="qcurve"/>
      <point x="68" y="-115"/>
      <point x="137" y="-46"/>
      <point x="185" y="-46" type="qcurve"/>
      <point x="234" y="-46"/>
      <point x="303" y="-115"/>
      <point x="303" y="-163" type="qcurve"/>
      <point x="303" y="-178"/>
      <point x="288" y="-212"/>
      <point x="274" y="-229" type="qcurve"/>
      <point x="276" y="-234" type="line"/>
      <point x="332" y="-229" type="line"/>
      <point x="632" y="-229" type="line"/>
      <point x="632" y="-295" type="line"/>
      <point x="197" y="-295" type="line" name="hr01"/>
      <point x="143" y="-295"/>
      <point x="68" y="-218"/>
    </contour>
  </outline>
</glyph>
<glyph name="U0C4A" format="1">
  <advance width="580"/>
  <unicode hex="0C4A"/>
  <outline>
    <contour>
      <point x="346" y="562" type="qcurve" name="hr04"/>
      <point x="346" y="582"/>
      <point x="356" y="617"/>
      <point x="366" y="628" type="qcurve" name="hr01"/>
      <point x="363" y="632" type="line" name="hr02"/>
      <point x="329" y="628" type="line"/>
      <point x="278" y="628" type="line"/>
      <point x="236" y="628"/>
      <point x="175" y="589"/>
      <point x="175" y="562" type="qcurve"/>
      <point x="114" y="562" type="line"/>
      <point x="114" y="589"/>
      <point x="40" y="628"/>
      <point x="-12" y="628" type="qcurve"/>
      <point x="-65" y="628"/>
      <point x="-139" y="588"/>
      <point x="-139" y="559" type="qcurve"/>
      <point x="-139" y="530"/>
      <point x="-88" y="490"/>
      <point x="-52" y="490" type="qcurve"/>
      <point x="10" y="490" type="line"/>
      <point x="10" y="435" type="line"/>
      <point x="-52" y="435" type="line"/>
      <point x="-115" y="435"/>
      <point x="-204" y="507"/>
      <point x="-204" y="558" type="qcurve"/>
      <point x="-204" y="614"/>
      <point x="-91" y="694"/>
      <point x="-12" y="694" type="qcurve"/>
      <point x="42" y="694"/>
      <point x="123" y="669"/>
      <point x="142" y="646" type="qcurve"/>
      <point x="148" y="646" type="line"/>
      <point x="167" y="669"/>
      <point x="235" y="694"/>
      <point x="278" y="694" type="qcurve"/>
      <point x="462" y="694" type="line"/>
      <point x="511" y="694"/>
      <point x="581" y="616"/>
      <point x="581" y="562" type="qcurve" name="hr03"/>
      <point x="581" y="514"/>
      <point x="511" y="445"/>
      <point x="462" y="445" type="qcurve"/>
      <point x="414" y="445"/>
      <point x="346" y="514"/>
    </contour>
    <contour>
      <point x="397" y="562" type="qcurve"/>
      <point x="397" y="534"/>
      <point x="435" y="496"/>
      <point x="462" y="496" type="qcurve"/>
      <point x="490" y="496"/>
      <point x="529" y="534"/>
      <point x="529" y="562" type="qcurve"/>
      <point x="529" y="589"/>
      <point x="490" y="628"/>
      <point x="462" y="628" type="qcurve"/>
      <point x="435" y="628"/>
      <point x="397" y="589"/>
    </contour>
  </outline>
</glyph>
<glyph name="U0C4B" format="1">
  <advance width="577"/>
  <unicode hex="0C4B"/>
  <outline>
    <contour>
      <point x="342" y="562" type="qcurve"/>
      <point x="342" y="582"/>
      <point x="353" y="616"/>
      <point x="363" y="628" type="qcurve" name="hr01"/>
      <point x="360" y="632" type="line" name="hr02"/>
      <point x="321" y="628" type="line"/>
      <point x="276" y="628" type="line"/>
      <point x="234" y="628"/>
      <point x="173" y="589"/>
      <point x="173" y="562" type="qcurve"/>
      <point x="111" y="562" type="line"/>
      <point x="111" y="589"/>
      <point x="42" y="628"/>
      <point x="-7" y="628" type="qcurve"/>
      <point x="-60" y="628"/>
      <point x="-134" y="586"/>
      <point x="-134" y="555" type="qcurve"/>
      <point x="-134" y="528"/>
      <point x="-87" y="490"/>
      <point x="-54" y="490" type="qcurve"/>
      <point x="14" y="490" type="line"/>
      <point x="14" y="435" type="line" name="hr03"/>
      <point x="-54" y="435" type="line"/>
      <point x="-114" y="435"/>
      <point x="-200" y="506"/>
      <point x="-200" y="555" type="qcurve"/>
      <point x="-200" y="613"/>
      <point x="-87" y="694"/>
      <point x="-8" y="694" type="qcurve"/>
      <point x="44" y="694"/>
      <point x="123" y="669"/>
      <point x="142" y="646" type="qcurve"/>
      <point x="162" y="669"/>
      <point x="206" y="694"/>
      <point x="227" y="694" type="qcurve"/>
      <point x="346" y="694" type="line"/>
      <point x="379" y="690" type="line"/>
      <point x="382" y="694" type="line"/>
      <point x="370" y="704"/>
      <point x="356" y="738"/>
      <point x="356" y="759" type="qcurve"/>
      <point x="356" y="797"/>
      <point x="421" y="850"/>
      <point x="466" y="850" type="qcurve"/>
      <point x="512" y="850"/>
      <point x="574" y="779"/>
      <point x="570" y="732" type="qcurve"/>
      <point x="517" y="732" type="line"/>
      <point x="519" y="758"/>
      <point x="489" y="798"/>
      <point x="466" y="798" type="qcurve"/>
      <point x="445" y="798"/>
      <point x="414" y="771"/>
      <point x="414" y="752" type="qcurve"/>
      <point x="414" y="730"/>
      <point x="442" y="696"/>
      <point x="462" y="692" type="qcurve"/>
      <point x="512" y="683"/>
      <point x="578" y="610"/>
      <point x="578" y="562" type="qcurve"/>
      <point x="578" y="514"/>
      <point x="508" y="445"/>
      <point x="459" y="445" type="qcurve"/>
      <point x="411" y="445"/>
      <point x="342" y="514"/>
    </contour>
    <contour>
      <point x="394" y="562" type="qcurve"/>
      <point x="394" y="534"/>
      <point x="432" y="496"/>
      <point x="459" y="496" type="qcurve"/>
      <point x="487" y="496"/>
      <point x="526" y="534"/>
      <point x="526" y="562" type="qcurve"/>
      <point x="526" y="589"/>
      <point x="487" y="628"/>
      <point x="459" y="628" type="qcurve" name="hr04"/>
      <point x="432" y="628"/>
      <point x="394" y="589"/>
    </contour>
  </outline>
</glyph>
<glyph name="U0C4C" format="1">
  <advance width="614"/>
  <unicode hex="0C4C"/>
  <outline>
    <contour>
      <point x="-192" y="657" type="line"/>
      <point x="470" y="657" type="line"/>
      <point x="530" y="657"/>
      <point x="614" y="581"/>
      <point x="614" y="526" type="qcurve"/>
      <point x="614" y="478"/>
      <point x="545" y="410"/>
      <point x="496" y="410" type="qcurve"/>
      <point x="445" y="410"/>
      <point x="373" y="478"/>
      <point x="373" y="526" type="qcurve"/>
      <point x="373" y="549"/>
      <point x="386" y="583"/>
      <point x="397" y="591" type="qcurve"/>
      <point x="394" y="596" type="line"/>
      <point x="350" y="591" type="line"/>
      <point x="265" y="591" type="line" name="hr01"/>
      <point x="230" y="596" type="line"/>
      <point x="227" y="591" type="line"/>
      <point x="238" y="582"/>
      <point x="249" y="559"/>
      <point x="249" y="546" type="qcurve"/>
      <point x="249" y="500"/>
      <point x="188" y="435"/>
      <point x="146" y="435" type="qcurve"/>
      <point x="-42" y="435" type="line"/>
      <point x="-42" y="501" type="line"/>
      <point x="144" y="501" type="line"/>
      <point x="160" y="501"/>
      <point x="183" y="527"/>
      <point x="183" y="546" type="qcurve"/>
      <point x="183" y="565"/>
      <point x="159" y="591"/>
      <point x="142" y="591" type="qcurve"/>
      <point x="-192" y="591" type="line"/>
    </contour>
    <contour>
      <point x="431" y="526" type="qcurve"/>
      <point x="431" y="499"/>
      <point x="469" y="461"/>
      <point x="496" y="461" type="qcurve"/>
      <point x="523" y="461"/>
      <point x="562" y="499"/>
      <point x="562" y="526" type="qcurve"/>
      <point x="562" y="554"/>
      <point x="523" y="591"/>
      <point x="496" y="591" type="qcurve" name="hr02"/>
      <point x="469" y="591"/>
      <point x="431" y="554"/>
    </contour>
  </outline>
</glyph>
<glyph name="U0C4D" format="1">
  <advance width="0"/>
  <unicode hex="0C4D"/>
  <outline>
    <contour>
      <point x="235" y="445" type="line"/>
      <point x="130" y="445" type="line"/>
      <point x="86" y="453"/>
      <point x="27" y="512"/>
      <point x="27" y="550" type="qcurve" name="hr01"/>
      <point x="27" y="573"/>
      <point x="49" y="613"/>
      <point x="68" y="624" type="qcurve"/>
      <point x="68" y="628" type="line" name="hr02"/>
      <point x="49" y="642"/>
      <point x="27" y="683"/>
      <point x="27" y="706" type="qcurve"/>
      <point x="27" y="754"/>
      <point x="97" y="824"/>
      <point x="146" y="824" type="qcurve"/>
      <point x="441" y="824" type="line" name="hr03"/>
      <point x="441" y="759" type="line"/>
      <point x="147" y="759" type="line"/>
      <point x="125" y="759"/>
      <point x="93" y="728"/>
      <point x="93" y="706" type="qcurve"/>
      <point x="93" y="684"/>
      <point x="116" y="654"/>
      <point x="132" y="654" type="qcurve"/>
      <point x="274" y="654" type="line"/>
      <point x="274" y="589" type="line"/>
      <point x="134" y="589" type="line"/>
      <point x="117" y="589"/>
      <point x="93" y="566"/>
      <point x="93" y="550" type="qcurve"/>
      <point x="93" y="533"/>
      <point x="116" y="510"/>
      <point x="132" y="510" type="qcurve"/>
      <point x="235" y="510" type="line"/>
    </contour>
  </outline>
</glyph>
<glyph name="U0C55" format="1">
  <advance width="387"/>
  <unicode hex="0C55"/>
  <outline>
    <contour>
      <point x="114" y="474" type="line" name="hr00"/>
      <point x="92" y="492"/>
      <point x="68" y="546"/>
      <point x="68" y="575" type="qcurve"/>
      <point x="68" y="618"/>
      <point x="144" y="680"/>
      <point x="198" y="680" type="qcurve"/>
      <point x="238" y="680"/>
      <point x="304" y="629"/>
      <point x="319" y="586" type="qcurve"/>
      <point x="262" y="562" type="line"/>
      <point x="248" y="586"/>
      <point x="214" y="614"/>
      <point x="198" y="614" type="qcurve"/>
      <point x="171" y="614"/>
      <point x="134" y="583"/>
      <point x="134" y="562" type="qcurve"/>
      <point x="134" y="542"/>
      <point x="158" y="502"/>
      <point x="181" y="482" type="qcurve"/>
    </contour>
  </outline>
</glyph>
<glyph name="U0C56" format="1">
  <advance width="0"/>
  <unicode hex="0C56"/>
  <outline>
    <contour>
      <point x="-526" y="-233" type="qcurve" name="hr00"/>
      <point x="-557" y="-232"/>
      <point x="-605" y="-207"/>
      <point x="-634" y="-169"/>
      <point x="-642" y="-124"/>
      <point x="-623" y="-83"/>
      <point x="-574" y="-52"/>
      <point x="-532" y="-47" type="qcurve"/>
      <point x="-508" y="-44"/>
      <point x="-473" y="-51"/>
      <point x="-450" y="-67"/>
      <point x="-437" y="-89"/>
      <point x="-434" y="-101" type="qcurve"/>
      <point x="-428" y="-130"/>
      <point x="-437" y="-168" type="qcurve"/>
      <point x="-178" y="-145" type="line"/>
      <point x="-178" y="-230" type="line"/>
      <point x="-260" y="-230"/>
      <point x="-331" y="-231" type="qcurve"/>
      <point x="-360" y="-231"/>
      <point x="-421" y="-232"/>
      <point x="-474" y="-233"/>
      <point x="-516" y="-233"/>
    </contour>
    <contour>
      <point x="-546" y="-109" type="qcurve"/>
      <point x="-562" y="-115"/>
      <point x="-570" y="-139"/>
      <point x="-558" y="-158"/>
      <point x="-525" y="-167"/>
      <point x="-500" y="-158" type="qcurve"/>
      <point x="-493" y="-155"/>
      <point x="-494" y="-135"/>
      <point x="-508" y="-115"/>
      <point x="-531" y="-103"/>
    </contour>
    <contour>
      <point x="-348" y="-55" type="move" name="_mark0"/>
    </contour>
    <contour>
      <point x="-347" y="-29" type="move" name="_mark0"/>
    </contour>
  </outline>
</glyph>
<glyph name="U0C58" format="1">
  <advance width="720"/>
  <unicode hex="0C58"/>
  <outline>
    <contour>
      <point x="165" y="403" type="line" name="hr00"/>
      <point x="482" y="535" type="line"/>
      <point x="496" y="420" type="line"/>
      <point x="168" y="347" type="line"/>
    </contour>
    <contour>
      <point x="16" y="282" type="line"/>
      <point x="259" y="295" type="line"/>
      <point x="250" y="281"/>
      <point x="241" y="262" type="qcurve"/>
      <point x="232" y="247"/>
      <point x="214" y="202"/>
      <point x="207" y="174" type="qcurve"/>
      <point x="200" y="145"/>
      <point x="215" y="131"/>
      <point x="243" y="139"/>
      <point x="270" y="157"/>
      <point x="275" y="161" type="qcurve"/>
      <point x="300" y="178"/>
      <point x="326" y="181"/>
      <point x="338" y="167" type="qcurve"/>
      <point x="345" y="158"/>
      <point x="372" y="126"/>
      <point x="406" y="99"/>
      <point x="441" y="86"/>
      <point x="459" y="95" type="qcurve"/>
      <point x="487" y="119"/>
      <point x="498" y="189"/>
      <point x="476" y="261"/>
      <point x="428" y="323"/>
      <point x="397" y="338" type="qcurve"/>
      <point x="374" y="350"/>
      <point x="303" y="358"/>
      <point x="270" y="358" type="qcurve"/>
      <point x="231" y="358"/>
      <point x="190" y="354" type="qcurve"/>
      <point x="191" y="357"/>
      <point x="191" y="364" type="qcurve"/>
      <point x="191" y="369"/>
      <point x="189" y="388"/>
      <point x="187" y="403" type="qcurve"/>
      <point x="194" y="409"/>
      <point x="255" y="411"/>
      <point x="340" y="399"/>
      <point x="435" y="373"/>
      <point x="516" y="330"/>
      <point x="569" y="268"/>
      <point x="570" y="226" type="qcurve"/>
      <point x="571" y="165"/>
      <point x="530" y="80"/>
      <point x="475" y="26"/>
      <point x="420" y="1"/>
      <point x="407" y="0" type="qcurve"/>
      <point x="376" y="-4"/>
      <point x="332" y="19"/>
      <point x="299" y="51"/>
      <point x="272" y="82"/>
      <point x="259" y="85" type="qcurve"/>
      <point x="237" y="93"/>
      <point x="167" y="43"/>
      <point x="112" y="-6" type="qcurve"/>
      <point x="94" y="38"/>
      <point x="98" y="114"/>
      <point x="108" y="142" type="qcurve"/>
      <point x="119" y="176"/>
      <point x="138" y="203" type="qcurve"/>
      <point x="0" y="170" type="line"/>
    </contour>
    <contour>
      <point x="385" y="557" type="qcurve"/>
      <point x="355" y="553"/>
      <point x="255" y="554"/>
      <point x="145" y="560"/>
      <point x="44" y="567"/>
      <point x="15" y="569" type="qcurve"/>
      <point x="15" y="591"/>
      <point x="24" y="628"/>
      <point x="32" y="655" type="qcurve"/>
      <point x="59" y="651"/>
      <point x="134" y="635"/>
      <point x="208" y="620"/>
      <point x="273" y="608"/>
      <point x="293" y="609" type="qcurve"/>
      <point x="285" y="621"/>
      <point x="280" y="658"/>
      <point x="291" y="686" type="qcurve"/>
      <point x="299" y="708"/>
      <point x="359" y="741"/>
      <point x="393" y="743" type="qcurve"/>
      <point x="413" y="744"/>
      <point x="449" y="731"/>
      <point x="473" y="705"/>
      <point x="485" y="670"/>
      <point x="482" y="649" type="qcurve"/>
      <point x="479" y="636"/>
      <point x="467" y="607"/>
      <point x="445" y="582"/>
      <point x="411" y="561"/>
    </contour>
    <contour>
      <point x="362" y="678" type="qcurve"/>
      <point x="347" y="669"/>
      <point x="338" y="648"/>
      <point x="343" y="631"/>
      <point x="356" y="618"/>
      <point x="362" y="617" type="qcurve"/>
      <point x="371" y="615"/>
      <point x="389" y="620"/>
      <point x="406" y="628"/>
      <point x="418" y="639"/>
      <point x="420" y="643" type="qcurve"/>
      <point x="425" y="657"/>
      <point x="418" y="679"/>
      <point x="400" y="689"/>
      <point x="375" y="687"/>
    </contour>
  </outline>
</glyph>
<glyph name="uni0C59" format="1">
  <advance width="723"/>
  <unicode hex="0C59"/>
  <outline>
    <contour>
      <point x="375" y="512" type="qcurve"/>
      <point x="506" y="502" type="line"/>
      <point x="512" y="451"/>
      <point x="509" y="407" type="qcurve"/>
      <point x="507" y="388"/>
      <point x="501" y="349"/>
      <point x="486" y="314"/>
      <point x="466" y="287"/>
      <point x="451" y="280" type="qcurve"/>
      <point x="419" y="263"/>
      <point x="359" y="267"/>
      <point x="309" y="292"/>
      <point x="271" y="327"/>
      <point x="260" y="341" type="qcurve"/>
      <point x="248" y="355"/>
      <point x="254" y="391"/>
      <point x="262" y="409" type="qcurve"/>
      <point x="272" y="428"/>
      <point x="290" y="450" type="qcurve"/>
      <point x="292" y="435"/>
      <point x="297" y="422" type="qcurve"/>
      <point x="302" y="411"/>
      <point x="319" y="384"/>
      <point x="336" y="374" type="qcurve"/>
      <point x="348" y="366"/>
      <point x="373" y="349"/>
      <point x="395" y="340"/>
      <point x="413" y="339"/>
      <point x="418" y="345" type="qcurve"/>
      <point x="425" y="355"/>
      <point x="421" y="395"/>
      <point x="407" y="441"/>
      <point x="385" y="490"/>
    </contour>
    <contour>
      <point x="621" y="259" type="line"/>
      <point x="623" y="209"/>
      <point x="616" y="166" type="qcurve"/>
      <point x="610" y="129"/>
      <point x="579" y="56"/>
      <point x="543" y="40" type="qcurve"/>
      <point x="512" y="27"/>
      <point x="444" y="5"/>
      <point x="372" y="6"/>
      <point x="293" y="39"/>
      <point x="251" y="79" type="qcurve"/>
      <point x="234" y="78"/>
      <point x="184" y="54"/>
      <point x="135" y="26"/>
      <point x="97" y="2"/>
      <point x="93" y="1" type="qcurve"/>
      <point x="90" y="-1"/>
      <point x="79" y="36"/>
      <point x="72" y="90"/>
      <point x="74" y="153"/>
      <point x="84" y="177" type="qcurve"/>
      <point x="92" y="198"/>
      <point x="118" y="230"/>
      <point x="130" y="243" type="qcurve"/>
      <point x="143" y="257"/>
      <point x="159" y="269" type="qcurve"/>
      <point x="109" y="263"/>
      <point x="72" y="273" type="qcurve"/>
      <point x="56" y="278"/>
      <point x="27" y="294"/>
      <point x="6" y="322"/>
      <point x="-3" y="361"/>
      <point x="2" y="390" type="qcurve"/>
      <point x="7" y="421"/>
      <point x="45" y="464"/>
      <point x="98" y="492"/>
      <point x="159" y="506"/>
      <point x="212" y="510"/>
      <point x="251" y="504"/>
      <point x="257" y="499" type="qcurve"/>
      <point x="266" y="492"/>
      <point x="282" y="476"/>
      <point x="291" y="455"/>
      <point x="289" y="424"/>
      <point x="281" y="400" type="qcurve"/>
      <point x="271" y="377"/>
      <point x="242" y="322"/>
      <point x="211" y="269"/>
      <point x="187" y="223"/>
      <point x="185" y="210" type="qcurve"/>
      <point x="181" y="197"/>
      <point x="174" y="168"/>
      <point x="171" y="143"/>
      <point x="174" y="128"/>
      <point x="182" y="128" type="qcurve"/>
      <point x="189" y="128"/>
      <point x="224" y="147"/>
      <point x="263" y="172"/>
      <point x="297" y="193"/>
      <point x="303" y="194" type="qcurve"/>
      <point x="308" y="197"/>
      <point x="325" y="183"/>
      <point x="344" y="162"/>
      <point x="366" y="136"/>
      <point x="375" y="125" type="qcurve"/>
      <point x="384" y="114"/>
      <point x="412" y="86"/>
      <point x="446" y="68"/>
      <point x="487" y="66"/>
      <point x="510" y="79" type="qcurve"/>
      <point x="520" y="85"/>
      <point x="532" y="133"/>
      <point x="526" y="190"/>
      <point x="501" y="246"/>
      <point x="473" y="259" type="qcurve"/>
    </contour>
    <contour>
      <point x="100" y="361" type="qcurve"/>
      <point x="102" y="346"/>
      <point x="132" y="329"/>
      <point x="150" y="324" type="qcurve"/>
      <point x="169" y="318"/>
      <point x="195" y="315" type="qcurve"/>
      <point x="198" y="327"/>
      <point x="201" y="339" type="qcurve"/>
      <point x="203" y="350"/>
      <point x="204" y="380"/>
      <point x="199" y="397" type="qcurve"/>
      <point x="195" y="413"/>
      <point x="167" y="429"/>
      <point x="152" y="432" type="qcurve"/>
      <point x="133" y="436"/>
      <point x="113" y="436" type="qcurve"/>
      <point x="105" y="432"/>
      <point x="101" y="422" type="qcurve"/>
      <point x="97" y="414"/>
      <point x="95" y="385"/>
    </contour>
    <contour>
      <point x="385" y="557" type="qcurve"/>
      <point x="355" y="553"/>
      <point x="255" y="554"/>
      <point x="145" y="560"/>
      <point x="44" y="567"/>
      <point x="15" y="569" type="qcurve"/>
      <point x="15" y="591"/>
      <point x="24" y="628"/>
      <point x="32" y="655" type="qcurve"/>
      <point x="59" y="651"/>
      <point x="134" y="635"/>
      <point x="208" y="620"/>
      <point x="273" y="608"/>
      <point x="293" y="609" type="qcurve"/>
      <point x="285" y="621"/>
      <point x="280" y="658"/>
      <point x="291" y="686" type="qcurve"/>
      <point x="299" y="708"/>
      <point x="359" y="741"/>
      <point x="393" y="743" type="qcurve"/>
      <point x="413" y="744"/>
      <point x="449" y="731"/>
      <point x="473" y="705"/>
      <point x="485" y="670"/>
      <point x="482" y="649" type="qcurve"/>
      <point x="479" y="636"/>
      <point x="467" y="607"/>
      <point x="445" y="582"/>
      <point x="411" y="561"/>
    </contour>
    <contour>
      <point x="362" y="678" type="qcurve"/>
      <point x="347" y="669"/>
      <point x="338" y="648"/>
      <point x="343" y="631"/>
      <point x="356" y="618"/>
      <point x="362" y="617" type="qcurve"/>
      <point x="371" y="615"/>
      <point x="389" y="620"/>
      <point x="406" y="628"/>
      <point x="418" y="639"/>
      <point x="420" y="643" type="qcurve"/>
      <point x="425" y="657"/>
      <point x="418" y="679"/>
      <point x="400" y="689"/>
      <point x="375" y="687"/>
    </contour>
  </outline>
</glyph>
<glyph name="U0C60" format="1">
  <advance width="1414"/>
  <unicode hex="0C60"/>
  <outline>
    <contour>
      <point x="1318" y="300" type="qcurve"/>
      <point x="1322" y="263"/>
      <point x="1316" y="209"/>
      <point x="1300" y="169"/>
      <point x="1279" y="143"/>
      <point x="1268" y="136" type="qcurve"/>
      <point x="1240" y="118"/>
      <point x="1203" y="120" type="qcurve"/>
      <point x="1196" y="117"/>
      <point x="1184" y="122" type="qcurve"/>
      <point x="1172" y="127"/>
      <point x="1137" y="152"/>
      <point x="1109" y="179" type="qcurve"/>
      <point x="1094" y="195"/>
      <point x="1083" y="226"/>
      <point x="1087" y="258"/>
      <point x="1103" y="288"/>
      <point x="1114" y="301" type="qcurve"/>
      <point x="1139" y="333"/>
      <point x="1181" y="362" type="qcurve"/>
      <point x="901" y="346" type="line"/>
      <point x="830" y="438" type="line"/>
      <point x="1167" y="438" type="line"/>
      <point x="1197" y="438"/>
      <point x="1250" y="412"/>
      <point x="1291" y="371"/>
      <point x="1317" y="323"/>
    </contour>
    <contour>
      <point x="1249" y="209" type="qcurve"/>
      <point x="1268" y="228"/>
      <point x="1262" y="273"/>
      <point x="1234" y="306"/>
      <point x="1198" y="319"/>
      <point x="1187" y="307" type="qcurve"/>
      <point x="1169" y="289"/>
      <point x="1176" y="243"/>
      <point x="1200" y="207"/>
      <point x="1236" y="194"/>
    </contour>
    <contour>
      <point x="444" y="438" type="line"/>
      <point x="481" y="408"/>
      <point x="509" y="374" type="qcurve"/>
      <point x="532" y="345"/>
      <point x="570" y="276"/>
      <point x="568" y="245" type="qcurve"/>
      <point x="566" y="219"/>
      <point x="544" y="146"/>
      <point x="501" y="74"/>
      <point x="436" y="13"/>
      <point x="390" y="0" type="qcurve"/>
      <point x="370" y="7"/>
      <point x="332" y="35"/>
      <point x="297" y="60"/>
      <point x="264" y="79"/>
      <point x="248" y="76" type="qcurve"/>
      <point x="237" y="75"/>
      <point x="175" y="50"/>
      <point x="104" y="23"/>
      <point x="39" y="0"/>
      <point x="24" y="0" type="qcurve"/>
      <point x="15" y="3"/>
      <point x="-2" y="44"/>
      <point x="5" y="106"/>
      <point x="50" y="183"/>
      <point x="104" y="222" type="qcurve"/>
      <point x="93" y="220"/>
      <point x="61" y="227"/>
      <point x="31" y="245"/>
      <point x="5" y="270"/>
      <point x="-5" y="305"/>
      <point x="7" y="348"/>
      <point x="30" y="374" type="qcurve"/>
      <point x="66" y="416"/>
      <point x="151" y="442"/>
      <point x="225" y="429"/>
      <point x="278" y="387"/>
      <point x="282" y="360" type="qcurve"/>
      <point x="284" y="324"/>
      <point x="253" y="273"/>
      <point x="210" y="239"/>
      <point x="166" y="215"/>
      <point x="155" y="206" type="qcurve"/>
      <point x="128" y="184"/>
      <point x="103" y="142"/>
      <point x="100" y="113"/>
      <point x="118" y="99"/>
      <point x="134" y="105" type="qcurve"/>
      <point x="171" y="118"/>
      <point x="224" y="155"/>
      <point x="258" y="185"/>
      <point x="275" y="204"/>
      <point x="278" y="199" type="qcurve"/>
      <point x="281" y="195"/>
      <point x="302" y="153"/>
      <point x="335" y="109"/>
      <point x="372" y="77"/>
      <point x="390" y="83" type="qcurve"/>
      <point x="396" y="84"/>
      <point x="428" y="109"/>
      <point x="458" y="152"/>
      <point x="475" y="210"/>
      <point x="469" y="245" type="qcurve"/>
      <point x="461" y="278"/>
      <point x="421" y="342"/>
      <point x="377" y="395"/>
      <point x="339" y="432"/>
      <point x="332" y="438" type="qcurve"/>
    </contour>
    <contour>
      <point x="88" y="381" type="qcurve"/>
      <point x="74" y="358"/>
      <point x="91" y="316"/>
      <point x="128" y="289"/>
      <point x="170" y="281"/>
      <point x="181" y="291" type="qcurve"/>
      <point x="194" y="323"/>
      <point x="170" y="364"/>
      <point x="131" y="384"/>
      <point x="92" y="387"/>
    </contour>
    <contour>
      <point x="570" y="438" type="qcurve"/>
      <point x="714" y="438" type="line"/>
      <point x="756" y="368"/>
      <point x="769" y="293" type="qcurve"/>
      <point x="774" y="261"/>
      <point x="774" y="189"/>
      <point x="754" y="114"/>
      <point x="709" y="36"/>
      <point x="670" y="-1" type="qcurve"/>
      <point x="654" y="10"/>
      <point x="616" y="23"/>
      <point x="579" y="29"/>
      <point x="546" y="30"/>
      <point x="537" y="30" type="qcurve"/>
      <point x="511" y="28"/>
      <point x="465" y="22"/>
      <point x="447" y="17" type="qcurve" name="hr01"/>
      <point x="427" y="13"/>
      <point x="409" y="7" type="qcurve"/>
      <point x="425" y="27"/>
      <point x="440" y="47" type="qcurve"/>
      <point x="454" y="65"/>
      <point x="483" y="105"/>
      <point x="497" y="125" type="qcurve"/>
      <point x="505" y="123"/>
      <point x="536" y="113"/>
      <point x="568" y="99"/>
      <point x="598" y="85"/>
      <point x="607" y="80" type="qcurve"/>
      <point x="630" y="89"/>
      <point x="676" y="150"/>
      <point x="686" y="244"/>
      <point x="640" y="368"/>
    </contour>
    <contour>
      <point x="827" y="438" type="qcurve"/>
      <point x="971" y="438" type="line"/>
      <point x="1013" y="368"/>
      <point x="1026" y="293" type="qcurve"/>
      <point x="1031" y="261"/>
      <point x="1031" y="189"/>
      <point x="1011" y="114"/>
      <point x="966" y="36"/>
      <point x="927" y="-1" type="qcurve"/>
      <point x="911" y="10"/>
      <point x="873" y="23"/>
      <point x="836" y="29"/>
      <point x="803" y="30"/>
      <point x="794" y="30" type="qcurve"/>
      <point x="768" y="28"/>
      <point x="722" y="22"/>
      <point x="705" y="17" type="qcurve"/>
      <point x="684" y="13"/>
      <point x="666" y="7" type="qcurve"/>
      <point x="679" y="27"/>
      <point x="693" y="47" type="qcurve"/>
      <point x="705" y="65"/>
      <point x="733" y="105"/>
      <point x="745" y="126" type="qcurve"/>
      <point x="753" y="125"/>
      <point x="783" y="117"/>
      <point x="818" y="103"/>
      <point x="853" y="87"/>
      <point x="864" y="80" type="qcurve"/>
      <point x="887" y="89"/>
      <point x="933" y="150"/>
      <point x="943" y="244"/>
      <point x="897" y="368"/>
    </contour>
  </outline>
</glyph>
